SplineFontDB: 3.2
FontName: GotoMono-Italic
FullName: Goto Mono Italic
FamilyName: Goto Mono
Weight: Book
Copyright: Copyright 2015 Google LLC. All Rights Reserved.
Version: 2.6
ItalicAngle: -12
UnderlinePosition: -125
UnderlineWidth: 50
Ascent: 800
Descent: 200
InvalidEm: 0
sfntRevision: 0x00020189
LayerCount: 2
Layer: 0 0 "Back" 1
Layer: 1 0 "Fore" 0
XUID: [1021 328 1927437058 14855360]
StyleMap: 0x0001
FSType: 0
OS2Version: 3
OS2_WeightWidthSlopeOnly: 0
OS2_UseTypoMetrics: 0
CreationTime: 1604030168
ModificationTime: 1609931045
PfmFamily: 49
TTFWeight: 400
TTFWidth: 5
LineGap: 0
VLineGap: 0
Panose: 2 11 5 9 4 5 4 2 2 4
OS2TypoAscent: 1069
OS2TypoAOffset: 0
OS2TypoDescent: -293
OS2TypoDOffset: 0
OS2TypoLinegap: 0
OS2WinAscent: 1069
OS2WinAOffset: 0
OS2WinDescent: 293
OS2WinDOffset: 0
HheadAscent: 1069
HheadAOffset: 0
HheadDescent: -293
HheadDOffset: 0
OS2SubXSize: 650
OS2SubYSize: 600
OS2SubXOff: 0
OS2SubYOff: 75
OS2SupXSize: 650
OS2SupYSize: 600
OS2SupXOff: 0
OS2SupYOff: 350
OS2StrikeYSize: 50
OS2StrikeYPos: 322
OS2CapHeight: 714
OS2XHeight: 536
OS2Vendor: 'GOOG'
OS2CodePages: 0000019f.dfd70000
OS2UnicodeRanges: e00002ff.0200fcff.08000039.00100000
Lookup: 1 0 0 "'aalt' Access All Alternates lookup 0" { "'aalt' Access All Alternates lookup 0 subtable"  } ['aalt' ('DFLT' <'dflt' > 'cyrl' <'MKD ' 'SRB ' 'dflt' > 'grek' <'dflt' > 'latn' <'APPH' 'CAT ' 'IPPH' 'MAH ' 'MOL ' 'NAV ' 'ROM ' 'dflt' > ) ]
Lookup: 3 0 0 "'aalt' Access All Alternates lookup 1" { "'aalt' Access All Alternates lookup 1 subtable"  } ['aalt' ('DFLT' <'dflt' > 'cyrl' <'MKD ' 'SRB ' 'dflt' > 'grek' <'dflt' > 'latn' <'APPH' 'CAT ' 'IPPH' 'MAH ' 'MOL ' 'NAV ' 'ROM ' 'dflt' > ) ]
Lookup: 4 0 0 "'ccmp' Glyph Composition/Decomposition lookup 2" { "'ccmp' Glyph Composition/Decomposition lookup 2 subtable"  } ['ccmp' ('DFLT' <'dflt' > 'cyrl' <'MKD ' 'SRB ' 'dflt' > 'grek' <'dflt' > 'latn' <'APPH' 'CAT ' 'IPPH' 'MAH ' 'MOL ' 'NAV ' 'ROM ' 'dflt' > ) ]

StartChar: .notdef
Encoding: 1114112 -1 0
Width: 563
Flags: HW
LayerCount: 2
Fore
SplineSet
76 0 m 1
 227.765625 714 l 1
 638.765625 714 l 1
 487 0 l 1
 76 0 l 1
137.840820312 51 m 1
 446.840820312 51 l 1
 576.924804688 663 l 1
 267.924804688 663 l 1
 137.840820312 51 l 1
EndSplineSet
EndChar

StartChar: exclam
Encoding: 33 33 4
Width: 563
Flags: HW
LayerCount: 2
Fore
SplineSet
290.936523438 202 m 1
 382.765625 714 l 1
 488.765625 714 l 1
 363.936523438 202 l 1
 290.936523438 202 l 1
281.662109375 -11 m 0
 252.485122253 -11 232.664660891 3.59365561491 232.664660891 35.6775580144 c 0
 232.664660891 42.08072007 233.454117697 49.1805255643 235.116210938 57 c 0
 245.318359375 105 275.357421875 124 310.357421875 124 c 0
 338.615510768 124 358.704542661 111.566303995 358.704542661 79.2355421625 c 0
 358.704542661 72.666083019 357.87510001 65.2751071834 356.116210938 57 c 0
 346.125976562 10 314.662109375 -11 281.662109375 -11 c 0
EndSplineSet
Substitution2: "'smcp' Lowercase to Small Capitals lookup 35 subtable" exclam.sc
Substitution2: "'c2sc' Capitals to Small Capitals lookup 34 subtable" exclam.sc
Substitution2: "'aalt' Access All Alternates lookup 0 subtable" exclam.sc
EndChar

StartChar: quotedbl
Encoding: 34 34 5
Width: 563
Flags: HW
LayerCount: 2
Fore
SplineSet
439.92578125 456 m 1
 475.765625 714 l 1
 570.765625 714 l 1
 496.92578125 456 l 1
 439.92578125 456 l 1
260.92578125 456 m 1
 296.765625 714 l 1
 390.765625 714 l 1
 317.92578125 456 l 1
 260.92578125 456 l 1
EndSplineSet
EndChar

StartChar: numbersign
Encoding: 35 35 6
Width: 563
Flags: HW
LayerCount: 2
Fore
SplineSet
99 0 m 1
 177.061523438 212 l 1
 72.0615234375 212 l 1
 86.0908203125 278 l 1
 203.090820312 278 l 1
 264.737304688 441 l 1
 151.737304688 441 l 1
 165.553710938 506 l 1
 289.553710938 506 l 1
 367.765625 714 l 1
 436.765625 714 l 1
 357.553710938 506 l 1
 472.553710938 506 l 1
 550.765625 714 l 1
 616.765625 714 l 1
 538.553710938 506 l 1
 644.553710938 506 l 1
 630.737304688 441 l 1
 513.737304688 441 l 1
 452.090820312 278 l 1
 566.090820312 278 l 1
 552.061523438 212 l 1
 427.061523438 212 l 1
 346 0 l 1
 278 0 l 1
 359.061523438 212 l 1
 245.061523438 212 l 1
 166 0 l 1
 99 0 l 1
270.090820312 278 m 1
 384.090820312 278 l 1
 445.737304688 441 l 1
 331.737304688 441 l 1
 270.090820312 278 l 1
EndSplineSet
EndChar

StartChar: dollar
Encoding: 36 36 7
Width: 563
Flags: HW
LayerCount: 2
Fore
SplineSet
259.439453125 35 m 1
 194.65234375 36 138.203125 48 101.454101562 68 c 1
 119.095703125 151 l 1
 157.419921875 129 214.380859375 110 275.168945312 109 c 1
 322.356445312 331 l 1
 229.307690187 365.592134516 182.013215888 404.455354471 182.013215888 474.616360235 c 0
 182.013215888 487.613022437 183.636081108 501.6836386 186.891601562 517 c 0
 207.509765625 614 289.900390625 677 397.813476562 686 c 1
 413.330078125 759 l 1
 471.330078125 759 l 1
 456.026367188 687 l 1
 516.6015625 685 562.625 671 604.374023438 651 c 1
 563.283203125 580 l 1
 526.896484375 597 486.659179688 610 440.296875 613 c 1
 393.747070312 394 l 1
 489.369009033 360.000498186 540.919739291 326.000996371 540.919739291 253.92741825 c 0
 540.919739291 241.207309081 539.314039568 227.301270374 536.061523438 212 c 0
 516.506835938 120 436.478515625 54 318.290039062 39 c 1
 297.671875 -58 l 1
 239.671875 -58 l 1
 259.439453125 35 l 1
382.084960938 612 m 1
 317.596679688 605 278.944335938 569 268.104492188 518 c 0
 266.02885378 508.234999339 264.928807672 499.386549558 264.928807672 491.304543825 c 0
 264.928807672 455.521083621 286.493201186 434.762358204 340.423828125 416 c 1
 382.084960938 612 l 1
334.018554688 113 m 1
 405.357421875 124 445.008789062 160 455.849609375 211 c 0
 457.661162342 219.523111907 458.614224581 227.292139697 458.614224581 234.433105788 c 0
 458.614224581 270.021752383 434.942480001 290.010876191 375.892578125 310 c 1
 334.018554688 113 l 1
EndSplineSet
EndChar

StartChar: percent
Encoding: 37 37 8
Width: 563
Flags: HW
LayerCount: 2
Fore
SplineSet
221.409179688 383 m 0
 154.528133383 383 111.630777024 425.26956409 111.630777024 500.801817963 c 0
 111.630777024 516.747088767 113.542519718 534.174728406 117.543945312 553 c 0
 140.5 661 207.465820312 722 295.465820312 722 c 0
 361.721697965 722 405.365900575 680.159324886 405.365900575 604.430980624 c 0
 405.365900575 588.721889362 403.487830616 571.55456517 399.543945312 553 c 0
 376.587890625 445 308.409179688 383 221.409179688 383 c 0
234.3125 439 m 0
 280.3125 439 310.176757812 476 326.543945312 553 c 0
 330.929859242 573.634488859 333.121668129 591.189685518 333.121668129 605.850728733 c 0
 333.121668129 646.609588506 316.181528405 665 282.350585938 665 c 0
 235.350585938 665 206.123046875 631 189.543945312 553 c 0
 185.280945439 532.944569568 183.155088002 515.602718422 183.155088002 500.921438122 c 0
 183.155088002 459.236010815 200.293666232 439 234.3125 439 c 0
71.1787109375 62 m 1
 565.586914062 652 l 1
 642.586914062 652 l 1
 148.178710938 62 l 1
 71.1787109375 62 l 1
419.086914062 -9 m 0
 352.205867758 -9 309.308511399 33.26956409 309.308511399 108.801817963 c 0
 309.308511399 124.747088767 311.220254093 142.174728406 315.221679688 161 c 0
 338.177734375 269 405.143554688 330 493.143554688 330 c 0
 559.39943234 330 603.04363495 288.159324886 603.04363495 212.430980624 c 0
 603.04363495 196.721889362 601.165564991 179.55456517 597.221679688 161 c 0
 574.265625 53 506.086914062 -9 419.086914062 -9 c 0
431.990234375 47 m 0
 477.990234375 47 507.854492188 84 524.221679688 161 c 0
 528.607593617 181.634488859 530.799402504 199.189685518 530.799402504 213.850728733 c 0
 530.799402504 254.609588506 513.85926278 273 480.028320312 273 c 0
 433.028320312 273 403.80078125 239 387.221679688 161 c 0
 382.958679814 140.944569568 380.832822377 123.602718422 380.832822377 108.921438122 c 0
 380.832822377 67.2360108145 397.971400607 47 431.990234375 47 c 0
EndSplineSet
EndChar

StartChar: ampersand
Encoding: 38 38 9
Width: 563
Flags: HW
LayerCount: 2
Fore
SplineSet
213.874023438 -10 m 0
 117.111398853 -10 71.1473117611 45.665906757 71.1473117611 123.332850035 c 0
 71.1473117611 138.773813441 72.9640610554 155.08437679 76.5595703125 172 c 0
 97.8154296875 272 168.206054688 335 249.322265625 392 c 1
 230.459898591 434.088936347 215.947254429 480.696950661 215.947254429 529.701239539 c 0
 215.947254429 545.897937317 217.532626931 562.356405987 221.0703125 579 c 0
 239.5625 666 305.103515625 725 392.103515625 725 c 0
 465.0888724 725 504.46697841 682.773584593 504.46697841 618.394497034 c 0
 504.46697841 606.032429036 503.015042503 592.853555372 500.0703125 579 c 0
 482.002929688 494 415.399414062 430 347.55859375 379 c 1
 438.999023438 207 l 1
 470.776367188 253 495.404296875 303 509.544921875 346 c 1
 590.544921875 346 l 1
 564.028320312 273 524.298828125 199 475.333007812 138 c 1
 548 0 l 1
 447 0 l 1
 411.091796875 71 l 1
 352.67578125 22 285.874023438 -10 213.874023438 -10 c 0
299.857421875 578 m 0
 297.127213006 565.154663893 295.911565091 552.022864835 295.911565091 538.911245567 c 0
 295.911565091 503.027827288 305.016624109 467.295553244 317.099609375 438 c 1
 359.901367188 470 409.891601562 517 423.283203125 580 c 0
 425.29838821 589.481481012 426.274789311 598.135895988 426.274789311 605.935969063 c 0
 426.274789311 639.269095885 408.443488494 657 377.649414062 657 c 0
 339.649414062 657 310.485351562 628 299.857421875 578 c 0
161.197265625 175 m 0
 158.88894535 164.140387508 157.754049072 153.811116433 157.754049072 144.138098646 c 0
 157.754049072 95.9134560326 185.961915233 64 237.603515625 64 c 0
 287.603515625 64 335.767578125 93 378.6953125 135 c 1
 280.143554688 330 l 1
 225.428710938 289 175.438476562 242 161.197265625 175 c 0
EndSplineSet
Substitution2: "'smcp' Lowercase to Small Capitals lookup 35 subtable" ampersand.sc
Substitution2: "'c2sc' Capitals to Small Capitals lookup 34 subtable" ampersand.sc
Substitution2: "'aalt' Access All Alternates lookup 0 subtable" ampersand.sc
EndChar

StartChar: quotesingle
Encoding: 39 39 10
Width: 563
Flags: HW
LayerCount: 2
Fore
SplineSet
349.92578125 456 m 1
 385.765625 714 l 1
 480.765625 714 l 1
 406.92578125 456 l 1
 349.92578125 456 l 1
EndSplineSet
EndChar

StartChar: parenleft
Encoding: 40 40 11
Width: 563
Flags: HW
LayerCount: 2
Fore
SplineSet
295.991210938 -160 m 1
 247.732092309 -83.6736905206 225.050119169 9.10452217756 225.050119169 110.073367985 c 0
 225.050119169 162.55601477 231.178383739 217.251624527 243.028320312 273 c 0
 278.099609375 438 359.470703125 595 481.765625 714 c 1
 560.765625 714 l 1
 442.770507812 587 362.82421875 432 329.240234375 274 c 0
 317.916752918 220.727243774 312.263338254 167.454487547 312.263338254 115.440315012 c 0
 312.263338254 16.1164056838 332.877945399 -78.6182049812 373.991210938 -160 c 1
 295.991210938 -160 l 1
EndSplineSet
Substitution2: "'smcp' Lowercase to Small Capitals lookup 35 subtable" parenleft.sc
Substitution2: "'c2sc' Capitals to Small Capitals lookup 34 subtable" parenleft.sc
Substitution2: "'sups' Superscript lookup 23 subtable" uni207D
Substitution2: "'subs' Subscript lookup 22 subtable" uni208D
AlternateSubs2: "'aalt' Access All Alternates lookup 1 subtable" uni208D uni207D parenleft.sc
EndChar

StartChar: parenright
Encoding: 41 41 12
Width: 563
Flags: HW
LayerCount: 2
Fore
SplineSet
377.765625 714 m 1
 426.024317055 637.673348907 448.706057471 544.894647328 448.706057471 443.925276296 c 0
 448.706057471 391.443043308 442.578016168 336.747895447 430.728515625 281 c 0
 395.65625 116 314.28515625 -41 191.991210938 -160 c 1
 112.991210938 -160 l 1
 230.985351562 -33 310.931640625 122 344.515625 280 c 0
 355.910817547 333.609590286 361.587111241 386.98298825 361.587111241 438.98384498 c 0
 361.587111241 538.301690867 340.881004742 632.612751253 299.765625 714 c 1
 377.765625 714 l 1
EndSplineSet
Substitution2: "'smcp' Lowercase to Small Capitals lookup 35 subtable" parenright.sc
Substitution2: "'c2sc' Capitals to Small Capitals lookup 34 subtable" parenright.sc
Substitution2: "'sups' Superscript lookup 23 subtable" uni207E
Substitution2: "'subs' Subscript lookup 22 subtable" uni208E
AlternateSubs2: "'aalt' Access All Alternates lookup 1 subtable" uni208E uni207E parenright.sc
EndChar

StartChar: asterisk
Encoding: 42 42 13
Width: 563
Flags: HW
LayerCount: 2
Fore
SplineSet
433.220703125 368 m 1
 390.616210938 511 l 1
 287.43359375 369 l 1
 224.998046875 414 l 1
 348.568359375 539 l 1
 207.181640625 556 l 1
 238.3359375 632 l 1
 380.833007812 592 l 1
 400.842773438 752 l 1
 481.842773438 752 l 1
 434.833007812 592 l 1
 595.973632812 635 l 1
 593.755859375 554 l 1
 444.35546875 538 l 1
 516.786132812 413 l 1
 433.220703125 368 l 1
EndSplineSet
EndChar

StartChar: plus
Encoding: 43 43 14
Width: 563
Flags: HW
LayerCount: 2
Fore
SplineSet
272.506835938 120 m 1
 314.592773438 318 l 1
 142.592773438 318 l 1
 157.471679688 388 l 1
 329.471679688 388 l 1
 371.55859375 586 l 1
 442.55859375 586 l 1
 400.471679688 388 l 1
 570.471679688 388 l 1
 555.592773438 318 l 1
 385.592773438 318 l 1
 343.506835938 120 l 1
 272.506835938 120 l 1
EndSplineSet
Substitution2: "'sups' Superscript lookup 23 subtable" uni207A
Substitution2: "'subs' Subscript lookup 22 subtable" uni208A
AlternateSubs2: "'aalt' Access All Alternates lookup 1 subtable" uni208A uni207A
EndChar

StartChar: comma
Encoding: 44 44 15
Width: 563
Flags: HW
LayerCount: 2
Fore
SplineSet
162.879882812 -137 m 1
 201.734375 -53 243.627929688 50 269.357421875 124 c 1
 370.357421875 124 l 1
 375.806640625 112 l 1
 339.439453125 35 283.247070312 -60 232.879882812 -137 c 1
 162.879882812 -137 l 1
EndSplineSet
EndChar

StartChar: hyphen
Encoding: 45 45 16
Width: 563
Flags: HW
LayerCount: 2
Fore
SplineSet
189.100585938 231 m 1
 205.892578125 310 l 1
 488.892578125 310 l 1
 472.100585938 231 l 1
 189.100585938 231 l 1
EndSplineSet
EndChar

StartChar: period
Encoding: 46 46 17
Width: 563
Flags: HW
LayerCount: 2
Fore
SplineSet
278.662109375 -11 m 0
 250.33534829 -11 230.660035523 3.5765685683 230.660035523 35.621211134 c 0
 230.660035523 42.0390614725 231.449240749 49.1575814999 233.116210938 57 c 0
 243.318359375 105 273.357421875 124 307.357421875 124 c 0
 335.775661369 124 356.630599186 111.424970548 356.630599186 78.6839270326 c 0
 356.630599186 72.253104192 355.826041929 65.044301906 354.116210938 57 c 0
 344.125976562 10 312.662109375 -11 278.662109375 -11 c 0
EndSplineSet
EndChar

StartChar: slash
Encoding: 47 47 18
Width: 563
Flags: HW
LayerCount: 2
Fore
SplineSet
82.787109375 -1 m 1
 504.977539062 715 l 1
 586.977539062 715 l 1
 165.787109375 -1 l 1
 82.787109375 -1 l 1
EndSplineSet
Substitution2: "'frac' Diagonal Fractions lookup 26 subtable" fraction
Substitution2: "'aalt' Access All Alternates lookup 0 subtable" fraction
EndChar

StartChar: zero
Encoding: 48 48 19
Width: 563
Flags: HW
LayerCount: 2
Fore
SplineSet
278.874023438 -10 m 0
 158.546848569 -10 106.113060337 63.7497090509 106.113060337 194.265592886 c 0
 106.113060337 241.636416457 113.020329323 296.485228016 126.095703125 358 c 0
 175.196289062 589 266.890625 724 434.890625 724 c 0
 555.979562481 724 609.751247896 650.949021247 609.751247896 519.337596793 c 0
 609.751247896 472.697613154 602.998457823 418.703454296 590.095703125 358 c 0
 540.995117188 127 447.874023438 -10 278.874023438 -10 c 0
211.095703125 358 m 0
 199.192382812 302 191.989257812 254 191.274414062 213 c 1
 505.596679688 605 l 1
 487.760742188 634 459.736328125 648 418.736328125 648 c 0
 315.736328125 648 252.543945312 553 211.095703125 358 c 0
295.028320312 66 m 0
 399.028320312 66 465.221679688 161 507.095703125 358 c 0
 519.503700929 416.378195649 525.99352031 465.88345615 525.99352031 507.240237369 c 0
 525.99352031 511.931312706 525.910020792 516.517547824 525.7421875 521 c 1
 205.931640625 122 l 1
 221.280273438 86 250.028320312 66 295.028320312 66 c 0
EndSplineSet
Substitution2: "'zero' Slashed Zero lookup 37 subtable" zero.slash
Substitution2: "'onum' Oldstyle Figures lookup 33 subtable" zero.osf
Substitution2: "'frac' Diagonal Fractions lookup 27 subtable" zero.numr
Substitution2: "'dnom' Denominators lookup 25 subtable" zero.dnom
Substitution2: "'numr' Numerators lookup 24 subtable" zero.numr
Substitution2: "'sups' Superscript lookup 23 subtable" uni2070
Substitution2: "'subs' Subscript lookup 22 subtable" uni2080
AlternateSubs2: "'aalt' Access All Alternates lookup 1 subtable" uni2070 zero.osf zero.dnom zero.numr uni2080
EndChar

StartChar: one
Encoding: 49 49 20
Width: 563
Flags: HW
LayerCount: 2
Fore
SplineSet
122 0 m 1
 134.752929688 60 l 1
 278.87890625 70 l 1
 359.012695312 447 l 2
 370.916015625 503 389.0703125 579 400.422851562 623 c 1
 376.447265625 609 363.171875 603 329.770507812 587 c 2
 240.41796875 543 l 1
 215.447265625 609 l 1
 429.765625 714 l 1
 501.765625 714 l 1
 364.87890625 70 l 1
 501.752929688 60 l 1
 489 0 l 1
 122 0 l 1
EndSplineSet
Substitution2: "'onum' Oldstyle Figures lookup 33 subtable" one.osf
Substitution2: "'frac' Diagonal Fractions lookup 27 subtable" one.numr
Substitution2: "'dnom' Denominators lookup 25 subtable" one.dnom
Substitution2: "'numr' Numerators lookup 24 subtable" one.numr
Substitution2: "'sups' Superscript lookup 23 subtable" uni00B9
Substitution2: "'subs' Subscript lookup 22 subtable" uni2081
AlternateSubs2: "'aalt' Access All Alternates lookup 1 subtable" uni00B9 one.osf one.dnom one.numr uni2081
EndChar

StartChar: two
Encoding: 50 50 21
Width: 563
Flags: HW
LayerCount: 2
Fore
SplineSet
66 0 m 1
 81.94140625 75 l 1
 293.90234375 263 l 2
 403.520507812 360 479.82421875 432 499.591796875 525 c 0
 502.465656151 538.519901526 503.842751194 550.848159641 503.842751194 562.018130247 c 0
 503.842751194 620.247890778 466.418780666 647 408.524414062 647 c 0
 349.524414062 647 290.360351562 618 239.495117188 581 c 1
 204.249023438 641 l 1
 267.239257812 688 342.890625 724 429.890625 724 c 0
 533.516614953 724 594.510405111 672.775695287 594.510405111 581.970495745 c 0
 594.510405111 565.869750657 592.592813436 548.524616687 588.655273438 530 c 0
 565.2734375 420 484.418945312 336 367.100585938 231 c 2
 198.854492188 84 l 1
 198.004882812 80 l 1
 525.004882812 80 l 1
 508 0 l 1
 66 0 l 1
EndSplineSet
Substitution2: "'onum' Oldstyle Figures lookup 33 subtable" two.osf
Substitution2: "'frac' Diagonal Fractions lookup 27 subtable" two.numr
Substitution2: "'dnom' Denominators lookup 25 subtable" two.dnom
Substitution2: "'numr' Numerators lookup 24 subtable" two.numr
Substitution2: "'sups' Superscript lookup 23 subtable" uni00B2
Substitution2: "'subs' Subscript lookup 22 subtable" uni2082
AlternateSubs2: "'aalt' Access All Alternates lookup 1 subtable" uni00B2 two.osf two.dnom two.numr uni2082
EndChar

StartChar: three
Encoding: 51 51 22
Width: 563
Flags: HW
LayerCount: 2
Fore
SplineSet
239.874023438 -10 m 0
 183.874023438 -10 119.787109375 -1 72.1640625 29 c 1
 90.0185546875 113 l 1
 137.642578125 83 201.241210938 67 260.241210938 67 c 0
 369.241210938 67 428.931640625 122 446.149414062 203 c 0
 448.76164282 215.290110299 450.048003917 226.57701149 450.048003917 236.907509062 c 0
 450.048003917 303.067397352 397.287377404 330 302.143554688 330 c 2
 237.143554688 330 l 1
 253.72265625 408 l 1
 319.72265625 408 l 2
 417.72265625 408 482.201171875 462 498.780273438 540 c 0
 500.998255647 550.434843544 502.106802201 560.214770421 502.106802201 569.29066986 c 0
 502.106802201 618.489267766 469.532131184 647 404.524414062 647 c 0
 344.524414062 647 286.422851562 623 240.258789062 594 c 1
 209.224609375 655 l 1
 267.7265625 695 342.890625 724 425.890625 724 c 0
 538.149060899 724 594.797249466 669.659065564 594.797249466 588.665462159 c 0
 594.797249466 575.143566918 593.218330947 560.878798981 590.055664062 546 c 0
 570.288085938 453 502.109375 391 411.920898438 376 c 1
 411.283203125 373 l 1
 497.725441688 360.509851141 541.628201507 317.512288881 541.628201507 245.739322924 c 0
 541.628201507 231.316799821 539.855430985 215.732340939 536.298828125 199 c 0
 510.579101562 78 410.874023438 -10 239.874023438 -10 c 0
EndSplineSet
Substitution2: "'onum' Oldstyle Figures lookup 33 subtable" three.osf
Substitution2: "'frac' Diagonal Fractions lookup 27 subtable" three.numr
Substitution2: "'dnom' Denominators lookup 25 subtable" three.dnom
Substitution2: "'numr' Numerators lookup 24 subtable" three.numr
Substitution2: "'sups' Superscript lookup 23 subtable" uni00B3
Substitution2: "'subs' Subscript lookup 22 subtable" uni2083
AlternateSubs2: "'aalt' Access All Alternates lookup 1 subtable" uni00B3 three.osf three.dnom three.numr uni2083
EndChar

StartChar: four
Encoding: 52 52 23
Width: 563
Flags: HW
LayerCount: 2
Fore
SplineSet
335 0 m 1
 369.008789062 160 l 1
 80.0087890625 160 l 1
 95.951171875 235 l 1
 471.615234375 718 l 1
 573.615234375 718 l 1
 471.588867188 238 l 1
 567.588867188 238 l 1
 551.008789062 160 l 1
 455.008789062 160 l 1
 421 0 l 1
 335 0 l 1
182.588867188 238 m 1
 385.588867188 238 l 1
 422.786132812 413 l 2
 438.302734375 486 462.0703125 579 473.84765625 625 c 1
 469.84765625 625 l 1
 454.470703125 595 422.90625 550 404.591796875 525 c 2
 182.588867188 238 l 1
EndSplineSet
Substitution2: "'onum' Oldstyle Figures lookup 33 subtable" four.osf
Substitution2: "'frac' Diagonal Fractions lookup 27 subtable" four.numr
Substitution2: "'dnom' Denominators lookup 25 subtable" four.dnom
Substitution2: "'numr' Numerators lookup 24 subtable" four.numr
Substitution2: "'sups' Superscript lookup 23 subtable" uni2074
Substitution2: "'subs' Subscript lookup 22 subtable" uni2084
AlternateSubs2: "'aalt' Access All Alternates lookup 1 subtable" uni2074 four.osf four.dnom four.numr uni2084
EndChar

StartChar: five
Encoding: 53 53 24
Width: 563
Flags: HW
LayerCount: 2
Fore
SplineSet
237.874023438 -10 m 0
 176.874023438 -10 116.637695312 3 80.1640625 29 c 1
 98.0185546875 113 l 1
 135.642578125 83 191.241210938 67 249.241210938 67 c 0
 352.241210938 67 421.231445312 114 442.912109375 216 c 0
 446.092316499 230.961330705 447.641231265 244.827227573 447.641231265 257.583457735 c 0
 447.641231265 328.383335015 399.927010387 365 318.583007812 365 c 0
 281.583007812 365 235.8828125 357 205.39453125 350 c 1
 168.346679688 378 l 1
 265.765625 714 l 1
 598.765625 714 l 1
 581.760742188 634 l 1
 324.760742188 634 l 1
 262.974609375 428 l 1
 292.037109375 433 331.099609375 438 362.099609375 438 c 0
 468.210793146 438 541.879122811 385.275624406 541.879122811 280.453513664 c 0
 541.879122811 262.782016569 539.78538783 243.629844522 535.400390625 223 c 0
 505.004882812 80 395.874023438 -10 237.874023438 -10 c 0
EndSplineSet
Substitution2: "'onum' Oldstyle Figures lookup 33 subtable" five.osf
Substitution2: "'frac' Diagonal Fractions lookup 27 subtable" five.numr
Substitution2: "'dnom' Denominators lookup 25 subtable" five.dnom
Substitution2: "'numr' Numerators lookup 24 subtable" five.numr
Substitution2: "'sups' Superscript lookup 23 subtable" uni2075
Substitution2: "'subs' Subscript lookup 22 subtable" uni2085
AlternateSubs2: "'aalt' Access All Alternates lookup 1 subtable" uni2075 five.osf five.dnom five.numr uni2085
EndChar

StartChar: six
Encoding: 54 54 25
Width: 563
Flags: HW
LayerCount: 2
Fore
SplineSet
286.874023438 -10 m 0
 176.059750092 -10 109.395598182 53.2785775966 109.395598182 187.770295273 c 0
 109.395598182 223.192072548 114.019855301 263.55365421 123.6796875 309 c 0
 168.31640625 519 275.890625 724 522.890625 724 c 0
 548.890625 724 584.252929688 721 602.977539062 715 c 1
 586.611328125 638 l 1
 566.311523438 646 538.162109375 650 510.162109375 650 c 0
 336.162109375 650 261.31640625 519 222.370117188 364 c 1
 228.370117188 364 l 1
 264.786132812 413 322.650390625 450 401.650390625 450 c 0
 502.774550156 450 561.298073981 395.03576651 561.298073981 295.92758912 c 0
 561.298073981 275.467923399 558.804004452 253.126995952 553.67578125 229 c 0
 522.216796875 81 419.874023438 -10 286.874023438 -10 c 0
302.603515625 64 m 0
 378.603515625 64 443.231445312 114 467.462890625 228 c 0
 471.619437868 247.555453772 473.699907387 265.398716977 473.699907387 281.434442686 c 0
 473.699907387 345.759987942 440.222557481 381 372.984375 381 c 0
 286.984375 381 212.743164062 314 197.864257812 244 c 0
 194.359834826 227.513648674 192.490609365 210.565052824 192.490609365 193.970718767 c 0
 192.490609365 126.014867446 223.837592172 64 302.603515625 64 c 0
EndSplineSet
Substitution2: "'onum' Oldstyle Figures lookup 33 subtable" six.osf
Substitution2: "'frac' Diagonal Fractions lookup 27 subtable" six.numr
Substitution2: "'dnom' Denominators lookup 25 subtable" six.dnom
Substitution2: "'numr' Numerators lookup 24 subtable" six.numr
Substitution2: "'sups' Superscript lookup 23 subtable" uni2076
Substitution2: "'subs' Subscript lookup 22 subtable" uni2086
AlternateSubs2: "'aalt' Access All Alternates lookup 1 subtable" uni2076 six.osf six.dnom six.numr uni2086
EndChar

StartChar: seven
Encoding: 55 55 26
Width: 563
Flags: HW
LayerCount: 2
Fore
SplineSet
156 0 m 1
 549.760742188 634 l 1
 190.760742188 634 l 1
 207.765625 714 l 1
 657.765625 714 l 1
 642.673828125 643 l 1
 251 0 l 1
 156 0 l 1
EndSplineSet
Substitution2: "'onum' Oldstyle Figures lookup 33 subtable" seven.osf
Substitution2: "'frac' Diagonal Fractions lookup 27 subtable" seven.numr
Substitution2: "'dnom' Denominators lookup 25 subtable" seven.dnom
Substitution2: "'numr' Numerators lookup 24 subtable" seven.numr
Substitution2: "'sups' Superscript lookup 23 subtable" uni2077
Substitution2: "'subs' Subscript lookup 22 subtable" uni2087
AlternateSubs2: "'aalt' Access All Alternates lookup 1 subtable" uni2077 seven.osf seven.dnom seven.numr uni2087
EndChar

StartChar: eight
Encoding: 56 56 27
Width: 563
Flags: HW
LayerCount: 2
Fore
SplineSet
273.874023438 -10 m 0
 164.205849337 -10 96.0475611517 41.4520726845 96.0475611517 133.409609277 c 0
 96.0475611517 147.942467396 97.7499002915 163.487000521 101.259765625 180 c 0
 122.515625 280 192.631835938 337 278.49609375 374 c 1
 232.124953456 405.509540053 198.010554582 449.395340534 198.010554582 511.928853212 c 0
 198.010554582 524.809754003 199.458007826 538.481865908 202.543945312 553 c 0
 226.775390625 667 330.890625 724 435.890625 724 c 0
 528.596080238 724 599.031590616 680.401283236 599.031590616 593.203849708 c 0
 599.031590616 580.699189867 597.583058844 567.297906631 594.543945312 553 c 0
 576.051757812 466 513.998046875 414 432.346679688 378 c 1
 495.960115636 341.459783817 542.41489964 295.532095389 542.41489964 223.648871812 c 0
 542.41489964 210.940953444 540.963041485 197.421842941 537.897460938 183 c 0
 513.454101562 68 408.874023438 -10 273.874023438 -10 c 0
369.998046875 414 m 1
 440.162109375 443 493.239257812 481 507.693359375 549 c 0
 509.732067345 558.590981445 510.723572091 567.527326831 510.723572091 575.796761274 c 0
 510.723572091 624.433147819 476.425810029 650 419.162109375 650 c 0
 352.162109375 650 301.934570312 616 287.481445312 548 c 0
 285.373492023 538.082841949 284.386051079 528.922364509 284.386051079 520.423293171 c 0
 284.386051079 466.360872145 324.339949689 439.060307076 369.998046875 414 c 1
293.390625 63 m 0
 380.390625 63 437.018554688 113 452.53515625 186 c 0
 454.665577148 196.022439506 455.736279326 205.32753476 455.736279326 214.065450906 c 0
 455.736279326 265.484167658 418.660062893 297.262637323 342.26953125 340 c 1
 258.404296875 303 204.202148438 255 188.47265625 181 c 0
 186.062832526 169.662630314 184.824936159 158.902360819 184.824936159 148.82965434 c 0
 184.824936159 96.7107349754 217.967243167 63 293.390625 63 c 0
EndSplineSet
Substitution2: "'onum' Oldstyle Figures lookup 33 subtable" eight.osf
Substitution2: "'frac' Diagonal Fractions lookup 27 subtable" eight.numr
Substitution2: "'dnom' Denominators lookup 25 subtable" eight.dnom
Substitution2: "'numr' Numerators lookup 24 subtable" eight.numr
Substitution2: "'sups' Superscript lookup 23 subtable" uni2078
Substitution2: "'subs' Subscript lookup 22 subtable" uni2088
AlternateSubs2: "'aalt' Access All Alternates lookup 1 subtable" uni2078 eight.osf eight.dnom eight.numr uni2088
EndChar

StartChar: nine
Encoding: 57 57 28
Width: 563
Flags: HW
LayerCount: 2
Fore
SplineSet
196.874023438 -10 m 0
 167.874023438 -10 136.51171875 -7 116.787109375 -1 c 1
 133.3671875 77 l 1
 153.454101562 68 180.603515625 64 208.603515625 64 c 0
 371.603515625 64 452.661132812 196 491.39453125 350 c 1
 486.39453125 350 l 1
 446.766601562 300 389.115234375 264 312.115234375 264 c 0
 211.4052062 264 153.628377098 318.514967885 153.628377098 417.982048412 c 0
 153.628377098 439.009262685 156.2103902 462.045360894 161.514648438 487 c 0
 192.547851562 633 294.890625 724 428.890625 724 c 0
 537.387704857 724 603.825568027 662.805397111 603.825568027 526.322820247 c 0
 603.825568027 489.209982082 598.912988836 446.530165742 588.59765625 398 c 0
 548.211914062 208 439.874023438 -10 196.874023438 -10 c 0
339.78125 333 m 0
 420.78125 333 498.684570312 389 517.6015625 478 c 0
 520.358525428 490.96996955 521.886840702 505.141258937 521.886840702 519.603975496 c 0
 521.886840702 582.082645629 493.365052056 650 412.162109375 650 c 0
 332.162109375 650 269.470703125 595 246.727539062 488 c 0
 242.367649559 467.487948727 240.23536466 449.037606507 240.23536466 432.63362868 c 0
 240.23536466 365.866319963 275.559750979 333 339.78125 333 c 0
EndSplineSet
Substitution2: "'onum' Oldstyle Figures lookup 33 subtable" nine.osf
Substitution2: "'frac' Diagonal Fractions lookup 27 subtable" nine.numr
Substitution2: "'dnom' Denominators lookup 25 subtable" nine.dnom
Substitution2: "'numr' Numerators lookup 24 subtable" nine.numr
Substitution2: "'sups' Superscript lookup 23 subtable" uni2079
Substitution2: "'subs' Subscript lookup 22 subtable" uni2089
AlternateSubs2: "'aalt' Access All Alternates lookup 1 subtable" uni2079 nine.osf nine.dnom nine.numr uni2089
EndChar

StartChar: colon
Encoding: 58 58 29
Width: 563
Flags: HW
LayerCount: 2
Fore
SplineSet
369.360351562 411 m 0
 340.319749741 411 321.090966758 424.769086599 321.090966758 456.30588541 c 0
 321.090966758 462.777526133 321.900706363 469.997379589 323.6015625 478 c 0
 334.017578125 527 363.055664062 546 398.055664062 546 c 0
 426.278402654 546 446.20649418 532.90835943 446.20649418 500.433589987 c 0
 446.20649418 493.785927796 445.371446179 486.326053207 443.6015625 478 c 0
 433.612304688 431 403.360351562 411 369.360351562 411 c 0
279.662109375 -11 m 0
 250.485122253 -11 230.664660891 3.59365561491 230.664660891 35.6775580144 c 0
 230.664660891 42.08072007 231.454117697 49.1805255643 233.116210938 57 c 0
 243.318359375 105 273.357421875 124 308.357421875 124 c 0
 335.924848788 124 356.635042168 111.438627659 356.635042168 78.7372612928 c 0
 356.635042168 72.2929687809 355.830770359 65.066547917 354.116210938 57 c 0
 344.125976562 10 312.662109375 -11 279.662109375 -11 c 0
EndSplineSet
EndChar

StartChar: semicolon
Encoding: 59 59 30
Width: 563
Flags: HW
LayerCount: 2
Fore
SplineSet
381.360351562 411 m 0
 352.147072046 411 332.165976084 424.933317553 332.165976084 456.870331661 c 0
 332.165976084 463.196583858 332.949989849 470.229261065 334.6015625 478 c 0
 345.017578125 527 375.055664062 546 410.055664062 546 c 0
 438.278402654 546 458.20649418 532.90835943 458.20649418 500.433589987 c 0
 458.20649418 493.785927796 457.371446179 486.326053207 455.6015625 478 c 0
 445.612304688 431 414.360351562 411 381.360351562 411 c 0
160.879882812 -137 m 1
 199.734375 -53 242.627929688 50 268.357421875 124 c 1
 369.357421875 124 l 1
 373.806640625 112 l 1
 338.439453125 35 282.247070312 -60 230.879882812 -137 c 1
 160.879882812 -137 l 1
EndSplineSet
EndChar

StartChar: less
Encoding: 60 60 31
Width: 563
Flags: HW
LayerCount: 2
Fore
SplineSet
505.931640625 122 m 1
 147.29296875 326 l 1
 157.920898438 376 l 1
 606.896484375 597 l 1
 590.31640625 519 l 1
 245.8203125 352 l 1
 522.51171875 200 l 1
 505.931640625 122 l 1
EndSplineSet
EndChar

StartChar: equal
Encoding: 61 61 32
Width: 563
Flags: HW
LayerCount: 2
Fore
SplineSet
150.1484375 410 m 1
 166.940429688 489 l 1
 604.940429688 489 l 1
 588.1484375 410 l 1
 150.1484375 410 l 1
108.69921875 215 m 1
 125.491210938 294 l 1
 563.491210938 294 l 1
 546.69921875 215 l 1
 108.69921875 215 l 1
EndSplineSet
Substitution2: "'sups' Superscript lookup 23 subtable" uni207C
Substitution2: "'subs' Subscript lookup 22 subtable" uni208C
AlternateSubs2: "'aalt' Access All Alternates lookup 1 subtable" uni208C uni207C
EndChar

StartChar: greater
Encoding: 62 62 33
Width: 563
Flags: HW
LayerCount: 2
Fore
SplineSet
105.931640625 122 m 1
 122.51171875 200 l 1
 463.8203125 352 l 1
 190.31640625 519 l 1
 206.896484375 597 l 1
 562.920898438 376 l 1
 552.29296875 326 l 1
 105.931640625 122 l 1
EndSplineSet
EndChar

StartChar: question
Encoding: 63 63 34
Width: 563
Flags: HW
LayerCount: 2
Fore
SplineSet
261.400390625 223 m 2
 277.12890625 297 307.056640625 339 386.53515625 393 c 0
 464.012695312 447 494.814453125 479 509.268554688 547 c 0
 511.070566486 555.478107427 511.969107916 563.556890934 511.969107916 571.179925337 c 0
 511.969107916 617.505495397 478.785477988 647 413.524414062 647 c 0
 350.524414062 647 299.698242188 629 246.596679688 605 c 1
 229.900390625 677 l 1
 287.427734375 703 349.890625 724 428.890625 724 c 0
 537.690510882 724 598.749793964 674.789279347 598.749793964 592.463679766 c 0
 598.749793964 579.448871008 597.223783619 565.606446116 594.119140625 551 c 0
 574.563476562 459 529.998046875 414 444.032226562 353 c 0
 362.916992188 296 345.602539062 271 333.487304688 214 c 2
 330.936523438 202 l 1
 256.936523438 202 l 1
 261.400390625 223 l 2
252.662109375 -11 m 0
 223.485122253 -11 203.664660891 3.59365561491 203.664660891 35.6775580144 c 0
 203.664660891 42.08072007 204.454117697 49.1805255643 206.116210938 57 c 0
 216.318359375 105 245.357421875 124 281.357421875 124 c 0
 308.924848788 124 329.635042168 111.438627659 329.635042168 78.7372612928 c 0
 329.635042168 72.2929687809 328.830770359 65.066547917 327.116210938 57 c 0
 317.125976562 10 285.662109375 -11 252.662109375 -11 c 0
EndSplineSet
Substitution2: "'smcp' Lowercase to Small Capitals lookup 35 subtable" question.sc
Substitution2: "'c2sc' Capitals to Small Capitals lookup 34 subtable" question.sc
Substitution2: "'aalt' Access All Alternates lookup 0 subtable" question.sc
EndChar

StartChar: at
Encoding: 64 64 35
Width: 563
Flags: HW
LayerCount: 2
Fore
SplineSet
286.08203125 -89 m 0
 132.506547816 -89 56.7926181228 3.12079071781 56.7926181228 158.589151444 c 0
 56.7926181228 199.511915828 62.0385382649 244.823783971 72.4912109375 294 c 0
 125.84375 545 264.765625 714 451.765625 714 c 0
 575.983544832 714 644.412930758 628.239013744 644.412930758 483.462346501 c 0
 644.412930758 445.254652166 639.6470063 402.936672846 629.8828125 357 c 0
 603.951171875 235 546.956054688 108 463.956054688 108 c 0
 425.762983189 108 407.480112543 139.423473355 407.480112543 180.463020333 c 0
 407.480112543 184.553673819 407.661758048 188.739865724 408.0234375 193 c 1
 406.0234375 193 l 1
 376.395507812 143 332.956054688 108 281.956054688 108 c 0
 223.383268385 108 192.692273828 152.547757469 192.692273828 224.705800073 c 0
 192.692273828 246.175047276 195.409182924 270.088484897 200.916992188 296 c 0
 228.974609375 428 313.529296875 520 416.529296875 520 c 0
 460.529296875 520 505.978515625 508 526.640625 497 c 1
 473.491210938 294 l 2
 469.94140625 282 466.752929688 267 464.626953125 257 c 0
 459.816051756 234.366363497 457.670125609 216.753975838 457.670125609 203.353260515 c 0
 457.670125609 177.085232085 465.915564246 167 478.497070312 167 c 0
 512.497070312 167 542.501953125 247 566.095703125 358 c 0
 574.935669505 399.589510532 579.219403279 437.338079023 579.219403279 470.870775482 c 0
 579.219403279 586.499460472 528.284358753 652 437.586914062 652 c 0
 291.586914062 652 185.25390625 514 139.12890625 297 c 0
 129.388962545 251.176229918 124.446005618 209.520807309 124.446005618 172.500690725 c 0
 124.446005618 46.3290067093 181.862286935 -26 302.473632812 -26 c 0
 363.473632812 -26 419.662109375 -11 471.55078125 12 c 1
 458.584960938 -49 l 1
 405.270507812 -74 352.08203125 -89 286.08203125 -89 c 0
308.497070312 167 m 0
 352.497070312 167 382.038085938 226 407.65625 323 c 2
 441.86328125 451 l 1
 431.92578125 456 416.98828125 461 400.98828125 461 c 0
 337.98828125 461 294.833984375 385 275.491210938 294 c 0
 270.054354848 268.42128035 267.469203119 246.905281304 267.469203119 229.274102559 c 0
 267.469203119 186.936972809 282.37537637 167 308.497070312 167 c 0
EndSplineSet
EndChar

StartChar: A
Encoding: 65 65 36
Width: 563
GlyphClass: 2
Flags: HW
AnchorPoint: "Anchor-2" 694.766 714 basechar 0
AnchorPoint: "Anchor-1" 433.766 714 basechar 0
AnchorPoint: "Anchor-0" 282 0 basechar 0
LayerCount: 2
Fore
SplineSet
20 0 m 1
 383.190429688 716 l 1
 483.190429688 716 l 1
 543 0 l 1
 454 0 l 1
 439.1875 222 l 1
 218.1875 222 l 1
 109 0 l 1
 20 0 l 1
364.7421875 521 m 2
 255.766601562 300 l 1
 433.766601562 300 l 1
 418.7421875 521 l 2
 416.693359375 549 414.258789062 594 414.123046875 631 c 1
 399.258789062 594 377.481445312 548 364.7421875 521 c 2
EndSplineSet
Substitution2: "'c2sc' Capitals to Small Capitals lookup 34 subtable" a.sc
Substitution2: "Single Substitution lookup 32 subtable" ordfeminine
AlternateSubs2: "'aalt' Access All Alternates lookup 1 subtable" ordfeminine a.sc
EndChar

StartChar: B
Encoding: 66 66 37
Width: 563
GlyphClass: 2
Flags: HW
AnchorPoint: "Anchor-2" 694.766 714 basechar 0
AnchorPoint: "Anchor-1" 433.766 714 basechar 0
AnchorPoint: "Anchor-0" 282 0 basechar 0
LayerCount: 2
Fore
SplineSet
84 0 m 1
 235.765625 714 l 1
 413.765625 714 l 2
 538.500932229 714 611.902205069 677.233702421 611.902205069 585.502474626 c 0
 611.902205069 571.33508321 610.151354975 555.856606175 606.568359375 539 c 0
 587.225585938 448 530.53515625 393 450.55859375 379 c 1
 449.49609375 374 l 1
 513.835240347 361.435645646 561.369925372 329.226117916 561.369925372 254.451588558 c 0
 561.369925372 239.956274934 559.583608597 223.861401402 555.787109375 206 c 0
 528.3671875 77 428 0 290 0 c 2
 84 0 l 1
353.573242188 412 m 2
 451.573242188 412 499.650390625 450 516.017578125 527 c 0
 518.590805019 539.106307266 519.916723228 550.104481219 519.916723228 560.046867353 c 0
 519.916723228 614.162504973 480.635858208 637 389.3984375 637 c 2
 302.3984375 637 l 1
 254.573242188 412 l 1
 353.573242188 412 l 2
291.3671875 77 m 2
 398.3671875 77 449.20703125 128 465.999023438 207 c 0
 468.801852697 220.186256224 470.284736561 232.536697579 470.284736561 243.962967901 c 0
 470.284736561 300.992470018 433.344700848 335 339.206054688 335 c 2
 238.206054688 335 l 1
 183.3671875 77 l 1
 291.3671875 77 l 2
EndSplineSet
Substitution2: "'c2sc' Capitals to Small Capitals lookup 34 subtable" b.sc
Substitution2: "'aalt' Access All Alternates lookup 0 subtable" b.sc
EndChar

StartChar: C
Encoding: 67 67 38
Width: 563
GlyphClass: 2
Flags: HW
AnchorPoint: "Anchor-2" 694.766 714 basechar 0
AnchorPoint: "Anchor-1" 491.766 714 basechar 0
AnchorPoint: "Anchor-0" 328 0 basechar 0
LayerCount: 2
Fore
SplineSet
341.874023438 -10 m 0
 187.364990618 -10 116.90259387 81.3509230468 116.90259387 227.801340403 c 0
 116.90259387 267.128293328 121.98368262 310.428506226 131.8828125 357 c 0
 178.645507812 577 314.103515625 725 504.103515625 725 c 0
 569.103515625 725 623.915039062 710 668.388671875 684 c 1
 619.084960938 612 l 1
 584.760742188 634 536.524414062 647 487.524414062 647 c 0
 353.524414062 647 259.717773438 535 221.8828125 357 c 0
 212.962484091 315.033751662 208.328125498 276.833921721 208.328125498 242.973634837 c 0
 208.328125498 134.022233383 256.309646452 70 363.87890625 70 c 0
 410.87890625 70 463.004882812 80 515.04296875 99 c 1
 497.826171875 18 l 1
 443.575195312 -2 397.874023438 -10 341.874023438 -10 c 0
EndSplineSet
Substitution2: "'c2sc' Capitals to Small Capitals lookup 34 subtable" c.sc
Substitution2: "'aalt' Access All Alternates lookup 0 subtable" c.sc
EndChar

StartChar: D
Encoding: 68 68 39
Width: 563
GlyphClass: 2
Flags: HW
AnchorPoint: "Anchor-3" 360.883 357 basechar 0
AnchorPoint: "Anchor-2" 714.766 714 basechar 0
AnchorPoint: "Anchor-1" 412.766 714 basechar 0
AnchorPoint: "Anchor-0" 248 0 basechar 0
LayerCount: 2
Fore
SplineSet
61 0 m 1
 212.765625 714 l 1
 391.765625 714 l 2
 534.676644348 714 617.113642251 634.220470894 617.113642251 482.156680975 c 0
 617.113642251 446.948508608 612.69430128 407.86527039 603.583007812 365 c 0
 552.357421875 124 416 0 222 0 c 2
 61 0 l 1
231.579101562 78 m 2
 382.579101562 78 473.197265625 175 513.158203125 363 c 0
 521.807431787 403.692070109 526.046280979 439.436713938 526.046280979 470.495023157 c 0
 526.046280979 585.217870929 468.211088578 636 361.185546875 636 c 2
 283.185546875 636 l 1
 164.579101562 78 l 1
 231.579101562 78 l 2
EndSplineSet
Substitution2: "'c2sc' Capitals to Small Capitals lookup 34 subtable" d.sc
Substitution2: "'aalt' Access All Alternates lookup 0 subtable" d.sc
EndChar

StartChar: E
Encoding: 69 69 40
Width: 563
GlyphClass: 2
Flags: HW
AnchorPoint: "Anchor-2" 694.766 714 basechar 0
AnchorPoint: "Anchor-1" 436.766 714 basechar 0
AnchorPoint: "Anchor-0" 286 0 basechar 0
LayerCount: 2
Fore
SplineSet
84 0 m 1
 235.765625 714 l 1
 639.765625 714 l 1
 622.973632812 635 l 1
 306.973632812 635 l 1
 259.573242188 412 l 1
 556.573242188 412 l 1
 539.568359375 332 l 1
 242.568359375 332 l 1
 188.791992188 79 l 1
 504.791992188 79 l 1
 488 0 l 1
 84 0 l 1
EndSplineSet
Substitution2: "'c2sc' Capitals to Small Capitals lookup 34 subtable" e.sc
Substitution2: "'aalt' Access All Alternates lookup 0 subtable" e.sc
EndChar

StartChar: F
Encoding: 70 70 41
Width: 563
GlyphClass: 2
Flags: HW
AnchorPoint: "Anchor-2" 694.766 714 basechar 0
AnchorPoint: "Anchor-1" 446.766 714 basechar 0
AnchorPoint: "Anchor-0" 295 0 basechar 0
LayerCount: 2
Fore
SplineSet
84 0 m 1
 235.765625 714 l 1
 639.765625 714 l 1
 622.973632812 635 l 1
 306.973632812 635 l 1
 253.196289062 382 l 1
 552.196289062 382 l 1
 535.404296875 303 l 1
 236.404296875 303 l 1
 172 0 l 1
 84 0 l 1
EndSplineSet
Substitution2: "'c2sc' Capitals to Small Capitals lookup 34 subtable" f.sc
Substitution2: "'aalt' Access All Alternates lookup 0 subtable" f.sc
EndChar

StartChar: G
Encoding: 71 71 42
Width: 563
GlyphClass: 2
Flags: HW
AnchorPoint: "Anchor-2" 694.766 714 basechar 0
AnchorPoint: "Anchor-1" 455.766 714 basechar 0
AnchorPoint: "Anchor-0" 316 0 basechar 0
LayerCount: 2
Fore
SplineSet
316.874023438 -10 m 0
 167.49794683 -10 97.1812299584 74.0608550614 97.1812299584 219.343401326 c 0
 97.1812299584 258.854059015 102.381910977 302.892722298 112.607421875 351 c 0
 161.283203125 580 290.103515625 725 482.103515625 725 c 0
 547.103515625 725 598.915039062 710 641.963867188 682 c 1
 594.447265625 609 l 1
 561.547851562 633 522.311523438 646 467.311523438 646 c 0
 333.311523438 646 241.780273438 540 202.032226562 353 c 0
 193.239148689 311.631137202 188.377547159 272.805481596 188.377547159 237.921831143 c 0
 188.377547159 136.201499973 229.715697349 68 335.454101562 68 c 0
 374.454101562 68 405.94140625 75 433.642578125 83 c 1
 479.341796875 298 l 1
 360.341796875 298 l 1
 377.133789062 377 l 1
 581.133789062 377 l 1
 506.526367188 26 l 1
 450.0625 5 386.874023438 -10 316.874023438 -10 c 0
EndSplineSet
Substitution2: "'c2sc' Capitals to Small Capitals lookup 34 subtable" g.sc
Substitution2: "'aalt' Access All Alternates lookup 0 subtable" g.sc
EndChar

StartChar: H
Encoding: 72 72 43
Width: 563
GlyphClass: 2
Flags: HW
AnchorPoint: "Anchor-3" 361.283 373 basechar 0
AnchorPoint: "Anchor-2" 714.766 714 basechar 0
AnchorPoint: "Anchor-1" 433.766 714 basechar 0
AnchorPoint: "Anchor-0" 282 0 basechar 0
LayerCount: 2
Fore
SplineSet
61 0 m 1
 212.765625 714 l 1
 300.765625 714 l 1
 236.360351562 411 l 1
 502.360351562 411 l 1
 566.765625 714 l 1
 654.765625 714 l 1
 503 0 l 1
 415 0 l 1
 485.568359375 332 l 1
 219.568359375 332 l 1
 149 0 l 1
 61 0 l 1
EndSplineSet
Substitution2: "'c2sc' Capitals to Small Capitals lookup 34 subtable" h.sc
Substitution2: "'aalt' Access All Alternates lookup 0 subtable" h.sc
EndChar

StartChar: I
Encoding: 73 73 44
Width: 563
GlyphClass: 2
Flags: HW
AnchorPoint: "Anchor-2" 694.766 714 basechar 0
AnchorPoint: "Anchor-1" 433.766 714 basechar 0
AnchorPoint: "Anchor-0" 282 0 basechar 0
LayerCount: 2
Fore
SplineSet
97 0 m 1
 109.965820312 61 l 1
 252.516601562 73 l 1
 373.249023438 641 l 1
 235.799804688 653 l 1
 248.765625 714 l 1
 617.765625 714 l 1
 604.799804688 653 l 1
 460.249023438 641 l 1
 339.516601562 73 l 1
 478.965820312 61 l 1
 466 0 l 1
 97 0 l 1
EndSplineSet
Substitution2: "'c2sc' Capitals to Small Capitals lookup 34 subtable" i.sc
Substitution2: "'aalt' Access All Alternates lookup 0 subtable" i.sc
EndChar

StartChar: J
Encoding: 74 74 45
Width: 563
GlyphClass: 2
Flags: HW
AnchorPoint: "Anchor-2" 694.766 714 basechar 0
AnchorPoint: "Anchor-1" 545.766 714 basechar 0
AnchorPoint: "Anchor-0" 282 0 basechar 0
LayerCount: 2
Fore
SplineSet
222.874023438 -10 m 0
 171.874023438 -10 117.424804688 2 86.0390625 19 c 1
 103.467773438 101 l 1
 133.280273438 86 183.87890625 70 232.87890625 70 c 0
 315.87890625 70 375.08203125 118 397.825195312 225 c 2
 501.765625 714 l 1
 589.765625 714 l 1
 483.061523438 212 l 2
 453.94140625 75 362.874023438 -10 222.874023438 -10 c 0
EndSplineSet
Substitution2: "'c2sc' Capitals to Small Capitals lookup 34 subtable" j.sc
Substitution2: "'aalt' Access All Alternates lookup 0 subtable" j.sc
EndChar

StartChar: K
Encoding: 75 75 46
Width: 563
GlyphClass: 2
Flags: HW
AnchorPoint: "Anchor-2" 694.766 714 basechar 0
AnchorPoint: "Anchor-1" 433.766 714 basechar 0
AnchorPoint: "Anchor-0" 291 0 basechar 0
LayerCount: 2
Fore
SplineSet
61 0 m 1
 212.765625 714 l 1
 299.765625 714 l 1
 220.056640625 339 l 1
 250.283203125 373 282.1484375 410 321.288085938 453 c 2
 564.765625 714 l 1
 664.765625 714 l 1
 367.322265625 392 l 1
 523 0 l 1
 423 0 l 1
 294.356445312 331 l 1
 200.501953125 247 l 1
 148 0 l 1
 61 0 l 1
EndSplineSet
Substitution2: "'c2sc' Capitals to Small Capitals lookup 34 subtable" k.sc
Substitution2: "'aalt' Access All Alternates lookup 0 subtable" k.sc
EndChar

StartChar: L
Encoding: 76 76 47
Width: 563
GlyphClass: 2
Flags: HW
AnchorPoint: "Anchor-3" 357.883 357 basechar 0
AnchorPoint: "Anchor-2" 567.766 714 basechar 0
AnchorPoint: "Anchor-1" 297.766 714 basechar 0
AnchorPoint: "Anchor-0" 308 0 basechar 0
LayerCount: 2
Fore
SplineSet
100 0 m 1
 251.765625 714 l 1
 339.765625 714 l 1
 205.4296875 82 l 1
 505.4296875 82 l 1
 488 0 l 1
 100 0 l 1
EndSplineSet
Substitution2: "'c2sc' Capitals to Small Capitals lookup 34 subtable" l.sc
Substitution2: "'aalt' Access All Alternates lookup 0 subtable" l.sc
EndChar

StartChar: M
Encoding: 77 77 48
Width: 563
GlyphClass: 2
Flags: HW
AnchorPoint: "Anchor-2" 714.766 714 basechar 0
AnchorPoint: "Anchor-1" 437.766 714 basechar 0
AnchorPoint: "Anchor-0" 282 0 basechar 0
LayerCount: 2
Fore
SplineSet
43 0 m 1
 194.765625 714 l 1
 319.765625 714 l 1
 341.704101562 295 l 1
 344.704101562 295 l 1
 545.765625 714 l 1
 672.765625 714 l 1
 521 0 l 1
 438 0 l 1
 520.471679688 388 l 2
 537.4765625 468 560.606445312 558 584.3359375 632 c 1
 580.3359375 632 l 1
 361.9609375 188 l 1
 278.9609375 188 l 1
 249.3359375 632 l 1
 245.3359375 632 l 1
 240.794921875 573 224.901367188 470 207.259765625 387 c 2
 125 0 l 1
 43 0 l 1
EndSplineSet
Substitution2: "'c2sc' Capitals to Small Capitals lookup 34 subtable" m.sc
Substitution2: "'aalt' Access All Alternates lookup 0 subtable" m.sc
EndChar

StartChar: N
Encoding: 78 78 49
Width: 563
GlyphClass: 2
Flags: HW
AnchorPoint: "Anchor-2" 714.766 714 basechar 0
AnchorPoint: "Anchor-1" 438.766 714 basechar 0
AnchorPoint: "Anchor-0" 282 0 basechar 0
LayerCount: 2
Fore
SplineSet
61 0 m 1
 212.765625 714 l 1
 330.765625 714 l 1
 447.743164062 107 l 1
 451.743164062 107 l 1
 459.072265625 165 468.100585938 231 484.254882812 307 c 2
 570.765625 714 l 1
 654.765625 714 l 1
 503 0 l 1
 393 0 l 1
 269.84765625 625 l 1
 264.84765625 625 l 1
 255.96875 555 247.302734375 486 231.573242188 412 c 2
 144 0 l 1
 61 0 l 1
EndSplineSet
Substitution2: "'c2sc' Capitals to Small Capitals lookup 34 subtable" n.sc
Substitution2: "'aalt' Access All Alternates lookup 0 subtable" n.sc
EndChar

StartChar: O
Encoding: 79 79 50
Width: 563
GlyphClass: 2
Flags: HW
AnchorPoint: "Anchor-3" 357.883 357 basechar 0
AnchorPoint: "Anchor-2" 714.766 714 basechar 0
AnchorPoint: "Anchor-1" 433.766 714 basechar 0
AnchorPoint: "Anchor-0" 282 0 basechar 0
LayerCount: 2
Fore
SplineSet
278.874023438 -10 m 0
 148.893457334 -10 96.1173064325 75.5091223681 96.1173064325 206.781419055 c 0
 96.1173064325 252.248250445 102.448431951 303.204917601 114.095703125 358 c 0
 162.1328125 584 267.31640625 726 436.31640625 726 c 0
 565.757936232 726 619.890494128 640.346226681 619.890494128 507.575017003 c 0
 619.890494128 462.896073878 613.760550121 412.881575629 602.307617188 359 c 0
 556.395507812 143 453.874023438 -10 278.874023438 -10 c 0
297.454101562 68 m 0
 407.454101562 68 472.772460938 173 512.095703125 358 c 0
 523.992674246 413.971842478 530.305542698 462.620740558 530.305542698 503.254331586 c 0
 530.305542698 596.924240452 496.758323638 648 420.736328125 648 c 0
 307.736328125 648 241.993164062 541 203.095703125 358 c 0
 191.52857204 303.582207979 185.435242718 255.986872683 185.435242718 215.938308834 c 0
 185.435242718 120.572783383 219.986477227 68 297.454101562 68 c 0
EndSplineSet
Substitution2: "'c2sc' Capitals to Small Capitals lookup 34 subtable" o.sc
Substitution2: "Single Substitution lookup 32 subtable" ordmasculine
AlternateSubs2: "'aalt' Access All Alternates lookup 1 subtable" ordmasculine o.sc
EndChar

StartChar: P
Encoding: 80 80 51
Width: 563
GlyphClass: 2
Flags: HW
AnchorPoint: "Anchor-2" 714.766 714 basechar 0
AnchorPoint: "Anchor-1" 433.766 714 basechar 0
AnchorPoint: "Anchor-0" 282 0 basechar 0
LayerCount: 2
Fore
SplineSet
84 0 m 1
 235.765625 714 l 1
 432.765625 714 l 2
 566.142342988 714 626.447714274 661.187870449 626.447714274 566.569718393 c 0
 626.447714274 547.683020748 624.044905951 527.130603172 619.340820312 505 c 0
 593.196289062 382 507.666015625 276 327.666015625 276 c 2
 229.666015625 276 l 1
 171 0 l 1
 84 0 l 1
335.245117188 354 m 2
 444.245117188 354 505.959960938 395 528.278320312 500 c 0
 531.799313366 516.565096966 533.566485383 531.46281801 533.566485383 544.775366239 c 0
 533.566485383 608.61326467 492.930237535 636 410.185546875 636 c 2
 306.185546875 636 l 1
 246.245117188 354 l 1
 335.245117188 354 l 2
EndSplineSet
Substitution2: "'c2sc' Capitals to Small Capitals lookup 34 subtable" p.sc
Substitution2: "'aalt' Access All Alternates lookup 0 subtable" p.sc
EndChar

StartChar: Q
Encoding: 81 81 52
Width: 563
GlyphClass: 2
Flags: HW
AnchorPoint: "Anchor-3" 357.883 357 basechar 0
AnchorPoint: "Anchor-2" 714.766 714 basechar 0
AnchorPoint: "Anchor-1" 433.766 714 basechar 0
AnchorPoint: "Anchor-0" 235.237 -220 basechar 0
LayerCount: 2
Fore
SplineSet
278.874023438 -10 m 0
 148.893457334 -10 96.1173064325 75.5091223681 96.1173064325 206.781419055 c 0
 96.1173064325 252.248250445 102.448431951 303.204917601 114.095703125 358 c 0
 162.1328125 584 267.31640625 726 436.31640625 726 c 0
 565.757936232 726 619.890494128 640.346226681 619.890494128 507.575017003 c 0
 619.890494128 462.896073878 613.760550121 412.881575629 602.307617188 359 c 0
 569.999023438 207 509.4921875 87 416.951171875 28 c 1
 476.740234375 -180 l 1
 379.740234375 -180 l 1
 333.9375 -5 l 1
 316.299804688 -8 297.874023438 -10 278.874023438 -10 c 0
297.454101562 68 m 0
 407.454101562 68 472.772460938 173 512.095703125 358 c 0
 523.992674246 413.971842478 530.305542698 462.620740558 530.305542698 503.254331586 c 0
 530.305542698 596.924240452 496.758323638 648 420.736328125 648 c 0
 307.736328125 648 241.993164062 541 203.095703125 358 c 0
 191.52857204 303.582207979 185.435242718 255.986872683 185.435242718 215.938308834 c 0
 185.435242718 120.572783383 219.986477227 68 297.454101562 68 c 0
EndSplineSet
Substitution2: "'c2sc' Capitals to Small Capitals lookup 34 subtable" q.sc
Substitution2: "'aalt' Access All Alternates lookup 0 subtable" q.sc
EndChar

StartChar: R
Encoding: 82 82 53
Width: 563
GlyphClass: 2
Flags: HW
AnchorPoint: "Anchor-2" 694.766 714 basechar 0
AnchorPoint: "Anchor-1" 433.766 714 basechar 0
AnchorPoint: "Anchor-0" 305 0 basechar 0
LayerCount: 2
Fore
SplineSet
84 0 m 1
 235.765625 714 l 1
 398.765625 714 l 2
 532.851129999 714 600.505069678 665.74700298 600.505069678 569.241008939 c 0
 600.505069678 552.028916461 598.353022159 533.281913482 594.041992188 513 c 0
 570.022460938 400 502.119140625 344 426.380859375 317 c 1
 536 0 l 1
 439 0 l 1
 341.279296875 293 l 1
 233.279296875 293 l 1
 171 0 l 1
 84 0 l 1
323.645507812 370 m 2
 429.645507812 370 482.635742188 417 501.553710938 506 c 0
 504.857080733 521.541014811 506.517234581 535.523992155 506.517234581 548.039314576 c 0
 506.517234581 611.223058261 464.204123241 637 377.3984375 637 c 2
 306.3984375 637 l 1
 249.645507812 370 l 1
 323.645507812 370 l 2
EndSplineSet
Substitution2: "'c2sc' Capitals to Small Capitals lookup 34 subtable" r.sc
Substitution2: "'aalt' Access All Alternates lookup 0 subtable" r.sc
EndChar

StartChar: S
Encoding: 83 83 54
Width: 563
GlyphClass: 2
Flags: HW
AnchorPoint: "Anchor-2" 694.766 714 basechar 0
AnchorPoint: "Anchor-1" 448.766 714 basechar 0
AnchorPoint: "Anchor-0" 282 0 basechar 0
LayerCount: 2
Fore
SplineSet
255.874023438 -10 m 0
 187.874023438 -10 119.0625 5 81.5263671875 26 c 1
 98.7431640625 107 l 1
 143.067382812 85 208.028320312 66 273.028320312 66 c 0
 374.028320312 66 431.231445312 114 447.598632812 191 c 0
 449.685369673 200.817584206 450.751469796 209.6431787 450.751469796 217.710103311 c 0
 450.751469796 266.33918318 412.010177683 287.398759112 324.568359375 332 c 0
 259.477780232 365.529704085 196.650835695 402.755138138 196.650835695 489.430172503 c 0
 196.650835695 503.57100969 198.323112392 519.028056265 201.930664062 536 c 0
 228.5 661 327.103515625 725 460.103515625 725 c 0
 526.103515625 725 584.702148438 709 629.6015625 685 c 1
 584.084960938 612 l 1
 545.547851562 633 493.524414062 647 442.524414062 647 c 0
 363.524414062 647 307.084960938 612 290.930664062 536 c 0
 288.788394359 525.921818486 287.731886701 516.803690481 287.731886701 508.456382437 c 0
 287.731886701 457.169303236 327.615610609 434.98108604 400.59765625 398 c 0
 482.126082301 356.205842872 542.384076088 323.869316069 542.384076088 240.179082995 c 0
 542.384076088 225.749825155 540.592838881 209.794020153 536.810546875 192 c 0
 509.390625 63 409.874023438 -10 255.874023438 -10 c 0
EndSplineSet
Substitution2: "'c2sc' Capitals to Small Capitals lookup 34 subtable" s.sc
Substitution2: "'aalt' Access All Alternates lookup 0 subtable" s.sc
EndChar

StartChar: T
Encoding: 84 84 55
Width: 563
GlyphClass: 2
Flags: HW
AnchorPoint: "Anchor-3" 357.883 357 basechar 0
AnchorPoint: "Anchor-2" 694.766 714 basechar 0
AnchorPoint: "Anchor-1" 433.766 714 basechar 0
AnchorPoint: "Anchor-0" 282 0 basechar 0
LayerCount: 2
Fore
SplineSet
237 0 m 1
 371.973632812 635 l 1
 175.973632812 635 l 1
 192.765625 714 l 1
 673.765625 714 l 1
 656.973632812 635 l 1
 459.973632812 635 l 1
 325 0 l 1
 237 0 l 1
EndSplineSet
Substitution2: "'c2sc' Capitals to Small Capitals lookup 34 subtable" t.sc
Substitution2: "'aalt' Access All Alternates lookup 0 subtable" t.sc
EndChar

StartChar: U
Encoding: 85 85 56
Width: 563
GlyphClass: 2
Flags: HW
AnchorPoint: "Anchor-2" 694.766 714 basechar 0
AnchorPoint: "Anchor-1" 433.766 714 basechar 0
AnchorPoint: "Anchor-0" 282 0 basechar 0
LayerCount: 2
Fore
SplineSet
278.874023438 -10 m 0
 155.620677503 -10 101.775723904 48.8053701319 101.775723904 152.337522704 c 0
 101.775723904 179.004542633 105.347987441 208.638894566 112.2265625 241 c 2
 212.765625 714 l 1
 300.765625 714 l 1
 201.076171875 245 l 2
 195.346982526 218.045523729 192.281473799 193.813269889 192.281473799 172.554144529 c 0
 192.281473799 105.478330031 222.798603333 68 296.454101562 68 c 0
 398.454101562 68 444.333007812 138 467.2890625 246 c 2
 566.765625 714 l 1
 654.765625 714 l 1
 554.013671875 240 l 2
 521.705078125 88 436.874023438 -10 278.874023438 -10 c 0
EndSplineSet
Substitution2: "'c2sc' Capitals to Small Capitals lookup 34 subtable" u.sc
Substitution2: "'aalt' Access All Alternates lookup 0 subtable" u.sc
EndChar

StartChar: V
Encoding: 86 86 57
Width: 563
GlyphClass: 2
Flags: HW
AnchorPoint: "Anchor-2" 694.766 714 basechar 0
AnchorPoint: "Anchor-1" 433.766 714 basechar 0
AnchorPoint: "Anchor-0" 282 0 basechar 0
LayerCount: 2
Fore
SplineSet
237 0 m 1
 172.765625 714 l 1
 261.765625 714 l 1
 295.138671875 250 l 2
 298.598632812 191 300.057617188 132 300.067382812 85 c 1
 302.067382812 85 l 1
 320.844726562 131 346.810546875 192 377.776367188 253 c 2
 604.765625 714 l 1
 693.765625 714 l 1
 328 0 l 1
 237 0 l 1
EndSplineSet
Substitution2: "'c2sc' Capitals to Small Capitals lookup 34 subtable" v.sc
Substitution2: "'aalt' Access All Alternates lookup 0 subtable" v.sc
EndChar

StartChar: W
Encoding: 87 87 58
Width: 563
GlyphClass: 2
Flags: HW
AnchorPoint: "Anchor-2" 694.766 714 basechar 0
AnchorPoint: "Anchor-1" 433.766 714 basechar 0
AnchorPoint: "Anchor-0" 282 0 basechar 0
LayerCount: 2
Fore
SplineSet
95 0 m 1
 172.765625 714 l 1
 250.765625 714 l 1
 238.447265625 609 225.916015625 503 212.59765625 398 c 0
 203.10546875 311 177.333007812 138 168.342773438 91 c 1
 170.342773438 91 l 1
 187.120117188 137 228.438476562 242 254.6171875 304 c 2
 352.930664062 536 l 1
 438.930664062 536 l 1
 441.192382812 302 l 2
 441.223742111 295.502279834 441.239686397 288.765124692 441.239686397 281.852836869 c 0
 441.239686397 215.362785467 439.764405265 132.668186556 436.342773438 91 c 1
 439.342773438 91 l 1
 450.333007812 138 491.5546875 299 521.022460938 400 c 0
 552.340820312 505 582.447265625 609 613.765625 714 c 1
 693.765625 714 l 1
 475 0 l 1
 377 0 l 1
 376.71875 328 l 2
 377.471679688 388 377.76171875 427 379.225585938 448 c 1
 376.225585938 448 l 1
 368.76171875 427 354.471679688 388 328.505859375 327 c 2
 191 0 l 1
 95 0 l 1
EndSplineSet
Substitution2: "'c2sc' Capitals to Small Capitals lookup 34 subtable" w.sc
Substitution2: "'aalt' Access All Alternates lookup 0 subtable" w.sc
EndChar

StartChar: X
Encoding: 88 88 59
Width: 563
GlyphClass: 2
Flags: HW
AnchorPoint: "Anchor-2" 694.766 714 basechar 0
AnchorPoint: "Anchor-1" 433.766 714 basechar 0
AnchorPoint: "Anchor-0" 282 0 basechar 0
LayerCount: 2
Fore
SplineSet
30 0 m 1
 314.645507812 370 l 1
 195.765625 714 l 1
 290.765625 714 l 1
 375.950195312 442 l 1
 577.765625 714 l 1
 671.765625 714 l 1
 403.43359375 369 l 1
 534 0 l 1
 441 0 l 1
 343.341796875 298 l 1
 123 0 l 1
 30 0 l 1
EndSplineSet
Substitution2: "'c2sc' Capitals to Small Capitals lookup 34 subtable" x.sc
Substitution2: "'aalt' Access All Alternates lookup 0 subtable" x.sc
EndChar

StartChar: Y
Encoding: 89 89 60
Width: 563
GlyphClass: 2
Flags: HW
AnchorPoint: "Anchor-2" 694.766 714 basechar 0
AnchorPoint: "Anchor-1" 433.766 714 basechar 0
AnchorPoint: "Anchor-0" 282 0 basechar 0
LayerCount: 2
Fore
SplineSet
239 0 m 1
 297.666015625 276 l 1
 181.765625 714 l 1
 277.765625 714 l 1
 356.8203125 352 l 1
 591.765625 714 l 1
 685.765625 714 l 1
 382.666015625 276 l 1
 324 0 l 1
 239 0 l 1
EndSplineSet
Substitution2: "'c2sc' Capitals to Small Capitals lookup 34 subtable" y.sc
Substitution2: "'aalt' Access All Alternates lookup 0 subtable" y.sc
EndChar

StartChar: Z
Encoding: 90 90 61
Width: 563
GlyphClass: 2
Flags: HW
AnchorPoint: "Anchor-2" 694.766 714 basechar 0
AnchorPoint: "Anchor-1" 444.766 714 basechar 0
AnchorPoint: "Anchor-0" 297 0 basechar 0
LayerCount: 2
Fore
SplineSet
84 0 m 1
 99.091796875 71 l 1
 523.185546875 636 l 1
 236.185546875 636 l 1
 252.765625 714 l 1
 631.765625 714 l 1
 616.673828125 643 l 1
 195.791992188 79 l 1
 499.791992188 79 l 1
 483 0 l 1
 84 0 l 1
EndSplineSet
Substitution2: "'c2sc' Capitals to Small Capitals lookup 34 subtable" z.sc
Substitution2: "'aalt' Access All Alternates lookup 0 subtable" z.sc
EndChar

StartChar: bracketleft
Encoding: 91 91 62
Width: 563
Flags: HW
LayerCount: 2
Fore
SplineSet
184.203125 -159 m 1
 370.190429688 716 l 1
 590.190429688 716 l 1
 575.311523438 646 l 1
 438.311523438 646 l 1
 282.08203125 -89 l 1
 419.08203125 -89 l 1
 404.203125 -159 l 1
 184.203125 -159 l 1
EndSplineSet
Substitution2: "'smcp' Lowercase to Small Capitals lookup 35 subtable" bracketleft.sc
Substitution2: "'c2sc' Capitals to Small Capitals lookup 34 subtable" bracketleft.sc
Substitution2: "'aalt' Access All Alternates lookup 0 subtable" bracketleft.sc
EndChar

StartChar: backslash
Encoding: 92 92 63
Width: 563
Flags: HW
LayerCount: 2
Fore
SplineSet
457.787109375 -1 m 1
 374.787109375 -1 l 1
 256.977539062 715 l 1
 339.977539062 715 l 1
 457.787109375 -1 l 1
EndSplineSet
EndChar

StartChar: bracketright
Encoding: 93 93 64
Width: 563
Flags: HW
LayerCount: 2
Fore
SplineSet
499.252929688 721 m 1
 313.266601562 -154 l 1
 94.2666015625 -154 l 1
 109.357421875 -83 l 1
 245.357421875 -83 l 1
 401.374023438 651 l 1
 265.374023438 651 l 1
 280.252929688 721 l 1
 499.252929688 721 l 1
EndSplineSet
Substitution2: "'smcp' Lowercase to Small Capitals lookup 35 subtable" bracketright.sc
Substitution2: "'c2sc' Capitals to Small Capitals lookup 34 subtable" bracketright.sc
Substitution2: "'aalt' Access All Alternates lookup 0 subtable" bracketright.sc
EndChar

StartChar: asciicircum
Encoding: 94 94 65
Width: 563
Flags: HW
LayerCount: 2
Fore
SplineSet
108.853515625 291 m 1
 402.403320312 717 l 1
 451.403320312 717 l 1
 577.853515625 291 l 1
 498.853515625 291 l 1
 406.78515625 620 l 1
 186.853515625 291 l 1
 108.853515625 291 l 1
EndSplineSet
EndChar

StartChar: underscore
Encoding: 95 95 66
Width: 563
Flags: HW
LayerCount: 2
Fore
SplineSet
-32.9462890625 -155 m 1
 -16.154296875 -76 l 1
 546.845703125 -76 l 1
 530.053710938 -155 l 1
 -32.9462890625 -155 l 1
EndSplineSet
EndChar

StartChar: grave
Encoding: 96 96 67
Width: 563
Flags: HW
LayerCount: 2
Fore
SplineSet
426.809570312 606 m 1
 390.249023438 641 335.403320312 717 319.692382812 756 c 1
 321.818359375 766 l 1
 423.818359375 766 l 1
 435.252929688 721 463.224609375 655 485.360351562 618 c 1
 482.809570312 606 l 1
 426.809570312 606 l 1
EndSplineSet
EndChar

StartChar: a
Encoding: 97 97 68
Width: 563
GlyphClass: 2
Flags: HW
AnchorPoint: "Anchor-2" 656.931 536 basechar 0
AnchorPoint: "Anchor-1" 403.931 536 basechar 0
AnchorPoint: "Anchor-0" 282 0 basechar 0
LayerCount: 2
Fore
SplineSet
229.874023438 -10 m 0
 146.980048801 -10 92.6070753486 27.9757013086 92.6070753486 105.175302507 c 0
 92.6070753486 118.312319248 94.1815891675 132.585168159 97.4580078125 148 c 0
 121.90234375 263 213.592773438 318 363.443359375 322 c 2
 472.081054688 325 l 1
 477.607421875 351 l 2
 480.816161118 366.096070328 482.34901987 379.505813251 482.34901987 391.378925024 c 0
 482.34901987 452.650636433 441.527135573 473 379.5390625 473 c 0
 325.5390625 473 271.138671875 457 222.82421875 432 c 1
 206.065429688 499 l 1
 262.591796875 525 324.055664062 546 400.055664062 546 c 0
 507.896565829 546 567.2369263 504.830548984 567.2369263 416.511379276 c 0
 567.2369263 400.001550548 565.163324501 381.844112323 560.9453125 362 c 2
 484 0 l 1
 416 0 l 1
 418.94140625 75 l 1
 414.94140625 75 l 1
 362.0390625 19 303.874023438 -10 229.874023438 -10 c 0
263.390625 63 m 0
 343.390625 63 425.59375 111 447.487304688 214 c 2
 457.689453125 262 l 1
 370.051757812 259 l 2
 253.202148438 255 198.336914062 218 184.095703125 151 c 0
 182.192338546 142.045080533 181.280520154 133.857921747 181.280520154 126.401189449 c 0
 181.280520154 81.3980267689 214.492694994 63 263.390625 63 c 0
EndSplineSet
Substitution2: "'smcp' Lowercase to Small Capitals lookup 35 subtable" a.sc
Substitution2: "Single Substitution lookup 32 subtable" ordfeminine
AlternateSubs2: "'aalt' Access All Alternates lookup 1 subtable" ordfeminine a.sc
EndChar

StartChar: b
Encoding: 98 98 69
Width: 563
GlyphClass: 2
Flags: HW
AnchorPoint: "Anchor-2" 704.543 760 basechar 0
AnchorPoint: "Anchor-1" 443.543 760 basechar 0
AnchorPoint: "Anchor-0" 282 0 basechar 0
LayerCount: 2
Fore
SplineSet
309.874023438 -10 m 0
 236.874023438 -10 194.1015625 24 171.454101562 68 c 1
 165.454101562 68 l 1
 140 0 l 1
 73 0 l 1
 234.54296875 760 l 1
 319.54296875 760 l 1
 280.432617188 576 l 2
 272.568359375 539 264.916015625 503 253.051757812 466 c 1
 257.051757812 466 l 1
 295.19140625 509 352.055664062 546 428.055664062 546 c 0
 525.76413181 546 582.964890725 486.05157356 582.964890725 370.164968959 c 0
 582.964890725 340.168082655 579.132342151 306.423242845 571.177734375 269 c 0
 532.067382812 85 431.874023438 -10 309.874023438 -10 c 0
305.390625 63 m 0
 395.390625 63 452.907226562 136 480.96484375 268 c 0
 488.068399963 301.419789115 491.664399304 330.9209112 491.664399304 356.37926199 c 0
 491.664399304 432.998724864 459.092935483 473 391.5390625 473 c 0
 305.5390625 473 243.66015625 403 215.815429688 272 c 0
 208.473659409 237.459924704 204.780426369 207.117083482 204.780426369 181.034194387 c 0
 204.780426369 102.906578314 237.916761062 63 305.390625 63 c 0
EndSplineSet
Substitution2: "'smcp' Lowercase to Small Capitals lookup 35 subtable" b.sc
Substitution2: "'aalt' Access All Alternates lookup 0 subtable" b.sc
EndChar

StartChar: c
Encoding: 99 99 70
Width: 563
GlyphClass: 2
Flags: HW
AnchorPoint: "Anchor-2" 656.931 536 basechar 0
AnchorPoint: "Anchor-1" 425.931 536 basechar 0
AnchorPoint: "Anchor-0" 317 0 basechar 0
LayerCount: 2
Fore
SplineSet
321.874023438 -10 m 0
 198.913681818 -10 125.153229074 44.4292842005 125.153229074 170.363732829 c 0
 125.153229074 198.05741377 128.720169471 229.208972884 136.115234375 264 c 0
 179.901367188 470 301.055664062 546 446.055664062 546 c 0
 505.055664062 546 550.504882812 534 589.829101562 512 c 1
 547.524414062 440 l 1
 512.201171875 462 478.901367188 470 434.901367188 470 c 0
 319.901367188 470 254.873046875 404 225.540039062 266 c 0
 219.279978108 236.548324222 216.196897342 210.710103181 216.196897342 188.253363392 c 0
 216.196897342 102.435889037 261.22078023 66 346.028320312 66 c 0
 399.028320312 66 452.004882812 80 494.830078125 98 c 1
 478.250976562 20 l 1
 434.212890625 1 376.874023438 -10 321.874023438 -10 c 0
EndSplineSet
Substitution2: "'smcp' Lowercase to Small Capitals lookup 35 subtable" c.sc
Substitution2: "'aalt' Access All Alternates lookup 0 subtable" c.sc
EndChar

StartChar: d
Encoding: 100 100 71
Width: 563
GlyphClass: 2
Flags: HW
AnchorPoint: "Anchor-3" 338.965 268 basechar 0
AnchorPoint: "Anchor-2" 704.543 760 basechar 0
AnchorPoint: "Anchor-1" 443.543 760 basechar 0
AnchorPoint: "Anchor-0" 282 0 basechar 0
LayerCount: 2
Fore
SplineSet
252.874023438 -10 m 0
 154.305588957 -10 95.2646216066 48.1326572185 95.2646216066 166.407103848 c 0
 95.2646216066 196.923002316 99.1949056432 231.442465181 107.390625 270 c 0
 145.4375 449 240.055664062 546 377.055664062 546 c 0
 449.055664062 546 487.829101562 512 504.4765625 468 c 1
 509.4765625 468 l 1
 511.15234375 490 514.954101562 522 520.268554688 547 c 2
 565.54296875 760 l 1
 652.54296875 760 l 1
 491 0 l 1
 421 0 l 1
 424.303710938 72 l 1
 420.303710938 72 l 1
 382.313476562 25 328.874023438 -10 252.874023438 -10 c 0
288.390625 63 m 0
 379.390625 63 433.482421875 134 457.501953125 247 c 2
 461.752929688 267 l 2
 469.169052258 301.890463224 473.389101947 333.67295224 473.389101947 361.271501053 c 0
 473.389101947 430.175625008 447.084271766 473 378.5390625 473 c 0
 287.5390625 473 224.66015625 403 194.477539062 261 c 0
 187.590542367 228.599015018 184.043854893 200.113228742 184.043854893 175.588033451 c 0
 184.043854893 100.955731373 216.887522506 63 288.390625 63 c 0
EndSplineSet
Substitution2: "'smcp' Lowercase to Small Capitals lookup 35 subtable" d.sc
Substitution2: "'aalt' Access All Alternates lookup 0 subtable" d.sc
EndChar

StartChar: e
Encoding: 101 101 72
Width: 563
GlyphClass: 2
Flags: HW
AnchorPoint: "Anchor-2" 656.931 536 basechar 0
AnchorPoint: "Anchor-1" 399.931 536 basechar 0
AnchorPoint: "Anchor-0" 292 0 basechar 0
LayerCount: 2
Fore
SplineSet
315.874023438 -10 m 0
 179.753192539 -10 102.095066418 58.3439459239 102.095066418 183.966502889 c 0
 102.095066418 208.772624989 105.12316077 235.812190608 111.327148438 265 c 0
 148.737304688 441 264.055664062 546 408.055664062 546 c 0
 519.913195023 546 580.473468795 479.705314188 580.473468795 371.597082593 c 0
 580.473468795 348.263833487 577.652354131 322.982759515 571.916992188 296 c 2
 562.138671875 250 l 1
 196.138671875 250 l 1
 192.306698413 229.026403251 190.445116845 210.061668406 190.445116845 192.990761632 c 0
 190.445116845 100.99589704 244.507608528 64 335.603515625 64 c 0
 392.603515625 64 448.004882812 80 508.743164062 107 c 1
 491.951171875 28 l 1
 430.212890625 1 371.874023438 -10 315.874023438 -10 c 0
490.443359375 322 m 1
 493.236550952 337.522710715 494.634413233 352.105971987 494.634413233 365.624898162 c 0
 494.634413233 432.229942012 460.70360295 473 392.5390625 473 c 0
 309.5390625 473 244.423828125 416 213.443359375 322 c 1
 490.443359375 322 l 1
EndSplineSet
Substitution2: "'smcp' Lowercase to Small Capitals lookup 35 subtable" e.sc
Substitution2: "'aalt' Access All Alternates lookup 0 subtable" e.sc
EndChar

StartChar: f
Encoding: 102 102 73
Width: 563
GlyphClass: 2
Flags: HW
AnchorPoint: "Anchor-2" 739.605 765 basechar 0
AnchorPoint: "Anchor-1" 538.605 765 basechar 0
AnchorPoint: "Anchor-0" 282 0 basechar 0
LayerCount: 2
Fore
SplineSet
222 0 m 1
 320.201171875 462 l 1
 158.201171875 462 l 1
 171.166992188 523 l 1
 336.142578125 537 l 1
 348.045898438 593 l 2
 375.890625 724 454.60546875 765 565.60546875 765 c 0
 618.60546875 765 658.692382812 756 688.567382812 746 c 1
 653.900390625 677 l 1
 627.813476562 686 591.088867188 692 558.088867188 692 c 0
 492.088867188 692 451.200195312 669 433.55859375 586 c 2
 422.930664062 536 l 1
 613.930664062 536 l 1
 598.201171875 462 l 1
 407.201171875 462 l 1
 309 0 l 1
 222 0 l 1
EndSplineSet
Substitution2: "'smcp' Lowercase to Small Capitals lookup 35 subtable" f.sc
Substitution2: "'aalt' Access All Alternates lookup 0 subtable" f.sc
EndChar

StartChar: g
Encoding: 103 103 74
Width: 563
GlyphClass: 2
Flags: HW
AnchorPoint: "Anchor-2" 656.931 536 basechar 0
AnchorPoint: "Anchor-1" 395.931 536 basechar 0
AnchorPoint: "Anchor-0" 229.924 -245 basechar 0
LayerCount: 2
Fore
SplineSet
206.923828125 -245 m 0
 140.923828125 -245 82.8994140625 -231 35.7880859375 -208 c 1
 52.79296875 -128 l 1
 98.416015625 -158 166.227539062 -173 221.227539062 -173 c 0
 329.227539062 -173 382.981445312 -113 403.38671875 -17 c 2
 408.0625 5 l 2
 411.463867188 21 416.71484375 41 423.81640625 65 c 1
 420.81640625 65 l 1
 374.125976562 10 321.874023438 -10 256.874023438 -10 c 0
 151.683351203 -10 95.1892066472 54.7749028674 95.1892066472 168.636563707 c 0
 95.1892066472 197.655815324 98.858824369 229.86353255 106.327148438 265 c 0
 143.3125 439 243.055664062 546 372.055664062 546 c 0
 438.055664062 546 480.166992188 523 504.4765625 468 c 1
 509.4765625 468 l 1
 534.930664062 536 l 1
 604.930664062 536 l 1
 488.024414062 -14 l 2
 455.502929688 -167 364.923828125 -245 206.923828125 -245 c 0
293.390625 63 m 0
 377.390625 63 436.293945312 119 463.2890625 246 c 2
 467.752929688 267 l 2
 475.090837652 301.522578409 478.63907871 331.283591668 478.63907871 356.593448204 c 0
 478.63907871 437.588779949 442.30168895 473 377.5390625 473 c 0
 283.5390625 473 223.810546875 399 195.96484375 268 c 0
 189.198691731 236.167581586 185.784104108 207.890413801 185.784104108 183.275743485 c 0
 185.784104108 104.273849723 220.958384324 63 293.390625 63 c 0
EndSplineSet
Substitution2: "'smcp' Lowercase to Small Capitals lookup 35 subtable" g.sc
Substitution2: "'aalt' Access All Alternates lookup 0 subtable" g.sc
EndChar

StartChar: h
Encoding: 104 104 75
Width: 563
GlyphClass: 2
Flags: HW
AnchorPoint: "Anchor-3" 338.965 268 basechar 0
AnchorPoint: "Anchor-2" 704.543 760 basechar 0
AnchorPoint: "Anchor-1" 277.543 760 basechar 0
AnchorPoint: "Anchor-0" 282 0 basechar 0
LayerCount: 2
Fore
SplineSet
73 0 m 1
 234.54296875 760 l 1
 321.54296875 760 l 1
 274.780273438 540 l 2
 269.466796875 515 258.6015625 478 252.712890625 455 c 1
 257.712890625 455 l 1
 301.466796875 515 362.055664062 546 434.055664062 546 c 0
 521.228205645 546 577.700566354 505.333871351 577.700566354 413.1292289 c 0
 577.700566354 394.272666968 575.338699614 373.260588601 570.39453125 350 c 2
 496 0 l 1
 409 0 l 1
 479.568359375 332 l 2
 483.732742815 351.591096365 485.779760392 369.058238314 485.779760392 384.452419224 c 0
 485.779760392 444.492575416 454.641666306 473 396.5390625 473 c 0
 310.5390625 473 245.447265625 402 219.090820312 278 c 2
 160 0 l 1
 73 0 l 1
EndSplineSet
Substitution2: "'smcp' Lowercase to Small Capitals lookup 35 subtable" h.sc
Substitution2: "'subs' Subscript lookup 22 subtable" uni2095
AlternateSubs2: "'aalt' Access All Alternates lookup 1 subtable" h.sc uni2095
EndChar

StartChar: i
Encoding: 105 105 76
Width: 563
GlyphClass: 2
Flags: HW
AnchorPoint: "Anchor-3" 357.366 284 basechar 0
AnchorPoint: "Anchor-2" 626.968 762 basechar 0
AnchorPoint: "Anchor-1" 448.968 762 basechar 0
AnchorPoint: "Anchor-0" 299 0 basechar 0
LayerCount: 2
Fore
SplineSet
421.547851562 633 m 0
 392.00058075 633 372.048829067 647.966420785 372.048829067 678.500917986 c 0
 372.048829067 684.135832465 372.728305101 690.300932713 374.15234375 697 c 0
 383.504882812 741 413.967773438 762 448.967773438 762 c 0
 477.722919909 762 498.278941848 746.979215034 498.278941848 715.727771513 c 0
 498.278941848 710.027600797 497.595070147 703.787457508 496.15234375 697 c 0
 487.01171875 654 455.547851562 633 421.547851562 633 c 0
78 0 m 1
 90.7529296875 60 l 1
 266.516601562 73 l 1
 349.201171875 462 l 1
 190.96484375 475 l 1
 203.930664062 536 l 1
 451.930664062 536 l 1
 353.516601562 73 l 1
 510.752929688 60 l 1
 498 0 l 1
 78 0 l 1
EndSplineSet
Substitution2: "'smcp' Lowercase to Small Capitals lookup 35 subtable" i.sc
Substitution2: "Single Substitution lookup 5 subtable" dotlessi
Substitution2: "Single Substitution lookup 4 subtable" dotlessi
AlternateSubs2: "'aalt' Access All Alternates lookup 1 subtable" dotlessi i.sc
EndChar

StartChar: j
Encoding: 106 106 77
Width: 563
GlyphClass: 2
Flags: HW
AnchorPoint: "Anchor-2" 648.968 762 basechar 0
AnchorPoint: "Anchor-1" 481.968 762 basechar 0
AnchorPoint: "Anchor-0" 156.924 -245 basechar 0
LayerCount: 2
Fore
SplineSet
455.547851562 633 m 0
 426.347303372 633 407.910515825 647.617234537 407.910515825 677.432426415 c 0
 407.910515825 683.353951153 408.637754773 689.874959206 410.15234375 697 c 0
 419.504882812 741 447.967773438 762 482.967773438 762 c 0
 511.722919909 762 532.278941848 746.979215034 532.278941848 715.727771513 c 0
 532.278941848 710.027600797 531.595070147 703.787457508 530.15234375 697 c 0
 520.799804688 653 489.547851562 633 455.547851562 633 c 0
127.923828125 -245 m 0
 86.923828125 -245 37.4111328125 -238 6.537109375 -228 c 1
 23.1162109375 -150 l 1
 53.5654296875 -162 98.65234375 -171 135.65234375 -171 c 0
 215.65234375 -171 260.3671875 -130 277.796875 -48 c 2
 386.201171875 462 l 1
 214.96484375 475 l 1
 227.930664062 536 l 1
 488.930664062 536 l 1
 363.096679688 -56 l 2
 336.740234375 -180 252.923828125 -245 127.923828125 -245 c 0
EndSplineSet
Substitution2: "'smcp' Lowercase to Small Capitals lookup 35 subtable" j.sc
Substitution2: "Single Substitution lookup 5 subtable" uni0237
Substitution2: "Single Substitution lookup 4 subtable" uni0237
AlternateSubs2: "'aalt' Access All Alternates lookup 1 subtable" uni0237 j.sc
EndChar

StartChar: k
Encoding: 107 107 78
Width: 563
GlyphClass: 2
Flags: HW
AnchorPoint: "Anchor-2" 654.461 849 basechar 0
AnchorPoint: "Anchor-1" 479.543 760 basechar 0
AnchorPoint: "Anchor-0" 315 0 basechar 0
LayerCount: 2
Fore
SplineSet
90 0 m 1
 251.54296875 760 l 1
 338.54296875 760 l 1
 262.022460938 400 l 2
 252.669921875 356 238.404296875 303 225.202148438 255 c 1
 226.202148438 255 l 1
 254.579101562 285 279.467773438 308 309.206054688 335 c 2
 529.930664062 536 l 1
 636.930664062 536 l 1
 376.830078125 305 l 1
 536 0 l 1
 434 0 l 1
 305.713867188 248 l 1
 215.047851562 179 l 1
 177 0 l 1
 90 0 l 1
EndSplineSet
Substitution2: "'smcp' Lowercase to Small Capitals lookup 35 subtable" k.sc
Substitution2: "'subs' Subscript lookup 22 subtable" uni2096
AlternateSubs2: "'aalt' Access All Alternates lookup 1 subtable" k.sc uni2096
EndChar

StartChar: l
Encoding: 108 108 79
Width: 563
GlyphClass: 2
Flags: HW
AnchorPoint: "Anchor-3" 376.984 381 basechar 0
AnchorPoint: "Anchor-2" 624.543 760 basechar 0
AnchorPoint: "Anchor-1" 443.543 760 basechar 0
AnchorPoint: "Anchor-0" 296 0 basechar 0
LayerCount: 2
Fore
SplineSet
78 0 m 1
 90.7529296875 60 l 1
 267.516601562 73 l 1
 398.026367188 687 l 1
 231.577148438 699 l 1
 244.54296875 760 l 1
 500.54296875 760 l 1
 354.516601562 73 l 1
 510.752929688 60 l 1
 498 0 l 1
 78 0 l 1
EndSplineSet
Substitution2: "'smcp' Lowercase to Small Capitals lookup 35 subtable" l.sc
Substitution2: "'subs' Subscript lookup 22 subtable" uni2097
AlternateSubs2: "'aalt' Access All Alternates lookup 1 subtable" l.sc uni2097
EndChar

StartChar: m
Encoding: 109 109 80
Width: 563
GlyphClass: 2
Flags: HW
AnchorPoint: "Anchor-2" 656.931 536 basechar 0
AnchorPoint: "Anchor-1" 418.931 536 basechar 0
AnchorPoint: "Anchor-0" 286 0 basechar 0
LayerCount: 2
Fore
SplineSet
41 0 m 1
 154.930664062 536 l 1
 215.930664062 536 l 1
 215.814453125 479 l 1
 220.814453125 479 l 1
 254.442382812 529 289.055664062 546 331.055664062 546 c 0
 383.055664062 546 403.7421875 521 409.327148438 472 c 1
 412.327148438 472 l 1
 444.7421875 521 481.055664062 546 533.055664062 546 c 0
 588.134534244 546 612.780627209 518.369906428 612.780627209 457.619696424 c 0
 612.780627209 433.441400181 608.87668029 404.01686971 601.43359375 369 c 2
 523 0 l 1
 444 0 l 1
 519.669921875 356 l 2
 525.690989609 384.326946647 529.633853177 407.835482898 529.633853177 425.999745015 c 0
 529.633853177 454.645721612 519.827591126 470 492.901367188 470 c 0
 441.901367188 470 408.084960938 405 384.704101562 295 c 2
 322 0 l 1
 242 0 l 1
 317.669921875 356 l 2
 323.273999252 382.365157787 326.686433947 404.55619483 326.686433947 422.149111913 c 0
 326.686433947 453.267564489 316.010039206 470 287.901367188 470 c 0
 233.901367188 470 203.53515625 393 181.853515625 291 c 2
 120 0 l 1
 41 0 l 1
EndSplineSet
Substitution2: "'smcp' Lowercase to Small Capitals lookup 35 subtable" m.sc
Substitution2: "'subs' Subscript lookup 22 subtable" uni2098
AlternateSubs2: "'aalt' Access All Alternates lookup 1 subtable" m.sc uni2098
EndChar

StartChar: n
Encoding: 110 110 81
Width: 563
GlyphClass: 2
Flags: HW
AnchorPoint: "Anchor-2" 656.931 536 basechar 0
AnchorPoint: "Anchor-1" 406.931 536 basechar 0
AnchorPoint: "Anchor-0" 287 0 basechar 0
LayerCount: 2
Fore
SplineSet
73 0 m 1
 186.930664062 536 l 1
 256.930664062 536 l 1
 252.776367188 460 l 1
 257.776367188 460 l 1
 300.31640625 519 366.055664062 546 439.055664062 546 c 0
 526.419875858 546 578.772777101 505.921873918 578.772777101 417.927515817 c 0
 578.772777101 399.157310179 576.390626798 378.206830595 571.458007812 355 c 2
 496 0 l 1
 409 0 l 1
 481.907226562 343 l 2
 485.914900804 361.8545234 487.958810107 378.597388688 487.958810107 393.267938065 c 0
 487.958810107 447.069463942 460.46986642 473 401.5390625 473 c 0
 302.5390625 473 245.235351562 401 218.666015625 276 c 2
 160 0 l 1
 73 0 l 1
EndSplineSet
Substitution2: "'smcp' Lowercase to Small Capitals lookup 35 subtable" n.sc
Substitution2: "'sups' Superscript lookup 23 subtable" uni207F
Substitution2: "'subs' Subscript lookup 22 subtable" uni2099
AlternateSubs2: "'aalt' Access All Alternates lookup 1 subtable" uni207F n.sc uni2099
EndChar

StartChar: o
Encoding: 111 111 82
Width: 563
GlyphClass: 2
Flags: HW
AnchorPoint: "Anchor-3" 338.965 268 basechar 0
AnchorPoint: "Anchor-2" 656.931 536 basechar 0
AnchorPoint: "Anchor-1" 395.931 536 basechar 0
AnchorPoint: "Anchor-0" 282 0 basechar 0
LayerCount: 2
Fore
SplineSet
280.874023438 -10 m 0
 168.289837863 -10 97.0311356846 54.1559960539 97.0311356846 179.693132009 c 0
 97.0311356846 206.918016209 100.382530227 237.029739644 107.390625 270 c 0
 146.075195312 452 259.055664062 546 396.055664062 546 c 0
 508.210787557 546 580.934516103 482.07241878 580.934516103 355.899782723 c 0
 580.934516103 329.074695903 577.647301509 299.436045246 570.752929688 267 c 0
 532.067382812 85 416.874023438 -10 280.874023438 -10 c 0
295.178710938 62 m 0
 390.178710938 62 454.333007812 138 482.177734375 269 c 0
 488.513660474 298.808384619 491.68524197 325.665497853 491.68524197 349.371053811 c 0
 491.68524197 429.845173141 455.135185653 474 381.751953125 474 c 0
 286.751953125 474 222.022460938 400 194.177734375 269 c 0
 187.819633786 239.087291924 184.625916515 212.042269632 184.625916515 188.11495189 c 0
 184.625916515 107.254745337 221.099474108 62 295.178710938 62 c 0
EndSplineSet
Substitution2: "'smcp' Lowercase to Small Capitals lookup 35 subtable" o.sc
Substitution2: "Single Substitution lookup 32 subtable" ordmasculine
AlternateSubs2: "'aalt' Access All Alternates lookup 1 subtable" ordmasculine o.sc
EndChar

StartChar: p
Encoding: 112 112 83
Width: 563
GlyphClass: 2
Flags: HW
AnchorPoint: "Anchor-2" 656.931 536 basechar 0
AnchorPoint: "Anchor-1" 412.931 536 basechar 0
AnchorPoint: "Anchor-0" 247.986 -240 basechar 0
LayerCount: 2
Fore
SplineSet
21.986328125 -240 m 1
 186.930664062 536 l 1
 257.930664062 536 l 1
 253.4140625 463 l 1
 257.4140625 463 l 1
 298.041992188 513 353.055664062 546 428.055664062 546 c 0
 525.76413181 546 582.964890725 486.05157356 582.964890725 370.164968959 c 0
 582.964890725 340.168082655 579.132342151 306.423242845 571.177734375 269 c 0
 532.280273438 86 431.874023438 -10 308.874023438 -10 c 0
 235.874023438 -10 195.739257812 27 173.666015625 69 c 1
 167.666015625 69 l 1
 166.77734375 46 162.188476562 15 156.662109375 -11 c 2
 107.986328125 -240 l 1
 21.986328125 -240 l 1
305.390625 63 m 0
 395.390625 63 452.270507812 133 481.602539062 271 c 0
 488.92808712 305.463385064 492.665295602 335.431703968 492.665295602 360.97004713 c 0
 492.665295602 436.211550855 460.225596133 473 391.5390625 473 c 0
 298.5390625 473 245.510742188 407 220.428710938 289 c 2
 216.177734375 269 l 2
 208.808680454 234.331061181 204.786833959 203.330137861 204.786833959 176.553582187 c 0
 204.786833959 104.469334993 233.934031283 63 305.390625 63 c 0
EndSplineSet
Substitution2: "'smcp' Lowercase to Small Capitals lookup 35 subtable" p.sc
Substitution2: "'subs' Subscript lookup 22 subtable" uni209A
AlternateSubs2: "'aalt' Access All Alternates lookup 1 subtable" p.sc uni209A
EndChar

StartChar: q
Encoding: 113 113 84
Width: 563
GlyphClass: 2
Flags: HW
AnchorPoint: "Anchor-2" 656.931 536 basechar 0
AnchorPoint: "Anchor-1" 378.931 536 basechar 0
AnchorPoint: "Anchor-0" 213.986 -240 basechar 0
LayerCount: 2
Fore
SplineSet
401.662109375 -11 m 2
 407.401367188 16 415.139648438 43 423.303710938 72 c 1
 419.303710938 72 l 1
 381.739257812 27 328.874023438 -10 255.874023438 -10 c 0
 155.647575416 -10 95.4053511111 51.0756725693 95.4053511111 169.103128716 c 0
 95.4053511111 198.276659031 99.0859024371 230.92970832 106.752929688 267 c 0
 145.650390625 450 250.055664062 546 375.055664062 546 c 0
 448.055664062 546 483.19140625 509 503.625976562 464 c 1
 507.625976562 464 l 1
 534.930664062 536 l 1
 604.930664062 536 l 1
 439.986328125 -240 l 1
 352.986328125 -240 l 1
 401.662109375 -11 l 2
288.390625 63 m 0
 376.390625 63 432.6328125 130 457.501953125 247 c 2
 461.752929688 267 l 2
 469.158641841 301.841403568 473.183689221 332.978206908 473.183689221 359.845713582 c 0
 473.183689221 431.683784243 444.408009824 473 374.5390625 473 c 0
 283.5390625 473 224.235351562 401 195.540039062 266 c 0
 189.101722173 235.710587315 185.839738472 208.322152655 185.839738472 184.173853502 c 0
 185.839738472 107.071130579 219.094062436 63 288.390625 63 c 0
EndSplineSet
Substitution2: "'smcp' Lowercase to Small Capitals lookup 35 subtable" q.sc
Substitution2: "'aalt' Access All Alternates lookup 0 subtable" q.sc
EndChar

StartChar: r
Encoding: 114 114 85
Width: 563
GlyphClass: 2
Flags: HW
AnchorPoint: "Anchor-2" 656.931 536 basechar 0
AnchorPoint: "Anchor-1" 424.931 536 basechar 0
AnchorPoint: "Anchor-0" 246 0 basechar 0
LayerCount: 2
Fore
SplineSet
53 0 m 1
 65.7529296875 60 l 1
 216.516601562 73 l 1
 299.201171875 462 l 1
 165.96484375 475 l 1
 178.930664062 536 l 1
 384.930664062 536 l 1
 375.3125 439 l 1
 379.3125 439 l 1
 426.766601562 507 478.055664062 546 552.055664062 546 c 0
 590.055664062 546 620.568359375 539 646.8046875 526 c 1
 605.799804688 446 l 1
 586.350585938 458 558.838867188 465 530.838867188 465 c 0
 444.838867188 465 369.133789062 377 345.96484375 268 c 2
 304.516601562 73 l 1
 446.752929688 60 l 1
 434 0 l 1
 53 0 l 1
EndSplineSet
Substitution2: "'smcp' Lowercase to Small Capitals lookup 35 subtable" r.sc
Substitution2: "'aalt' Access All Alternates lookup 0 subtable" r.sc
EndChar

StartChar: s
Encoding: 115 115 86
Width: 563
GlyphClass: 2
Flags: HW
AnchorPoint: "Anchor-2" 656.931 536 basechar 0
AnchorPoint: "Anchor-1" 400.931 536 basechar 0
AnchorPoint: "Anchor-0" 287 0 basechar 0
LayerCount: 2
Fore
SplineSet
259.874023438 -10 m 0
 193.874023438 -10 137.424804688 2 100.1015625 24 c 1
 117.318359375 105 l 1
 157.642578125 83 208.390625 63 280.390625 63 c 0
 367.390625 63 403.767578125 93 414.395507812 143 c 0
 415.685413373 149.068284659 416.399371894 154.489434148 416.399371894 159.465529135 c 0
 416.399371894 188.930137108 391.367288783 202.7906995 312.651367188 243 c 0
 236.577546532 281.189903884 186.295365846 309.586370855 186.295365846 372.652177448 c 0
 186.295365846 382.246817934 187.459179927 392.643903045 189.873046875 404 c 0
 209.853515625 498 293.055664062 546 418.055664062 546 c 0
 475.055664062 546 519.930664062 536 569.829101562 512 c 1
 528.162109375 443 l 1
 481.051757812 466 443.5390625 473 401.5390625 473 c 0
 325.5390625 473 284.650390625 450 275.297851562 406 c 0
 274.282770386 401.224270291 273.767585878 396.769253102 273.767585878 392.565079514 c 0
 273.767585878 358.915464201 306.771216921 341.335333772 380.6171875 304 c 0
 456.314716598 266.952643674 505.744800907 242.524331363 505.744800907 178.912491483 c 0
 505.744800907 168.691556609 504.468665734 157.459021644 501.8203125 145 c 0
 480.352539062 44 397.874023438 -10 259.874023438 -10 c 0
EndSplineSet
Substitution2: "'smcp' Lowercase to Small Capitals lookup 35 subtable" s.sc
Substitution2: "'subs' Subscript lookup 22 subtable" uni209B
AlternateSubs2: "'aalt' Access All Alternates lookup 1 subtable" s.sc uni209B
EndChar

StartChar: t
Encoding: 116 116 87
Width: 563
GlyphClass: 2
Flags: HW
AnchorPoint: "Anchor-3" 302.666 276 basechar 0
AnchorPoint: "Anchor-2" 644.461 849 basechar 0
AnchorPoint: "Anchor-1" 395.326 679 basechar 0
AnchorPoint: "Anchor-0" 355 0 basechar 0
LayerCount: 2
Fore
SplineSet
377.874023438 -10 m 0
 287.438496123 -10 223.263204714 17.6598624802 223.263204714 105.272184497 c 0
 223.263204714 120.350767365 225.164101438 137.20516506 229.159179688 156 c 2
 294.201171875 462 l 1
 152.201171875 462 l 1
 164.529296875 520 l 1
 311.568359375 539 l 1
 363.326171875 679 l 1
 428.326171875 679 l 1
 397.930664062 536 l 1
 593.930664062 536 l 1
 578.201171875 462 l 1
 381.201171875 462 l 1
 319.559570312 172 l 2
 316.392987873 157.102399241 314.768741601 143.857041532 314.768741601 132.188607237 c 0
 314.768741601 84.3306103475 342.092204697 63 402.390625 63 c 0
 433.390625 63 472.87890625 70 505.579101562 78 c 1
 490.0625 5 l 1
 457.362304688 -3 416.874023438 -10 377.874023438 -10 c 0
EndSplineSet
Substitution2: "'smcp' Lowercase to Small Capitals lookup 35 subtable" t.sc
Substitution2: "'subs' Subscript lookup 22 subtable" uni209C
AlternateSubs2: "'aalt' Access All Alternates lookup 1 subtable" t.sc uni209C
EndChar

StartChar: u
Encoding: 117 117 88
Width: 563
GlyphClass: 2
Flags: HW
AnchorPoint: "Anchor-2" 656.931 536 basechar 0
AnchorPoint: "Anchor-1" 395.931 536 basechar 0
AnchorPoint: "Anchor-0" 282 0 basechar 0
LayerCount: 2
Fore
SplineSet
240.874023438 -10 m 0
 145.623559857 -10 98.210939831 31.0917050451 98.210939831 113.814680059 c 0
 98.210939831 132.703683746 100.683004162 153.763315791 105.622070312 177 c 2
 181.930664062 536 l 1
 268.930664062 536 l 1
 195.810546875 192 l 2
 191.737630993 172.837888504 189.630864825 155.947224972 189.630864825 141.2381833 c 0
 189.630864825 87.6298733525 217.614994884 63 280.390625 63 c 0
 380.390625 63 432.6953125 135 459.051757812 259 c 2
 517.930664062 536 l 1
 604.930664062 536 l 1
 491 0 l 1
 420 0 l 1
 422.303710938 72 l 1
 417.303710938 72 l 1
 370.763671875 13 311.874023438 -10 240.874023438 -10 c 0
EndSplineSet
Substitution2: "'smcp' Lowercase to Small Capitals lookup 35 subtable" u.sc
Substitution2: "'aalt' Access All Alternates lookup 0 subtable" u.sc
EndChar

StartChar: v
Encoding: 118 118 89
Width: 563
GlyphClass: 2
Flags: HW
AnchorPoint: "Anchor-2" 656.931 536 basechar 0
AnchorPoint: "Anchor-1" 395.931 536 basechar 0
AnchorPoint: "Anchor-0" 282 0 basechar 0
LayerCount: 2
Fore
SplineSet
227 0 m 1
 153.930664062 536 l 1
 240.930664062 536 l 1
 279.762695312 220 l 2
 284.622070312 177 291.357421875 124 295.516601562 73 c 1
 298.516601562 73 l 1
 324.357421875 124 354.622070312 177 377.762695312 220 c 2
 547.930664062 536 l 1
 636.930664062 536 l 1
 333 0 l 1
 227 0 l 1
EndSplineSet
Substitution2: "'smcp' Lowercase to Small Capitals lookup 35 subtable" v.sc
Substitution2: "'aalt' Access All Alternates lookup 0 subtable" v.sc
EndChar

StartChar: w
Encoding: 119 119 90
Width: 563
GlyphClass: 2
Flags: HW
AnchorPoint: "Anchor-2" 656.931 536 basechar 0
AnchorPoint: "Anchor-1" 396.931 536 basechar 0
AnchorPoint: "Anchor-0" 283 0 basechar 0
LayerCount: 2
Fore
SplineSet
94 0 m 1
 127.930664062 536 l 1
 207.930664062 536 l 1
 187.752929688 267 l 2
 182.298828125 199 172.544921875 139 162.516601562 73 c 1
 165.516601562 73 l 1
 177.956054688 108 210.661132812 196 237.138671875 250 c 2
 326.3125 439 l 1
 422.3125 439 l 1
 429.138671875 250 l 2
 430.106642833 229.278001511 430.545984405 203.991038048 430.545984405 178.546771134 c 0
 430.545984405 137.685154758 429.412922865 96.417852915 427.516601562 73 c 1
 430.516601562 73 l 1
 448.907226562 136 464.661132812 196 489.752929688 267 c 2
 585.930664062 536 l 1
 663.930664062 536 l 1
 468 0 l 1
 362 0 l 1
 359.236328125 194 l 2
 358.221498647 229.994875444 356.951533488 266.878386731 356.951533488 303.465854732 c 0
 356.951533488 321.767402117 357.269296041 339.994875444 358.095703125 358 c 1
 355.095703125 358 l 1
 334.6171875 304 307.501953125 247 284.0234375 193 c 2
 197 0 l 1
 94 0 l 1
EndSplineSet
Substitution2: "'smcp' Lowercase to Small Capitals lookup 35 subtable" w.sc
Substitution2: "'aalt' Access All Alternates lookup 0 subtable" w.sc
EndChar

StartChar: x
Encoding: 120 120 91
Width: 563
GlyphClass: 2
Flags: HW
AnchorPoint: "Anchor-2" 656.931 536 basechar 0
AnchorPoint: "Anchor-1" 395.931 536 basechar 0
AnchorPoint: "Anchor-0" 282 0 basechar 0
LayerCount: 2
Fore
SplineSet
40 0 m 1
 288.240234375 274 l 1
 162.930664062 536 l 1
 261.930664062 536 l 1
 352.206054688 335 l 1
 529.930664062 536 l 1
 628.930664062 536 l 1
 389.028320312 273 l 1
 523 0 l 1
 424 0 l 1
 327.274414062 213 l 1
 139 0 l 1
 40 0 l 1
EndSplineSet
Substitution2: "'smcp' Lowercase to Small Capitals lookup 35 subtable" x.sc
Substitution2: "'aalt' Access All Alternates lookup 0 subtable" x.sc
EndChar

StartChar: y
Encoding: 121 121 92
Width: 563
GlyphClass: 2
Flags: HW
AnchorPoint: "Anchor-2" 656.931 536 basechar 0
AnchorPoint: "Anchor-1" 395.931 536 basechar 0
AnchorPoint: "Anchor-0" 229.924 -245 basechar 0
LayerCount: 2
Fore
SplineSet
73.923828125 -245 m 0
 48.923828125 -245 25.7734375 -241 6.6240234375 -237 c 1
 21.2900390625 -168 l 1
 36.65234375 -171 59.015625 -174 79.015625 -174 c 0
 135.015625 -174 166.75390625 -147 206.420898438 -78 c 2
 249.9375 -5 l 1
 153.930664062 536 l 1
 239.930664062 536 l 1
 292.1875 222 l 2
 299.622070312 177 304.357421875 124 306.791992188 79 c 1
 309.791992188 79 l 1
 330.569335938 125 359.47265625 181 381.400390625 223 c 2
 546.930664062 536 l 1
 636.930664062 536 l 1
 295.12109375 -70 l 2
 236.015625 -174 178.923828125 -245 73.923828125 -245 c 0
EndSplineSet
Substitution2: "'smcp' Lowercase to Small Capitals lookup 35 subtable" y.sc
Substitution2: "'aalt' Access All Alternates lookup 0 subtable" y.sc
EndChar

StartChar: z
Encoding: 122 122 93
Width: 563
GlyphClass: 2
Flags: HW
AnchorPoint: "Anchor-2" 656.931 536 basechar 0
AnchorPoint: "Anchor-1" 403.931 536 basechar 0
AnchorPoint: "Anchor-0" 290 0 basechar 0
LayerCount: 2
Fore
SplineSet
81 0 m 1
 93.9658203125 61 l 1
 480.051757812 466 l 1
 195.051757812 466 l 1
 209.930664062 536 l 1
 588.930664062 536 l 1
 573.838867188 465 l 1
 198.94140625 75 l 1
 498.94140625 75 l 1
 483 0 l 1
 81 0 l 1
EndSplineSet
Substitution2: "'smcp' Lowercase to Small Capitals lookup 35 subtable" z.sc
Substitution2: "'aalt' Access All Alternates lookup 0 subtable" z.sc
EndChar

StartChar: braceleft
Encoding: 123 123 94
Width: 563
Flags: HW
LayerCount: 2
Fore
SplineSet
400.203125 -159 m 1
 295.990991923 -158.144309003 239.099886712 -120.678263864 239.099886712 -42.8426065315 c 0
 239.099886712 -29.7159216398 240.717956675 -15.4410632914 244 0 c 2
 275.458007812 148 l 2
 277.786575627 158.954856702 278.96016295 168.871574258 278.96016295 177.800326191 c 0
 278.96016295 224.294949293 247.137291938 244 180.864257812 244 c 1
 195.530273438 313 l 1
 271.530273438 313 315.84375 338 330.72265625 408 c 2
 362.393554688 557 l 2
 384.712890625 662 465.765625 714 585.977539062 715 c 1
 571.098632812 645 l 1
 502.673828125 643 459.147460938 617 445.119140625 551 c 2
 413.873046875 404 l 2
 398.994140625 334 358.491210938 294 284.728515625 281 c 1
 283.666015625 276 l 1
 339.512690685 265.51407743 364.812052043 236.810829295 364.812052043 189.890255598 c 0
 364.812052043 178.6407013 363.357753518 166.343949434 360.521484375 153 c 2
 329.0625 5 l 2
 326.82155493 -5.54312785423 325.710789716 -15.0910435291 325.710789716 -23.6967402028 c 0
 325.710789716 -68.9627207309 356.443019098 -88.1597443614 415.08203125 -89 c 1
 400.203125 -159 l 1
EndSplineSet
Substitution2: "'smcp' Lowercase to Small Capitals lookup 35 subtable" braceleft.sc
Substitution2: "'c2sc' Capitals to Small Capitals lookup 34 subtable" braceleft.sc
Substitution2: "'aalt' Access All Alternates lookup 0 subtable" braceleft.sc
EndChar

StartChar: bar
Encoding: 124 124 95
Width: 563
Flags: HW
LayerCount: 2
Fore
SplineSet
193.986328125 -240 m 1
 406.54296875 760 l 1
 480.54296875 760 l 1
 267.986328125 -240 l 1
 193.986328125 -240 l 1
EndSplineSet
EndChar

StartChar: braceright
Encoding: 125 125 96
Width: 563
Flags: HW
LayerCount: 2
Fore
SplineSet
276.977539062 715 m 1
 382.062639255 714.14417511 439.078749917 676.666538066 439.078749917 598.806065865 c 0
 439.078749917 585.689431566 437.460638796 571.426736725 434.181640625 556 c 2
 402.72265625 408 l 2
 400.390193424 397.026077603 399.216709382 387.093911026 399.216709382 378.153064324 c 0
 399.216709382 331.691881218 430.905117326 312 496.317382812 312 c 1
 481.651367188 243 l 1
 406.651367188 243 362.336914062 218 347.458007812 148 c 2
 315.787109375 -1 l 2
 293.46875 -106 211.416015625 -158 91.203125 -159 c 1
 106.08203125 -89 l 1
 174.5078125 -87 219.034179688 -61 233.0625 5 c 2
 264.30859375 152 l 2
 279.1875 222 319.689453125 262 393.453125 275 c 1
 394.515625 280 l 1
 338.66894994 290.48592257 313.369588582 319.189170705 313.369588582 366.109744402 c 0
 313.369588582 377.3592987 314.823887107 389.656050566 317.66015625 403 c 2
 349.119140625 551 l 2
 351.355984773 561.523833964 352.46678173 571.056094885 352.46678173 579.649485543 c 0
 352.46678173 624.949360912 321.599414765 644.15945203 262.098632812 645 c 1
 276.977539062 715 l 1
EndSplineSet
Substitution2: "'smcp' Lowercase to Small Capitals lookup 35 subtable" braceright.sc
Substitution2: "'c2sc' Capitals to Small Capitals lookup 34 subtable" braceright.sc
Substitution2: "'aalt' Access All Alternates lookup 0 subtable" braceright.sc
EndChar

StartChar: asciitilde
Encoding: 126 126 97
Width: 563
Flags: HW
LayerCount: 2
Fore
SplineSet
132.215820312 288 m 1
 156.220703125 368 196.4140625 463 284.4140625 463 c 0
 327.4140625 463 352.524414062 440 386.384765625 397 c 0
 407.220703125 368 425.544921875 346 450.544921875 346 c 0
 485.544921875 346 508.046875 386 532.4140625 463 c 1
 589.4140625 463 l 1
 566.684570312 389 524.215820312 288 439.215820312 288 c 0
 398.215820312 288 370.467773438 308 339.8203125 352 c 0
 316.622070312 384 300.084960938 405 273.084960938 405 c 0
 237.084960938 405 213.0078125 367 189.215820312 288 c 1
 132.215820312 288 l 1
EndSplineSet
EndChar

StartChar: exclamdown
Encoding: 161 161 99
Width: 563
Flags: HW
LayerCount: 2
Fore
SplineSet
396.780273438 540 m 0
 425.783158289 540 444.854179844 525.579988633 444.854179844 493.894918762 c 0
 444.854179844 487.343190771 444.038769276 480.053268913 442.327148438 472 c 0
 432.124023438 424 403.084960938 405 368.084960938 405 c 0
 339.667109955 405 318.812353851 417.574685624 318.812353851 450.314730153 c 0
 318.812353851 456.745892294 319.617038103 463.955138181 321.327148438 472 c 0
 331.31640625 519 362.780273438 540 396.780273438 540 c 0
387.505859375 327 m 1
 295.676757812 -185 l 1
 188.676757812 -185 l 1
 313.505859375 327 l 1
 387.505859375 327 l 1
EndSplineSet
Substitution2: "'smcp' Lowercase to Small Capitals lookup 35 subtable" exclamdown.sc
Substitution2: "'c2sc' Capitals to Small Capitals lookup 34 subtable" exclamdown.sc
Substitution2: "'aalt' Access All Alternates lookup 0 subtable" exclamdown.sc
EndChar

StartChar: cent
Encoding: 162 162 100
Width: 563
Flags: HW
LayerCount: 2
Fore
SplineSet
304.129882812 90 m 1
 207.830329242 103.48658591 153.717020364 158.51160769 153.717020364 266.558905564 c 0
 153.717020364 294.706496165 157.389494295 326.452516261 164.9453125 362 c 0
 201.080078125 532 294.422851562 623 421.036132812 640 c 1
 438.890625 724 l 1
 501.890625 724 l 1
 484.88671875 644 l 1
 532.4609375 642 580.123046875 631 606.934570312 616 c 1
 566.055664062 546 l 1
 535.819335938 559 497.157226562 570 457.157226562 570 c 0
 346.157226562 570 281.703125 502 252.158203125 363 c 0
 245.761888847 332.908253543 242.569770799 306.425249738 242.569770799 283.39879756 c 0
 242.569770799 200.061305148 284.382233078 162 367.434570312 162 c 0
 418.434570312 162 467.984375 174 508.598632812 191 c 1
 492.65625 116 l 1
 459.255859375 100 415.129882812 90 365.705078125 88 c 1
 344.874023438 -10 l 1
 282.874023438 -10 l 1
 304.129882812 90 l 1
EndSplineSet
EndChar

StartChar: sterling
Encoding: 163 163 101
Width: 563
Flags: HW
LayerCount: 2
Fore
SplineSet
99.5166015625 73 m 1
 153.91796875 89 195.844726562 131 213.487304688 214 c 2
 236.443359375 322 l 1
 153.443359375 322 l 1
 167.471679688 388 l 1
 250.471679688 388 l 1
 282.35546875 538 l 2
 307.4375 656 389.678710938 723 503.678710938 723 c 0
 559.678710938 723 599.702148438 709 635.963867188 682 c 1
 590.72265625 615 l 1
 558.611328125 638 528.736328125 648 494.736328125 648 c 0
 424.736328125 648 385.509765625 614 367.442382812 529 c 2
 337.471679688 388 l 1
 501.471679688 388 l 1
 487.443359375 322 l 1
 323.443359375 322 l 1
 300.69921875 215 l 2
 288.37109375 157 249.680664062 102 209.791992188 79 c 1
 514.791992188 79 l 1
 498 0 l 1
 84 0 l 1
 99.5166015625 73 l 1
EndSplineSet
EndChar

StartChar: currency
Encoding: 164 164 102
Width: 563
Flags: HW
LayerCount: 2
Fore
SplineSet
436.661132812 196 m 1
 398.984375 174 358.221679688 161 316.221679688 161 c 0
 273.221679688 161 235.984375 174 209.874023438 197 c 1
 130.057617188 132 l 1
 93.8349609375 178 l 1
 172.864257812 244 l 1
 162.208987895 265.995289007 156.468713041 290.211848622 156.468713041 316.353572851 c 0
 156.468713041 329.432833593 157.905626542 342.99400419 160.8828125 357 c 0
 169.59765625 398 191.099609375 438 220.901367188 470 c 1
 169.35546875 538 l 1
 225.920898438 583 l 1
 278.104492188 518 l 1
 314.993164062 541 356.96875 555 399.96875 555 c 0
 441.96875 555 477.206054688 542 505.104492188 518 c 1
 585.920898438 583 l 1
 622.35546875 538 l 1
 543.114257812 471 l 1
 553.595303355 448.932088907 559.938720376 423.059547346 559.938720376 395.350193603 c 0
 559.938720376 382.879064651 558.653782861 370.035866691 555.8828125 357 c 0
 546.955078125 315 524.666015625 276 494.651367188 243 c 1
 544.622070312 177 l 1
 489.844726562 131 l 1
 436.661132812 196 l 1
330.038085938 226 m 0
 407.038085938 226 471.303710938 279 488.095703125 358 c 0
 490.565872943 369.621658136 491.754247338 380.673519504 491.754247338 391.075875044 c 0
 491.754247338 452.280207077 450.615200599 491 387.365234375 491 c 0
 312.365234375 491 243.887695312 437 226.8828125 357 c 0
 224.55884733 346.06639889 223.439621765 335.624019152 223.439621765 325.749980232 c 0
 223.439621765 265.18290575 265.551163928 226 330.038085938 226 c 0
EndSplineSet
EndChar

StartChar: yen
Encoding: 165 165 103
Width: 563
Flags: HW
LayerCount: 2
Fore
SplineSet
238 0 m 1
 265.419921875 129 l 1
 134.419921875 129 l 1
 147.810546875 192 l 1
 278.810546875 192 l 1
 296.453125 275 l 1
 165.453125 275 l 1
 178.631835938 337 l 1
 285.631835938 337 l 1
 194.765625 714 l 1
 285.765625 714 l 1
 359.645507812 370 l 1
 581.765625 714 l 1
 671.765625 714 l 1
 418.631835938 337 l 1
 529.631835938 337 l 1
 516.453125 275 l 1
 382.453125 275 l 1
 364.810546875 192 l 1
 498.810546875 192 l 1
 485.419921875 129 l 1
 351.419921875 129 l 1
 324 0 l 1
 238 0 l 1
EndSplineSet
EndChar

StartChar: brokenbar
Encoding: 166 166 104
Width: 563
Flags: HW
LayerCount: 2
Fore
SplineSet
323.708984375 375 m 1
 405.54296875 760 l 1
 479.54296875 760 l 1
 397.708984375 375 l 1
 323.708984375 375 l 1
192.986328125 -240 m 1
 275.033203125 146 l 1
 349.033203125 146 l 1
 266.986328125 -240 l 1
 192.986328125 -240 l 1
EndSplineSet
EndChar

StartChar: section
Encoding: 167 167 105
Width: 563
Flags: HW
LayerCount: 2
Fore
SplineSet
250.874023438 -10 m 0
 186.874023438 -10 137.424804688 2 103.888671875 23 c 1
 119.405273438 96 l 1
 152.729492188 74 210.265625 53 267.265625 53 c 0
 347.265625 53 392.854492188 84 402.20703125 128 c 0
 403.520516898 134.17921579 404.207015085 139.981318417 404.207015085 145.49175088 c 0
 404.207015085 180.110918879 377.111258691 203.218004445 308.163085938 236 c 0
 231.771622033 273.916758994 188.119260203 305.150085388 188.119260203 362.976578586 c 0
 188.119260203 372.254072337 189.242869633 382.216072762 191.53515625 393 c 0
 205.138671875 457 252.853515625 498 303.104492188 518 c 1
 270.89581415 539.600056526 252.983460937 568.240149897 252.983460937 606.480300214 c 0
 252.983460937 616.040212704 254.102953716 626.200113051 256.3984375 637 c 0
 273.615234375 718 350.60546875 765 464.60546875 765 c 0
 526.60546875 765 566.0546875 753 605.803710938 733 c 1
 566.837890625 672 l 1
 531.088867188 692 500.21484375 702 448.21484375 702 c 0
 379.21484375 702 343.11328125 678 334.823242188 639 c 0
 333.786379418 634.121958032 333.261780431 629.456247653 333.261780431 624.965817201 c 0
 333.261780431 591.71412699 362.027745585 568.073771099 424.568359375 539 c 0
 494.067004976 506.505433712 547.369301087 474.010867425 547.369301087 410.357201955 c 0
 547.369301087 401.531499596 546.344598961 392.106783733 544.196289062 382 c 0
 530.380859375 317 484.815429688 272 438.138671875 250 c 1
 468.79328437 225.259959346 485.531060604 197.972282431 485.531060604 162.037424935 c 0
 485.531060604 152.94484703 484.45944269 143.298642795 482.270507812 133 c 0
 463.139648438 43 375.874023438 -10 250.874023438 -10 c 0
388.515625 280 m 1
 426.12890625 297 460.505859375 327 469.43359375 369 c 0
 470.888866249 375.84667163 471.675425701 382.302865022 471.675425701 388.455877362 c 0
 471.675425701 426.338510504 441.860323765 452.72884769 354.727539062 488 c 1
 311.389648438 477 272.375 444 263.873046875 404 c 0
 262.600786621 398.014374092 261.974303501 392.386495363 261.974303501 387.06145764 c 0
 261.974303501 346.125341413 298.997786275 323.086321522 364.279296875 293 c 1
 388.515625 280 l 1
EndSplineSet
EndChar

StartChar: dieresis
Encoding: 168 168 106
Width: 563
GlyphClass: 2
Flags: HW
AnchorPoint: "Anchor-1" 419.312 646 basechar 0
LayerCount: 2
Fore
SplineSet
521.422851562 623 m 0
 497.086158673 623 479.11454179 636.380758377 479.11454179 664.915288237 c 0
 479.11454179 670.382969347 479.774402187 676.407048568 481.17578125 683 c 0
 489.890625 724 517.504882812 741 546.504882812 741 c 0
 571.051319287 741 590.142583281 728.820489606 590.142583281 700.216549859 c 0
 590.142583281 695.026816397 589.514129879 689.296417398 588.17578125 683 c 0
 579.4609375 642 550.422851562 623 521.422851562 623 c 0
307.422851562 623 m 0
 283.086158673 623 265.11454179 636.380758377 265.11454179 664.915288237 c 0
 265.11454179 670.382969347 265.774402187 676.407048568 267.17578125 683 c 0
 275.890625 724 303.504882812 741 332.504882812 741 c 0
 356.192425526 741 375.146220866 728.833297759 375.146220866 700.261668587 c 0
 375.146220866 695.060034466 374.518009515 689.314669598 373.17578125 683 c 0
 364.4609375 642 335.422851562 623 307.422851562 623 c 0
EndSplineSet
EndChar

StartChar: copyright
Encoding: 169 169 107
Width: 563
Flags: HW
LayerCount: 2
Fore
SplineSet
306.231445312 114 m 0
 175.85060543 114 105.297827616 186.394818024 105.297827616 295.987332027 c 0
 105.297827616 315.84057993 107.61317132 336.914551578 112.307617188 359 c 0
 143.553710938 506 261.809570312 606 411.809570312 606 c 0
 539.991830303 606 611.628506972 533.218110196 611.628506972 423.134111131 c 0
 611.628506972 403.538044795 609.35851231 382.759963982 604.733398438 361 c 0
 573.274414062 213 453.231445312 114 306.231445312 114 c 0
315.796875 159 m 0
 431.796875 159 527.73828125 234 554.095703125 358 c 0
 558.066755228 376.682976147 559.994486548 394.327720297 559.994486548 410.818584806 c 0
 559.994486548 502.895879813 499.895830365 559 399.819335938 559 c 0
 282.819335938 559 187.876953125 484 161.733398438 361 c 0
 157.76420987 342.326952009 155.83147249 324.637824624 155.83147249 308.068871996 c 0
 155.83147249 216.38489122 215.010749679 159 315.796875 159 c 0
336.787109375 206 m 0
 260.944592445 206 226.453880447 247.233601249 226.453880447 310.175766698 c 0
 226.453880447 324.414866108 228.219039496 339.764962256 231.669921875 356 c 0
 251.225585938 448 314.041992188 513 401.041992188 513 c 0
 431.041992188 513 459.340820312 505 481.790039062 493 c 1
 451.012695312 447 l 1
 431.563476562 459 411.625976562 464 392.625976562 464 c 0
 339.625976562 464 301.76171875 427 286.669921875 356 c 0
 283.71582667 342.102305847 282.212691844 329.438916872 282.212691844 318.117350997 c 0
 282.212691844 276.487558625 302.535954547 253 345.776367188 253 c 0
 367.776367188 253 396.051757812 259 420.96484375 268 c 1
 410.974609375 221 l 1
 388.061523438 212 364.787109375 206 336.787109375 206 c 0
EndSplineSet
EndChar

StartChar: ordfeminine
Encoding: 170 170 108
Width: 563
GlyphClass: 2
Flags: HW
AnchorPoint: "Anchor-1" 427.466 722 basechar 0
AnchorPoint: "Anchor-0" 352.472 388 basechar 0
LayerCount: 2
Fore
SplineSet
322.409179688 383 m 0
 269.477310854 383 237.118984053 407.781637122 237.118984053 454.233577483 c 0
 237.118984053 462.191586475 238.068685694 470.785608653 240.02734375 480 c 0
 254.693359375 549 310.920898438 583 415.983398438 588 c 2
 467.62109375 591 l 1
 472.084960938 612 l 2
 473.394523308 618.16119781 474.027591197 623.747549737 474.027591197 628.797297152 c 0
 474.027591197 658.990556949 451.395171798 670 415.413085938 670 c 0
 383.413085938 670 350.287109375 660 319.311523438 646 c 1
 308.514648438 694 l 1
 345.127929688 711 387.465820312 722 432.465820312 722 c 0
 501.388226755 722 537.352194719 696.567113035 537.352194719 642.732342199 c 0
 537.352194719 632.517532697 536.05739556 621.280179316 533.447265625 609 c 2
 486.684570312 389 l 1
 440.684570312 389 l 1
 438.82421875 432 l 1
 406.235351562 401 369.409179688 383 322.409179688 383 c 0
351.461914062 435 m 0
 406.461914062 435 441.4765625 468 452.529296875 520 c 2
 457.630859375 544 l 1
 415.206054688 542 l 2
 342.35546875 538 312.7421875 521 304.665039062 483 c 0
 303.562067752 477.810909454 303.023474441 473.105399753 303.023474441 468.854140893 c 0
 303.023474441 444.43099934 320.799264339 435 351.461914062 435 c 0
EndSplineSet
EndChar

StartChar: guillemotleft
Encoding: 171 171 109
Width: 563
Flags: HW
LayerCount: 2
Fore
SplineSet
441.903320312 56 m 1
 323.626953125 257 l 1
 326.390625 270 l 1
 530.327148438 472 l 1
 579.461914062 435 l 1
 418.115234375 264 l 1
 506.767578125 93 l 1
 441.903320312 56 l 1
248.116210938 57 m 1
 131.626953125 257 l 1
 134.390625 270 l 1
 336.327148438 472 l 1
 386.037109375 433 l 1
 225.115234375 264 l 1
 312.767578125 93 l 1
 248.116210938 57 l 1
EndSplineSet
EndChar

StartChar: logicalnot
Encoding: 172 172 110
Width: 563
Flags: HW
LayerCount: 2
Fore
SplineSet
440.569335938 125 m 1
 481.592773438 318 l 1
 140.592773438 318 l 1
 155.471679688 388 l 1
 566.471679688 388 l 1
 510.569335938 125 l 1
 440.569335938 125 l 1
EndSplineSet
EndChar

StartChar: uni00AD
Encoding: 173 173 111
Width: 563
Flags: HW
LayerCount: 2
Fore
SplineSet
189.100585938 231 m 1
 205.892578125 310 l 1
 488.892578125 310 l 1
 472.100585938 231 l 1
 189.100585938 231 l 1
EndSplineSet
EndChar

StartChar: registered
Encoding: 174 174 112
Width: 563
Flags: HW
LayerCount: 2
Fore
SplineSet
306.231445312 114 m 0
 175.85060543 114 105.297827616 186.394818024 105.297827616 295.987332027 c 0
 105.297827616 315.84057993 107.61317132 336.914551578 112.307617188 359 c 0
 143.553710938 506 261.809570312 606 411.809570312 606 c 0
 539.991830303 606 611.628506972 533.218110196 611.628506972 423.134111131 c 0
 611.628506972 403.538044795 609.35851231 382.759963982 604.733398438 361 c 0
 573.274414062 213 453.231445312 114 306.231445312 114 c 0
315.796875 159 m 0
 431.796875 159 527.73828125 234 554.095703125 358 c 0
 558.066755228 376.682976147 559.994486548 394.327720297 559.994486548 410.818584806 c 0
 559.994486548 502.895879813 499.895830365 559 399.819335938 559 c 0
 282.819335938 559 187.876953125 484 161.733398438 361 c 0
 157.76420987 342.326952009 155.83147249 324.637824624 155.83147249 308.068871996 c 0
 155.83147249 216.38489122 215.010749679 159 315.796875 159 c 0
236.061523438 212 m 1
 299.616210938 511 l 1
 383.616210938 511 l 2
 446.058657889 511 475.410272836 486.123285388 475.410272836 445.131774398 c 0
 475.410272836 438.20107144 474.571201821 430.809696775 472.911132812 423 c 0
 462.49609375 374 429.182617188 349 400.84375 338 c 1
 453.061523438 212 l 1
 393.061523438 212 l 1
 351.29296875 326 l 1
 309.29296875 326 l 1
 285.061523438 212 l 1
 236.061523438 212 l 1
352.43359375 369 m 2
 387.43359375 369 413.833984375 385 421.061523438 419 c 0
 422.07915734 423.787627811 422.590611931 428.194724899 422.590611931 432.227989202 c 0
 422.590611931 455.15263867 406.067223049 466 372.051757812 466 c 2
 339.051757812 466 l 1
 318.43359375 369 l 1
 352.43359375 369 l 2
EndSplineSet
EndChar

StartChar: overscore
Encoding: 175 175 113
Width: 563
Flags: HW
LayerCount: 2
Fore
SplineSet
275.635742188 624 m 1
 290.088867188 692 l 1
 567.088867188 692 l 1
 552.635742188 624 l 1
 275.635742188 624 l 1
EndSplineSet
EndChar

StartChar: degree
Encoding: 176 176 114
Width: 563
Flags: HW
LayerCount: 2
Fore
SplineSet
374.037109375 433 m 0
 300.459408294 433 255.979809527 476.918426958 255.979809527 542.836755453 c 0
 255.979809527 553.965904214 257.247672689 565.722146417 259.857421875 578 c 0
 277.924804688 663 353.890625 724 435.890625 724 c 0
 505.001757429 724 552.495568602 678.475427162 552.495568602 611.281082089 c 0
 552.495568602 600.6942157 551.31658861 589.569421794 548.857421875 578 c 0
 530.790039062 493 457.037109375 433 374.037109375 433 c 0
387.15234375 490 m 0
 435.15234375 490 479.166992188 523 490.857421875 578 c 0
 492.576288757 586.086758231 493.398794302 593.719530071 493.398794302 600.856993775 c 0
 493.398794302 642.263148228 465.717856169 667 424.775390625 667 c 0
 373.775390625 667 329.547851562 633 317.857421875 578 c 0
 316.285838852 570.606168588 315.539722787 563.609928034 315.539722787 557.038003063 c 0
 315.539722787 514.723788592 346.470708775 490 387.15234375 490 c 0
EndSplineSet
EndChar

StartChar: plusminus
Encoding: 177 177 115
Width: 563
Flags: HW
LayerCount: 2
Fore
SplineSet
272.419921875 129 m 1
 314.29296875 326 l 1
 141.29296875 326 l 1
 156.172851562 396 l 1
 329.172851562 396 l 1
 371.470703125 595 l 1
 442.470703125 595 l 1
 400.172851562 396 l 1
 572.172851562 396 l 1
 557.29296875 326 l 1
 385.29296875 326 l 1
 343.419921875 129 l 1
 272.419921875 129 l 1
75 0 m 1
 89.87890625 70 l 1
 502.87890625 70 l 1
 488 0 l 1
 75 0 l 1
EndSplineSet
EndChar

StartChar: uni00B2
Encoding: 178 178 116
Width: 563
Flags: HW
LayerCount: 2
Fore
SplineSet
232.423828125 416 m 1
 243.901367188 470 l 1
 374.495117188 581 l 2
 465.862304688 658 496.6015625 685 506.591796875 732 c 0
 507.796716045 737.668905263 508.386758146 742.996360352 508.386758146 747.965286016 c 0
 508.386758146 778.057279053 486.746626086 795 448.982421875 795 c 0
 412.982421875 795 378.58203125 779 341.842773438 752 c 1
 316.620117188 798 l 1
 359.634765625 831 409.310546875 853 464.310546875 853 c 0
 537.661555245 853 578.570640384 819.489042312 578.570640384 764.034480054 c 0
 578.570640384 755.227651819 577.538867151 745.867381146 575.44140625 736 c 0
 560.987304688 668 512.91015625 630 414.268554688 547 c 2
 328.176757812 476 l 1
 533.176757812 476 l 1
 520.423828125 416 l 1
 232.423828125 416 l 1
EndSplineSet
EndChar

StartChar: uni00B3
Encoding: 179 179 117
Width: 563
Flags: HW
LayerCount: 2
Fore
SplineSet
348.72265625 408 m 0
 306.72265625 408 271.423828125 416 238.25 434 c 1
 251.853515625 498 l 1
 287.389648438 477 324.051757812 466 363.051757812 466 c 0
 424.051757812 466 458.002929688 494 467.35546875 538 c 0
 468.62966435 543.994378076 469.259530776 549.59886283 469.259530776 554.817349542 c 0
 469.259530776 591.385910467 438.329878648 609 381.447265625 609 c 2
 333.447265625 609 l 1
 345.137695312 664 l 1
 393.137695312 664 l 2
 453.137695312 664 488.301757812 693 497.229492188 735 c 0
 498.420701566 740.604403418 498.998428148 745.816190116 498.998428148 750.635360092 c 0
 498.998428148 780.211786697 477.237908371 795 441.982421875 795 c 0
 409.982421875 795 377.006835938 781 341.118164062 758 c 1
 316.895507812 804 l 1
 361.484375 835 404.310546875 853 458.310546875 853 c 0
 531.769847819 853 570.608973711 820.13690915 570.608973711 767.96583261 c 0
 570.608973711 759.769583993 569.650367812 751.096786315 567.716796875 742 c 0
 556.876953125 691 521.4375 656 480.249023438 641 c 1
 479.611328125 638 l 1
 517.814504725 628.130337355 539.857950227 602.702094592 539.857950227 562.828010387 c 0
 539.857950227 554.221307796 538.83094743 544.941574322 536.717773438 535 c 0
 520.350585938 458 452.72265625 408 348.72265625 408 c 0
EndSplineSet
EndChar

StartChar: acute
Encoding: 180 180 118
Width: 563
Flags: HW
LayerCount: 2
Fore
SplineSet
366.360351562 618 m 1
 408.5 661 459.252929688 721 490.818359375 766 c 1
 593.818359375 766 l 1
 591.692382812 756 l 1
 558.615234375 718 472.4609375 642 419.809570312 606 c 1
 363.809570312 606 l 1
 366.360351562 618 l 1
EndSplineSet
EndChar

StartChar: uni00B5
Encoding: 181 181 119
Width: 563
GlyphClass: 2
Flags: HW
AnchorPoint: "Anchor-2" 656.931 536 basechar 0
AnchorPoint: "Anchor-1" 395.931 536 basechar 0
AnchorPoint: "Anchor-0" 282 0 basechar 0
LayerCount: 2
Fore
SplineSet
240.874023438 -10 m 0
 206.874023438 -10 177.9375 -5 156.275390625 6 c 1
 103.986328125 -240 l 1
 16.986328125 -240 l 1
 181.930664062 536 l 1
 268.930664062 536 l 1
 195.810546875 192 l 2
 191.737630993 172.837888504 189.630864825 155.947224972 189.630864825 141.2381833 c 0
 189.630864825 87.6298733525 217.614994884 63 280.390625 63 c 0
 380.390625 63 432.6953125 135 459.051757812 259 c 2
 517.930664062 536 l 1
 604.930664062 536 l 1
 491 0 l 1
 420 0 l 1
 422.303710938 72 l 1
 417.303710938 72 l 1
 370.763671875 13 311.874023438 -10 240.874023438 -10 c 0
EndSplineSet
EndChar

StartChar: paragraph
Encoding: 182 182 120
Width: 563
Flags: HW
LayerCount: 2
Fore
SplineSet
342.028320312 273 m 1
 322.752929688 267 297.115234375 264 274.115234375 264 c 0
 195.018100943 264 149.338141246 304.690790808 149.338141246 403.281313832 c 0
 149.338141246 433.075011965 153.509756025 468.156266835 162.19140625 509 c 0
 200.876953125 691 283.54296875 760 397.54296875 760 c 2
 649.54296875 760 l 1
 461.004882812 -127 l 1
 403.004882812 -127 l 1
 579.639648438 704 l 1
 491.639648438 704 l 1
 315.004882812 -127 l 1
 257.004882812 -127 l 1
 342.028320312 273 l 1
EndSplineSet
EndChar

StartChar: periodcentered
Encoding: 183 183 121
Width: 563
Flags: HW
LayerCount: 2
Fore
SplineSet
338.602539062 271 m 0
 310.275777977 271 290.600465211 285.576568568 290.600465211 317.621211134 c 0
 290.600465211 324.039061473 291.389670436 331.1575815 293.056640625 339 c 0
 303.259765625 387 333.297851562 406 367.297851562 406 c 0
 395.716091056 406 416.571028873 393.424970548 416.571028873 360.683927033 c 0
 416.571028873 354.253104192 415.766471616 347.044301906 414.056640625 339 c 0
 404.06640625 292 372.602539062 271 338.602539062 271 c 0
EndSplineSet
EndChar

StartChar: cedilla
Encoding: 184 184 122
Width: 563
Flags: HW
LayerCount: 2
Fore
SplineSet
185.986328125 -240 m 0
 165.986328125 -240 147.411132812 -238 136.048828125 -235 c 1
 147.740234375 -180 l 1
 159.102539062 -183 178.676757812 -185 195.676757812 -185 c 0
 240.676757812 -185 268.65234375 -171 275.2421875 -140 c 0
 275.999366052 -136.437577234 276.371887769 -133.083741201 276.371887769 -129.924688666 c 0
 276.371887769 -102.933533538 249.177402595 -90.1617828786 202.357421875 -83 c 1
 259.637695312 3 l 1
 314.637695312 3 l 1
 277.947265625 -52 l 1
 319.648795809 -61.4265710614 347.414276938 -81.1344924342 347.414276938 -119.93448042 c 0
 347.414276938 -126.410750902 346.640720546 -133.418933296 345.029296875 -141 c 0
 331.850585938 -203 275.986328125 -240 185.986328125 -240 c 0
EndSplineSet
EndChar

StartChar: uni00B9
Encoding: 185 185 123
Width: 563
Flags: HW
LayerCount: 2
Fore
SplineSet
253.423828125 416 m 1
 263.838867188 465 l 1
 364.114257812 471 l 1
 410.026367188 687 l 2
 416.828125 719 423.354492188 745 431.518554688 774 c 1
 418.180664062 763 403.267578125 754 388.354492188 745 c 2
 321.490234375 708 l 1
 298.54296875 760 l 1
 446.397460938 844 l 1
 508.397460938 844 l 1
 428.901367188 470 l 1
 528.838867188 465 l 1
 518.423828125 416 l 1
 253.423828125 416 l 1
EndSplineSet
EndChar

StartChar: ordmasculine
Encoding: 186 186 124
Width: 563
GlyphClass: 2
Flags: HW
AnchorPoint: "Anchor-1" 435.466 722 basechar 0
AnchorPoint: "Anchor-0" 362.622 384 basechar 0
LayerCount: 2
Fore
SplineSet
364.409179688 383 m 0
 292.966593581 383 252.997795147 422.545788555 252.997795147 496.286506946 c 0
 252.997795147 513.376532123 255.144596049 532.303232633 259.543945312 553 c 0
 282.5 661 349.465820312 722 438.465820312 722 c 0
 508.442289245 722 549.07021779 683.599653887 549.07021779 609.492546894 c 0
 549.07021779 592.52316348 546.939935849 573.681534285 542.543945312 553 c 0
 518.950195312 442 453.409179688 383 364.409179688 383 c 0
376.674804688 436 m 0
 431.674804688 436 462.751953125 474 479.543945312 553 c 0
 483.809572142 573.068926594 485.976333997 590.368865713 485.976333997 605.026114189 c 0
 485.976333997 648.796498728 466.653669861 669 426.200195312 669 c 0
 372.200195312 669 339.698242188 629 323.543945312 553 c 0
 319.243717236 532.769046205 317.023382718 515.226916501 317.023382718 500.323227304 c 0
 317.023382718 457.029391138 335.759645937 436 376.674804688 436 c 0
EndSplineSet
EndChar

StartChar: guillemotright
Encoding: 187 187 125
Width: 563
Flags: HW
LayerCount: 2
Fore
SplineSet
234.5390625 473 m 1
 352.815429688 272 l 1
 350.051757812 259 l 1
 146.116210938 57 l 1
 96.98046875 94 l 1
 258.327148438 265 l 1
 169.674804688 436 l 1
 234.5390625 473 l 1
428.327148438 472 m 1
 544.815429688 272 l 1
 542.051757812 259 l 1
 340.116210938 57 l 1
 290.405273438 96 l 1
 451.327148438 265 l 1
 363.674804688 436 l 1
 428.327148438 472 l 1
EndSplineSet
EndChar

StartChar: onequarter
Encoding: 188 188 126
Width: 563
Flags: HW
LayerCount: 2
Fore
SplineSet
75 0 m 1
 576.765625 714 l 1
 650.765625 714 l 1
 149 0 l 1
 75 0 l 1
108.0078125 367 m 1
 118.848632812 418 l 1
 192.124023438 424 l 1
 221.45703125 562 l 2
 228.68359375 596 234.572265625 619 241.524414062 647 c 1
 227.973632812 635 211.635742188 624 194.72265625 615 c 2
 164.321289062 599 l 1
 143.224609375 655 l 1
 253.765625 714 l 1
 315.765625 714 l 1
 254.124023438 424 l 1
 328.848632812 418 l 1
 318.0078125 367 l 1
 108.0078125 367 l 1
429 0 m 1
 445.579101562 78 l 1
 297.579101562 78 l 1
 308.6328125 130 l 1
 500.182617188 349 l 1
 564.182617188 349 l 1
 518.482421875 134 l 1
 566.482421875 134 l 1
 554.579101562 78 l 1
 506.579101562 78 l 1
 490 0 l 1
 429 0 l 1
375.482421875 134 m 1
 457.482421875 134 l 1
 473.211914062 208 l 2
 478.73828125 234 482.501953125 247 488.815429688 272 c 1
 481.051757812 259 466.438476562 242 453.038085938 226 c 2
 375.482421875 134 l 1
EndSplineSet
EndChar

StartChar: onehalf
Encoding: 189 189 127
Width: 563
Flags: HW
LayerCount: 2
Fore
SplineSet
75 0 m 1
 576.765625 714 l 1
 650.765625 714 l 1
 149 0 l 1
 75 0 l 1
108.0078125 367 m 1
 118.848632812 418 l 1
 192.124023438 424 l 1
 221.45703125 562 l 2
 228.68359375 596 234.572265625 619 241.524414062 647 c 1
 227.973632812 635 211.635742188 624 194.72265625 615 c 2
 164.321289062 599 l 1
 143.224609375 655 l 1
 253.765625 714 l 1
 315.765625 714 l 1
 254.124023438 424 l 1
 328.848632812 418 l 1
 318.0078125 367 l 1
 108.0078125 367 l 1
312 0 m 1
 323.478515625 54 l 1
 423.333007812 138 l 2
 493.874023438 197 511.487304688 214 518.713867188 248 c 0
 519.793354404 253.07862701 520.313959567 257.779434894 520.313959567 262.094428643 c 0
 520.313959567 284.967846189 505.685107616 297 482.12890625 297 c 0
 455.12890625 297 432.153320312 283 403.90234375 263 c 1
 380.6796875 309 l 1
 415.418945312 336 453.458007812 355 496.458007812 355 c 0
 555.15804843 355 587.593775301 326.774396981 587.593775301 278.942966719 c 0
 587.593775301 270.550097077 586.595114841 261.553585514 584.564453125 252 c 0
 573.51171875 200 537.709960938 168 467.59375 111 c 2
 407.178710938 62 l 1
 552.178710938 62 l 1
 539 0 l 1
 312 0 l 1
EndSplineSet
EndChar

StartChar: threequarters
Encoding: 190 190 128
Width: 563
Flags: HW
LayerCount: 2
Fore
SplineSet
189.733398438 361 m 0
 157.733398438 361 130.795898438 366 106.771484375 380 c 1
 120.162109375 443 l 1
 148.76171875 427 175.848632812 418 203.848632812 418 c 0
 247.848632812 418 271.3125 439 278.114257812 471 c 0
 278.988246174 475.111997134 279.416661518 478.916832565 279.416661518 482.428658091 c 0
 279.416661518 507.954320676 256.783084132 518 218.104492188 518 c 2
 174.104492188 518 l 1
 185.794921875 573 l 1
 229.794921875 573 l 2
 271.794921875 573 295.833007812 592 302.209960938 622 c 0
 303.153198659 626.43740625 303.606329955 630.524757848 303.606329955 634.26852702 c 0
 303.606329955 655.835281346 288.568834375 666 265.5625 666 c 0
 241.5625 666 216.01171875 654 188.3984375 637 c 1
 164.17578125 683 l 1
 201.27734375 707 234.678710938 723 279.678710938 723 c 0
 342.343730203 723 373.845501092 694.261159515 373.845501092 650.067398407 c 0
 373.845501092 642.778775903 372.988652758 635.069779478 371.2734375 627 c 0
 362.55859375 586 336.03125 560 308.331054688 552 c 1
 307.693359375 549 l 1
 334.632512817 540.196906749 348.778302115 522.427513406 348.778302115 494.154199664 c 0
 348.778302115 487.098289656 347.897294167 479.388189405 346.114257812 471 c 0
 332.297851562 406 281.733398438 361 189.733398438 361 c 0
75 0 m 1
 576.765625 714 l 1
 650.765625 714 l 1
 149 0 l 1
 75 0 l 1
428 0 m 1
 444.579101562 78 l 1
 297.579101562 78 l 1
 308.6328125 130 l 1
 499.182617188 349 l 1
 564.182617188 349 l 1
 518.482421875 134 l 1
 566.482421875 134 l 1
 554.579101562 78 l 1
 506.579101562 78 l 1
 490 0 l 1
 428 0 l 1
375.482421875 134 m 1
 456.482421875 134 l 1
 472.211914062 208 l 2
 477.73828125 234 482.501953125 247 487.815429688 272 c 1
 480.051757812 259 466.438476562 242 453.038085938 226 c 2
 375.482421875 134 l 1
EndSplineSet
EndChar

StartChar: questiondown
Encoding: 191 191 129
Width: 563
Flags: HW
LayerCount: 2
Fore
SplineSet
407.780273438 540 m 0
 436.957676973 540 456.778287674 525.405927821 456.778287674 493.321068272 c 0
 456.778287674 486.918264488 455.988960358 479.818915252 454.327148438 472 c 0
 444.124023438 424 414.084960938 405 379.084960938 405 c 0
 350.827266352 405 330.738400789 417.433349013 330.738400789 449.763104439 c 0
 330.738400789 456.332901881 331.567973646 463.72432455 333.327148438 472 c 0
 343.31640625 519 374.780273438 540 407.780273438 540 c 0
399.041992188 306 m 2
 383.313476562 232 353.385742188 190 273.907226562 136 c 0
 196.4296875 82 165.627929688 50 151.173828125 -18 c 0
 149.3689784 -26.49145931 148.470446973 -34.5823359467 148.470446973 -42.2159377187 c 0
 148.470446973 -88.5207803999 181.532292888 -118 245.91796875 -118 c 0
 308.91796875 -118 359.744140625 -100 413.845703125 -76 c 1
 430.541992188 -148 l 1
 373.015625 -174 310.551757812 -195 231.551757812 -195 c 0
 122.058549878 -195 61.6445071763 -145.941885391 61.6445071763 -63.8466844001 c 0
 61.6445071763 -50.7205404093 63.1889672489 -36.7498169374 66.32421875 -22 c 0
 85.87890625 70 130.444335938 115 215.41015625 176 c 0
 297.525390625 233 314.83984375 258 326.955078125 315 c 2
 329.505859375 327 l 1
 403.505859375 327 l 1
 399.041992188 306 l 2
EndSplineSet
Substitution2: "'smcp' Lowercase to Small Capitals lookup 35 subtable" questiondown.sc
Substitution2: "'c2sc' Capitals to Small Capitals lookup 34 subtable" questiondown.sc
Substitution2: "'aalt' Access All Alternates lookup 0 subtable" questiondown.sc
EndChar

StartChar: Agrave
Encoding: 192 192 130
Width: 563
GlyphClass: 2
Flags: HW
AnchorPoint: "Anchor-2" 694.766 714 basechar 0
AnchorPoint: "Anchor-1" 482.653 944 basechar 0
AnchorPoint: "Anchor-0" 282 0 basechar 0
LayerCount: 2
Fore
SplineSet
462.64453125 784 m 1
 427.083984375 819 371.23828125 895 355.52734375 934 c 1
 357.653320312 944 l 1
 459.653320312 944 l 1
 472.087890625 899 500.059570312 833 522.1953125 796 c 1
 519.64453125 784 l 1
 462.64453125 784 l 1
20 0 m 1
 383.190429688 716 l 1
 483.190429688 716 l 1
 543 0 l 1
 454 0 l 1
 439.1875 222 l 1
 218.1875 222 l 1
 109 0 l 1
 20 0 l 1
364.7421875 521 m 2
 255.766601562 300 l 1
 433.766601562 300 l 1
 418.7421875 521 l 2
 416.693359375 549 414.258789062 594 414.123046875 631 c 1
 399.258789062 594 377.481445312 548 364.7421875 521 c 2
EndSplineSet
Substitution2: "'c2sc' Capitals to Small Capitals lookup 34 subtable" agrave.sc
Substitution2: "'aalt' Access All Alternates lookup 0 subtable" agrave.sc
EndChar

StartChar: Aacute
Encoding: 193 193 131
Width: 563
GlyphClass: 2
Flags: HW
AnchorPoint: "Anchor-2" 694.766 714 basechar 0
AnchorPoint: "Anchor-1" 482.653 944 basechar 0
AnchorPoint: "Anchor-0" 282 0 basechar 0
LayerCount: 2
Fore
SplineSet
405.1953125 796 m 1
 447.334960938 839 498.087890625 899 529.653320312 944 c 1
 632.653320312 944 l 1
 630.52734375 934 l 1
 597.450195312 896 511.295898438 820 458.64453125 784 c 1
 402.64453125 784 l 1
 405.1953125 796 l 1
20 0 m 1
 383.190429688 716 l 1
 483.190429688 716 l 1
 543 0 l 1
 454 0 l 1
 439.1875 222 l 1
 218.1875 222 l 1
 109 0 l 1
 20 0 l 1
364.7421875 521 m 2
 255.766601562 300 l 1
 433.766601562 300 l 1
 418.7421875 521 l 2
 416.693359375 549 414.258789062 594 414.123046875 631 c 1
 399.258789062 594 377.481445312 548 364.7421875 521 c 2
EndSplineSet
Substitution2: "'c2sc' Capitals to Small Capitals lookup 34 subtable" aacute.sc
Substitution2: "'aalt' Access All Alternates lookup 0 subtable" aacute.sc
EndChar

StartChar: Acircumflex
Encoding: 194 194 132
Width: 563
GlyphClass: 2
Flags: HW
AnchorPoint: "Anchor-2" 694.766 714 basechar 0
AnchorPoint: "Anchor-1" 482.653 944 basechar 0
AnchorPoint: "Anchor-0" 282 0 basechar 0
LayerCount: 2
Fore
SplineSet
295.982421875 795 m 1
 340.91015625 837 406.30078125 900 438.653320312 944 c 1
 523.653320312 944 l 1
 537.087890625 899 578.484375 835 605.982421875 795 c 1
 603.64453125 784 l 1
 547.64453125 784 l 1
 520.533203125 807 493.397460938 844 467.049804688 880 c 1
 425.397460938 844 383.3203125 806 347.64453125 784 c 1
 293.64453125 784 l 1
 295.982421875 795 l 1
20 0 m 1
 383.190429688 716 l 1
 483.190429688 716 l 1
 543 0 l 1
 454 0 l 1
 439.1875 222 l 1
 218.1875 222 l 1
 109 0 l 1
 20 0 l 1
364.7421875 521 m 2
 255.766601562 300 l 1
 433.766601562 300 l 1
 418.7421875 521 l 2
 416.693359375 549 414.258789062 594 414.123046875 631 c 1
 399.258789062 594 377.481445312 548 364.7421875 521 c 2
EndSplineSet
Substitution2: "'c2sc' Capitals to Small Capitals lookup 34 subtable" acircumflex.sc
Substitution2: "'aalt' Access All Alternates lookup 0 subtable" acircumflex.sc
EndChar

StartChar: Atilde
Encoding: 195 195 133
Width: 563
GlyphClass: 2
Flags: HW
AnchorPoint: "Anchor-2" 694.766 714 basechar 0
AnchorPoint: "Anchor-1" 475.852 912 basechar 0
AnchorPoint: "Anchor-0" 282 0 basechar 0
LayerCount: 2
Fore
SplineSet
279.856445312 785 m 1
 303.373046875 858 346.638671875 911 407.638671875 911 c 0
 460.638671875 911 493.5234375 854 533.5234375 854 c 0
 561.5234375 854 576.774414062 874 593.8515625 912 c 1
 643.8515625 912 l 1
 620.272460938 834 574.069335938 786 518.069335938 786 c 0
 465.069335938 786 432.185546875 843 392.185546875 843 c 0
 363.185546875 843 346.93359375 823 330.856445312 785 c 1
 279.856445312 785 l 1
20 0 m 1
 383.190429688 716 l 1
 483.190429688 716 l 1
 543 0 l 1
 454 0 l 1
 439.1875 222 l 1
 218.1875 222 l 1
 109 0 l 1
 20 0 l 1
364.7421875 521 m 2
 255.766601562 300 l 1
 433.766601562 300 l 1
 418.7421875 521 l 2
 416.693359375 549 414.258789062 594 414.123046875 631 c 1
 399.258789062 594 377.481445312 548 364.7421875 521 c 2
EndSplineSet
Substitution2: "'c2sc' Capitals to Small Capitals lookup 34 subtable" atilde.sc
Substitution2: "'aalt' Access All Alternates lookup 0 subtable" atilde.sc
EndChar

StartChar: Adieresis
Encoding: 196 196 134
Width: 563
GlyphClass: 2
Flags: HW
AnchorPoint: "Anchor-2" 694.766 714 basechar 0
AnchorPoint: "Anchor-1" 476.489 915 basechar 0
AnchorPoint: "Anchor-0" 282 0 basechar 0
LayerCount: 2
Fore
SplineSet
557.407226562 797 m 0
 533.070683438 797 515.099825717 810.38059369 515.099825717 838.914761446 c 0
 515.099825717 844.382582414 515.759708743 850.406836831 517.161132812 857 c 0
 525.875976562 898 553.489257812 915 582.489257812 915 c 0
 607.035832431 915 626.127872825 902.820352516 626.127872825 874.21606692 c 0
 626.127872825 869.026460896 625.499439928 863.296222091 624.161132812 857 c 0
 615.446289062 816 586.407226562 797 557.407226562 797 c 0
343.407226562 797 m 0
 319.070683438 797 301.099825717 810.38059369 301.099825717 838.914761446 c 0
 301.099825717 844.382582414 301.759708743 850.406836831 303.161132812 857 c 0
 311.875976562 898 339.489257812 915 368.489257812 915 c 0
 392.890312387 915 411.19333319 902.964334252 411.19333319 874.723062478 c 0
 411.19333319 869.400338936 410.543170426 863.501957326 409.161132812 857 c 0
 400.446289062 816 372.407226562 797 343.407226562 797 c 0
20 0 m 1
 383.190429688 716 l 1
 483.190429688 716 l 1
 543 0 l 1
 454 0 l 1
 439.1875 222 l 1
 218.1875 222 l 1
 109 0 l 1
 20 0 l 1
364.7421875 521 m 2
 255.766601562 300 l 1
 433.766601562 300 l 1
 418.7421875 521 l 2
 416.693359375 549 414.258789062 594 414.123046875 631 c 1
 399.258789062 594 377.481445312 548 364.7421875 521 c 2
EndSplineSet
Substitution2: "'c2sc' Capitals to Small Capitals lookup 34 subtable" adieresis.sc
Substitution2: "'aalt' Access All Alternates lookup 0 subtable" adieresis.sc
EndChar

StartChar: Aring
Encoding: 197 197 135
Width: 563
GlyphClass: 2
Flags: HW
AnchorPoint: "Anchor-2" 694.766 714 basechar 0
AnchorPoint: "Anchor-1" 492.856 992 basechar 0
AnchorPoint: "Anchor-0" 282 0 basechar 0
LayerCount: 2
Fore
SplineSet
447.856445312 785 m 0
 392.551541007 785 359.898643455 813.233530217 359.898643455 861.693140975 c 0
 359.898643455 870.188238644 360.902100152 879.304904305 362.962890625 889 c 0
 376.56640625 953 426.856445312 992 491.856445312 992 c 0
 545.583789759 992 581.821626351 962.713196121 581.821626351 913.900768262 c 0
 581.821626351 906.384885865 580.962491383 898.406085481 579.17578125 890 c 0
 565.359375 825 511.856445312 785 447.856445312 785 c 0
458.697265625 836 m 0
 490.697265625 836 516.948242188 856 523.962890625 889 c 0
 525.032034954 894.029726459 525.55405728 898.780685443 525.55405728 903.221010497 c 0
 525.55405728 927.913626959 509.410703229 943 481.440429688 943 c 0
 451.440429688 943 423.977539062 922 416.962890625 889 c 0
 415.9343356 884.161223527 415.438205382 879.601950132 415.438205382 875.344247809 c 0
 415.438205382 850.564821131 432.242782917 836 458.697265625 836 c 0
20 0 m 1
 383.190429688 716 l 1
 483.190429688 716 l 1
 543 0 l 1
 454 0 l 1
 439.1875 222 l 1
 218.1875 222 l 1
 109 0 l 1
 20 0 l 1
364.7421875 521 m 2
 255.766601562 300 l 1
 433.766601562 300 l 1
 418.7421875 521 l 2
 416.693359375 549 414.258789062 594 414.123046875 631 c 1
 399.258789062 594 377.481445312 548 364.7421875 521 c 2
EndSplineSet
Substitution2: "'c2sc' Capitals to Small Capitals lookup 34 subtable" aring.sc
Substitution2: "'aalt' Access All Alternates lookup 0 subtable" aring.sc
EndChar

StartChar: AE
Encoding: 198 198 136
Width: 563
GlyphClass: 2
Flags: HW
AnchorPoint: "Anchor-1" 464.766 714 basechar 0
AnchorPoint: "Anchor-0" 282 0 basechar 0
LayerCount: 2
Fore
SplineSet
20 0 m 1
 326.765625 714 l 1
 669.765625 714 l 1
 652.760742188 634 l 1
 481.760742188 634 l 1
 434.786132812 413 l 1
 588.786132812 413 l 1
 571.78125 333 l 1
 417.78125 333 l 1
 364.004882812 80 l 1
 535.004882812 80 l 1
 518 0 l 1
 264 0 l 1
 311.1875 222 l 1
 197.1875 222 l 1
 104 0 l 1
 20 0 l 1
369.760742188 634 m 1
 229.5546875 299 l 1
 327.5546875 299 l 1
 398.760742188 634 l 1
 369.760742188 634 l 1
EndSplineSet
Substitution2: "'c2sc' Capitals to Small Capitals lookup 34 subtable" ae.sc
Substitution2: "'aalt' Access All Alternates lookup 0 subtable" ae.sc
EndChar

StartChar: Ccedilla
Encoding: 199 199 137
Width: 563
GlyphClass: 2
Flags: HW
AnchorPoint: "Anchor-2" 694.766 714 basechar 0
AnchorPoint: "Anchor-1" 491.766 714 basechar 0
AnchorPoint: "Anchor-0" 257.986 -240 basechar 0
LayerCount: 2
Fore
SplineSet
229.986328125 -240 m 0
 209.986328125 -240 191.411132812 -238 180.048828125 -235 c 1
 191.740234375 -180 l 1
 203.102539062 -183 222.676757812 -185 239.676757812 -185 c 0
 284.676757812 -185 312.65234375 -171 319.2421875 -140 c 0
 319.999366052 -136.437577234 320.371887769 -133.083741201 320.371887769 -129.924688666 c 0
 320.371887769 -102.933533538 293.177402595 -90.1617828786 246.357421875 -83 c 1
 297.51171875 -7 l 1
 173.859335829 9.17517499547 116.954959075 96.5438972383 116.954959075 228.144850446 c 0
 116.954959075 267.39954598 122.017992886 310.589778528 131.8828125 357 c 0
 178.645507812 577 314.103515625 725 504.103515625 725 c 0
 569.103515625 725 623.915039062 710 668.388671875 684 c 1
 619.084960938 612 l 1
 584.760742188 634 536.524414062 647 487.524414062 647 c 0
 353.524414062 647 259.717773438 535 221.8828125 357 c 0
 212.962484091 315.033751662 208.328125498 276.833921721 208.328125498 242.973634837 c 0
 208.328125498 134.022233383 256.309646452 70 363.87890625 70 c 0
 410.87890625 70 463.004882812 80 515.04296875 99 c 1
 497.826171875 18 l 1
 446.787109375 -1 402.086914062 -9 349.874023438 -10 c 1
 321.947265625 -52 l 1
 363.648795809 -61.4265710614 391.414276938 -81.1344924342 391.414276938 -119.93448042 c 0
 391.414276938 -126.410750902 390.640720546 -133.418933296 389.029296875 -141 c 0
 375.850585938 -203 319.986328125 -240 229.986328125 -240 c 0
EndSplineSet
Substitution2: "'c2sc' Capitals to Small Capitals lookup 34 subtable" ccedilla.sc
Substitution2: "'aalt' Access All Alternates lookup 0 subtable" ccedilla.sc
EndChar

StartChar: Egrave
Encoding: 200 200 138
Width: 563
GlyphClass: 2
Flags: HW
AnchorPoint: "Anchor-2" 694.766 714 basechar 0
AnchorPoint: "Anchor-1" 482.653 944 basechar 0
AnchorPoint: "Anchor-0" 282 0 basechar 0
LayerCount: 2
Fore
SplineSet
466.64453125 784 m 1
 430.083984375 819 375.23828125 895 359.52734375 934 c 1
 361.653320312 944 l 1
 463.653320312 944 l 1
 475.087890625 899 503.059570312 833 525.1953125 796 c 1
 522.64453125 784 l 1
 466.64453125 784 l 1
84 0 m 1
 235.765625 714 l 1
 639.765625 714 l 1
 622.973632812 635 l 1
 306.973632812 635 l 1
 259.573242188 412 l 1
 556.573242188 412 l 1
 539.568359375 332 l 1
 242.568359375 332 l 1
 188.791992188 79 l 1
 504.791992188 79 l 1
 488 0 l 1
 84 0 l 1
EndSplineSet
Substitution2: "'c2sc' Capitals to Small Capitals lookup 34 subtable" egrave.sc
Substitution2: "'aalt' Access All Alternates lookup 0 subtable" egrave.sc
EndChar

StartChar: Eacute
Encoding: 201 201 139
Width: 563
GlyphClass: 2
Flags: HW
AnchorPoint: "Anchor-2" 694.766 714 basechar 0
AnchorPoint: "Anchor-1" 490.653 944 basechar 0
AnchorPoint: "Anchor-0" 282 0 basechar 0
LayerCount: 2
Fore
SplineSet
409.1953125 796 m 1
 450.334960938 839 501.087890625 899 533.653320312 944 c 1
 635.653320312 944 l 1
 633.52734375 934 l 1
 600.450195312 896 514.295898438 820 462.64453125 784 c 1
 406.64453125 784 l 1
 409.1953125 796 l 1
84 0 m 1
 235.765625 714 l 1
 639.765625 714 l 1
 622.973632812 635 l 1
 306.973632812 635 l 1
 259.573242188 412 l 1
 556.573242188 412 l 1
 539.568359375 332 l 1
 242.568359375 332 l 1
 188.791992188 79 l 1
 504.791992188 79 l 1
 488 0 l 1
 84 0 l 1
EndSplineSet
Substitution2: "'c2sc' Capitals to Small Capitals lookup 34 subtable" eacute.sc
Substitution2: "'aalt' Access All Alternates lookup 0 subtable" eacute.sc
EndChar

StartChar: Ecircumflex
Encoding: 202 202 140
Width: 563
GlyphClass: 2
Flags: HW
AnchorPoint: "Anchor-2" 694.766 714 basechar 0
AnchorPoint: "Anchor-1" 482.653 944 basechar 0
AnchorPoint: "Anchor-0" 282 0 basechar 0
LayerCount: 2
Fore
SplineSet
298.982421875 795 m 1
 344.91015625 837 409.30078125 900 442.653320312 944 c 1
 527.653320312 944 l 1
 541.087890625 899 581.484375 835 608.982421875 795 c 1
 606.64453125 784 l 1
 550.64453125 784 l 1
 523.533203125 807 497.397460938 844 471.049804688 880 c 1
 429.397460938 844 387.3203125 806 351.64453125 784 c 1
 296.64453125 784 l 1
 298.982421875 795 l 1
84 0 m 1
 235.765625 714 l 1
 639.765625 714 l 1
 622.973632812 635 l 1
 306.973632812 635 l 1
 259.573242188 412 l 1
 556.573242188 412 l 1
 539.568359375 332 l 1
 242.568359375 332 l 1
 188.791992188 79 l 1
 504.791992188 79 l 1
 488 0 l 1
 84 0 l 1
EndSplineSet
Substitution2: "'c2sc' Capitals to Small Capitals lookup 34 subtable" ecircumflex.sc
Substitution2: "'aalt' Access All Alternates lookup 0 subtable" ecircumflex.sc
EndChar

StartChar: Edieresis
Encoding: 203 203 141
Width: 563
GlyphClass: 2
Flags: HW
AnchorPoint: "Anchor-2" 694.766 714 basechar 0
AnchorPoint: "Anchor-1" 483.489 915 basechar 0
AnchorPoint: "Anchor-0" 282 0 basechar 0
LayerCount: 2
Fore
SplineSet
561.407226562 797 m 0
 537.070683438 797 519.099825717 810.38059369 519.099825717 838.914761446 c 0
 519.099825717 844.382582414 519.759708743 850.406836831 521.161132812 857 c 0
 529.875976562 898 557.489257812 915 586.489257812 915 c 0
 610.890312387 915 629.19333319 902.964334252 629.19333319 874.723062478 c 0
 629.19333319 869.400338936 628.543170426 863.501957326 627.161132812 857 c 0
 618.446289062 816 590.407226562 797 561.407226562 797 c 0
346.407226562 797 m 0
 322.228540353 797 305.028361816 810.207572496 305.028361816 838.361420307 c 0
 305.028361816 843.975395092 305.712270869 850.183659813 307.161132812 857 c 0
 315.875976562 898 342.489257812 915 371.489257812 915 c 0
 396.035832431 915 415.127872825 902.820352516 415.127872825 874.21606692 c 0
 415.127872825 869.026460896 414.499439928 863.296222091 413.161132812 857 c 0
 404.446289062 816 375.407226562 797 346.407226562 797 c 0
84 0 m 1
 235.765625 714 l 1
 639.765625 714 l 1
 622.973632812 635 l 1
 306.973632812 635 l 1
 259.573242188 412 l 1
 556.573242188 412 l 1
 539.568359375 332 l 1
 242.568359375 332 l 1
 188.791992188 79 l 1
 504.791992188 79 l 1
 488 0 l 1
 84 0 l 1
EndSplineSet
Substitution2: "'c2sc' Capitals to Small Capitals lookup 34 subtable" edieresis.sc
Substitution2: "'aalt' Access All Alternates lookup 0 subtable" edieresis.sc
EndChar

StartChar: Igrave
Encoding: 204 204 142
Width: 563
GlyphClass: 2
Flags: HW
AnchorPoint: "Anchor-2" 694.766 714 basechar 0
AnchorPoint: "Anchor-1" 482.653 944 basechar 0
AnchorPoint: "Anchor-0" 282 0 basechar 0
LayerCount: 2
Fore
SplineSet
462.64453125 784 m 1
 427.083984375 819 371.23828125 895 355.52734375 934 c 1
 357.653320312 944 l 1
 459.653320312 944 l 1
 472.087890625 899 500.059570312 833 522.1953125 796 c 1
 519.64453125 784 l 1
 462.64453125 784 l 1
97 0 m 1
 109.965820312 61 l 1
 252.516601562 73 l 1
 373.249023438 641 l 1
 235.799804688 653 l 1
 248.765625 714 l 1
 617.765625 714 l 1
 604.799804688 653 l 1
 460.249023438 641 l 1
 339.516601562 73 l 1
 478.965820312 61 l 1
 466 0 l 1
 97 0 l 1
EndSplineSet
Substitution2: "'c2sc' Capitals to Small Capitals lookup 34 subtable" igrave.sc
Substitution2: "'aalt' Access All Alternates lookup 0 subtable" igrave.sc
EndChar

StartChar: Iacute
Encoding: 205 205 143
Width: 563
GlyphClass: 2
Flags: HW
AnchorPoint: "Anchor-2" 694.766 714 basechar 0
AnchorPoint: "Anchor-1" 482.653 944 basechar 0
AnchorPoint: "Anchor-0" 282 0 basechar 0
LayerCount: 2
Fore
SplineSet
405.1953125 796 m 1
 447.334960938 839 498.087890625 899 529.653320312 944 c 1
 632.653320312 944 l 1
 630.52734375 934 l 1
 597.450195312 896 511.295898438 820 458.64453125 784 c 1
 402.64453125 784 l 1
 405.1953125 796 l 1
97 0 m 1
 109.965820312 61 l 1
 252.516601562 73 l 1
 373.249023438 641 l 1
 235.799804688 653 l 1
 248.765625 714 l 1
 617.765625 714 l 1
 604.799804688 653 l 1
 460.249023438 641 l 1
 339.516601562 73 l 1
 478.965820312 61 l 1
 466 0 l 1
 97 0 l 1
EndSplineSet
Substitution2: "'c2sc' Capitals to Small Capitals lookup 34 subtable" iacute.sc
Substitution2: "'aalt' Access All Alternates lookup 0 subtable" iacute.sc
EndChar

StartChar: Icircumflex
Encoding: 206 206 144
Width: 563
GlyphClass: 2
Flags: HW
AnchorPoint: "Anchor-2" 694.766 714 basechar 0
AnchorPoint: "Anchor-1" 482.653 944 basechar 0
AnchorPoint: "Anchor-0" 282 0 basechar 0
LayerCount: 2
Fore
SplineSet
295.982421875 795 m 1
 340.91015625 837 406.30078125 900 438.653320312 944 c 1
 523.653320312 944 l 1
 537.087890625 899 578.484375 835 605.982421875 795 c 1
 603.64453125 784 l 1
 547.64453125 784 l 1
 520.533203125 807 493.397460938 844 467.049804688 880 c 1
 425.397460938 844 383.3203125 806 347.64453125 784 c 1
 293.64453125 784 l 1
 295.982421875 795 l 1
97 0 m 1
 109.965820312 61 l 1
 252.516601562 73 l 1
 373.249023438 641 l 1
 235.799804688 653 l 1
 248.765625 714 l 1
 617.765625 714 l 1
 604.799804688 653 l 1
 460.249023438 641 l 1
 339.516601562 73 l 1
 478.965820312 61 l 1
 466 0 l 1
 97 0 l 1
EndSplineSet
Substitution2: "'c2sc' Capitals to Small Capitals lookup 34 subtable" icircumflex.sc
Substitution2: "'aalt' Access All Alternates lookup 0 subtable" icircumflex.sc
EndChar

StartChar: Idieresis
Encoding: 207 207 145
Width: 563
GlyphClass: 2
Flags: HW
AnchorPoint: "Anchor-2" 694.766 714 basechar 0
AnchorPoint: "Anchor-1" 476.489 915 basechar 0
AnchorPoint: "Anchor-0" 282 0 basechar 0
LayerCount: 2
Fore
SplineSet
557.407226562 797 m 0
 533.070683438 797 515.099825717 810.38059369 515.099825717 838.914761446 c 0
 515.099825717 844.382582414 515.759708743 850.406836831 517.161132812 857 c 0
 525.875976562 898 553.489257812 915 582.489257812 915 c 0
 607.035832431 915 626.127872825 902.820352516 626.127872825 874.21606692 c 0
 626.127872825 869.026460896 625.499439928 863.296222091 624.161132812 857 c 0
 615.446289062 816 586.407226562 797 557.407226562 797 c 0
343.407226562 797 m 0
 319.070683438 797 301.099825717 810.38059369 301.099825717 838.914761446 c 0
 301.099825717 844.382582414 301.759708743 850.406836831 303.161132812 857 c 0
 311.875976562 898 339.489257812 915 368.489257812 915 c 0
 392.890312387 915 411.19333319 902.964334252 411.19333319 874.723062478 c 0
 411.19333319 869.400338936 410.543170426 863.501957326 409.161132812 857 c 0
 400.446289062 816 372.407226562 797 343.407226562 797 c 0
97 0 m 1
 109.965820312 61 l 1
 252.516601562 73 l 1
 373.249023438 641 l 1
 235.799804688 653 l 1
 248.765625 714 l 1
 617.765625 714 l 1
 604.799804688 653 l 1
 460.249023438 641 l 1
 339.516601562 73 l 1
 478.965820312 61 l 1
 466 0 l 1
 97 0 l 1
EndSplineSet
Substitution2: "'c2sc' Capitals to Small Capitals lookup 34 subtable" idieresis.sc
Substitution2: "'aalt' Access All Alternates lookup 0 subtable" idieresis.sc
EndChar

StartChar: Eth
Encoding: 208 208 146
Width: 563
GlyphClass: 2
Flags: HW
AnchorPoint: "Anchor-3" 370.883 357 basechar 0
AnchorPoint: "Anchor-2" 724.766 714 basechar 0
AnchorPoint: "Anchor-1" 433.766 714 basechar 0
AnchorPoint: "Anchor-0" 282 0 basechar 0
LayerCount: 2
Fore
SplineSet
71 0 m 1
 139.018554688 320 l 1
 68.0185546875 320 l 1
 84.1728515625 396 l 1
 155.172851562 396 l 1
 222.765625 714 l 1
 401.765625 714 l 2
 544.676644348 714 627.113642251 634.220470894 627.113642251 482.156680975 c 0
 627.113642251 446.948508608 622.69430128 407.86527039 613.583007812 365 c 0
 562.357421875 124 426 0 232 0 c 2
 71 0 l 1
241.579101562 78 m 2
 392.579101562 78 483.197265625 175 523.158203125 363 c 0
 531.807431787 403.692070109 536.046280979 439.436713938 536.046280979 470.495023157 c 0
 536.046280979 585.217870929 478.211088578 636 371.185546875 636 c 2
 293.185546875 636 l 1
 242.172851562 396 l 1
 374.172851562 396 l 1
 358.018554688 320 l 1
 226.018554688 320 l 1
 174.579101562 78 l 1
 241.579101562 78 l 2
EndSplineSet
Substitution2: "'c2sc' Capitals to Small Capitals lookup 34 subtable" eth.sc
Substitution2: "'aalt' Access All Alternates lookup 0 subtable" eth.sc
EndChar

StartChar: Ntilde
Encoding: 209 209 147
Width: 563
GlyphClass: 2
Flags: HW
AnchorPoint: "Anchor-2" 714.766 714 basechar 0
AnchorPoint: "Anchor-1" 475.852 912 basechar 0
AnchorPoint: "Anchor-0" 282 0 basechar 0
LayerCount: 2
Fore
SplineSet
284.856445312 785 m 1
 308.373046875 858 351.638671875 911 412.638671875 911 c 0
 465.638671875 911 498.5234375 854 538.5234375 854 c 0
 566.5234375 854 581.774414062 874 598.8515625 912 c 1
 648.8515625 912 l 1
 625.272460938 834 579.069335938 786 523.069335938 786 c 0
 470.069335938 786 437.185546875 843 397.185546875 843 c 0
 368.185546875 843 351.93359375 823 335.856445312 785 c 1
 284.856445312 785 l 1
61 0 m 1
 212.765625 714 l 1
 330.765625 714 l 1
 447.743164062 107 l 1
 451.743164062 107 l 1
 459.072265625 165 468.100585938 231 484.254882812 307 c 2
 570.765625 714 l 1
 654.765625 714 l 1
 503 0 l 1
 393 0 l 1
 269.84765625 625 l 1
 264.84765625 625 l 1
 255.96875 555 247.302734375 486 231.573242188 412 c 2
 144 0 l 1
 61 0 l 1
EndSplineSet
Substitution2: "'c2sc' Capitals to Small Capitals lookup 34 subtable" ntilde.sc
Substitution2: "'aalt' Access All Alternates lookup 0 subtable" ntilde.sc
EndChar

StartChar: Ograve
Encoding: 210 210 148
Width: 563
GlyphClass: 2
Flags: HW
AnchorPoint: "Anchor-3" 357.883 357 basechar 0
AnchorPoint: "Anchor-2" 714.766 714 basechar 0
AnchorPoint: "Anchor-1" 482.653 944 basechar 0
AnchorPoint: "Anchor-0" 282 0 basechar 0
LayerCount: 2
Fore
SplineSet
462.64453125 784 m 1
 427.083984375 819 371.23828125 895 355.52734375 934 c 1
 357.653320312 944 l 1
 459.653320312 944 l 1
 472.087890625 899 500.059570312 833 522.1953125 796 c 1
 519.64453125 784 l 1
 462.64453125 784 l 1
278.874023438 -10 m 0
 148.893457334 -10 96.1173064325 75.5091223681 96.1173064325 206.781419055 c 0
 96.1173064325 252.248250445 102.448431951 303.204917601 114.095703125 358 c 0
 162.1328125 584 267.31640625 726 436.31640625 726 c 0
 565.757936232 726 619.890494128 640.346226681 619.890494128 507.575017003 c 0
 619.890494128 462.896073878 613.760550121 412.881575629 602.307617188 359 c 0
 556.395507812 143 453.874023438 -10 278.874023438 -10 c 0
297.454101562 68 m 0
 407.454101562 68 472.772460938 173 512.095703125 358 c 0
 523.992674246 413.971842478 530.305542698 462.620740558 530.305542698 503.254331586 c 0
 530.305542698 596.924240452 496.758323638 648 420.736328125 648 c 0
 307.736328125 648 241.993164062 541 203.095703125 358 c 0
 191.52857204 303.582207979 185.435242718 255.986872683 185.435242718 215.938308834 c 0
 185.435242718 120.572783383 219.986477227 68 297.454101562 68 c 0
EndSplineSet
Substitution2: "'c2sc' Capitals to Small Capitals lookup 34 subtable" ograve.sc
Substitution2: "'aalt' Access All Alternates lookup 0 subtable" ograve.sc
EndChar

StartChar: Oacute
Encoding: 211 211 149
Width: 563
GlyphClass: 2
Flags: HW
AnchorPoint: "Anchor-3" 357.883 357 basechar 0
AnchorPoint: "Anchor-2" 714.766 714 basechar 0
AnchorPoint: "Anchor-1" 482.653 944 basechar 0
AnchorPoint: "Anchor-0" 282 0 basechar 0
LayerCount: 2
Fore
SplineSet
405.1953125 796 m 1
 447.334960938 839 498.087890625 899 529.653320312 944 c 1
 632.653320312 944 l 1
 630.52734375 934 l 1
 597.450195312 896 511.295898438 820 458.64453125 784 c 1
 402.64453125 784 l 1
 405.1953125 796 l 1
278.874023438 -10 m 0
 148.893457334 -10 96.1173064325 75.5091223681 96.1173064325 206.781419055 c 0
 96.1173064325 252.248250445 102.448431951 303.204917601 114.095703125 358 c 0
 162.1328125 584 267.31640625 726 436.31640625 726 c 0
 565.757936232 726 619.890494128 640.346226681 619.890494128 507.575017003 c 0
 619.890494128 462.896073878 613.760550121 412.881575629 602.307617188 359 c 0
 556.395507812 143 453.874023438 -10 278.874023438 -10 c 0
297.454101562 68 m 0
 407.454101562 68 472.772460938 173 512.095703125 358 c 0
 523.992674246 413.971842478 530.305542698 462.620740558 530.305542698 503.254331586 c 0
 530.305542698 596.924240452 496.758323638 648 420.736328125 648 c 0
 307.736328125 648 241.993164062 541 203.095703125 358 c 0
 191.52857204 303.582207979 185.435242718 255.986872683 185.435242718 215.938308834 c 0
 185.435242718 120.572783383 219.986477227 68 297.454101562 68 c 0
EndSplineSet
Substitution2: "'c2sc' Capitals to Small Capitals lookup 34 subtable" oacute.sc
Substitution2: "'aalt' Access All Alternates lookup 0 subtable" oacute.sc
EndChar

StartChar: Ocircumflex
Encoding: 212 212 150
Width: 563
GlyphClass: 2
Flags: HW
AnchorPoint: "Anchor-3" 357.883 357 basechar 0
AnchorPoint: "Anchor-2" 714.766 714 basechar 0
AnchorPoint: "Anchor-1" 482.653 944 basechar 0
AnchorPoint: "Anchor-0" 282 0 basechar 0
LayerCount: 2
Fore
SplineSet
295.982421875 795 m 1
 340.91015625 837 406.30078125 900 438.653320312 944 c 1
 523.653320312 944 l 1
 537.087890625 899 578.484375 835 605.982421875 795 c 1
 603.64453125 784 l 1
 547.64453125 784 l 1
 520.533203125 807 493.397460938 844 467.049804688 880 c 1
 425.397460938 844 383.3203125 806 347.64453125 784 c 1
 293.64453125 784 l 1
 295.982421875 795 l 1
278.874023438 -10 m 0
 148.893457334 -10 96.1173064325 75.5091223681 96.1173064325 206.781419055 c 0
 96.1173064325 252.248250445 102.448431951 303.204917601 114.095703125 358 c 0
 162.1328125 584 267.31640625 726 436.31640625 726 c 0
 565.757936232 726 619.890494128 640.346226681 619.890494128 507.575017003 c 0
 619.890494128 462.896073878 613.760550121 412.881575629 602.307617188 359 c 0
 556.395507812 143 453.874023438 -10 278.874023438 -10 c 0
297.454101562 68 m 0
 407.454101562 68 472.772460938 173 512.095703125 358 c 0
 523.992674246 413.971842478 530.305542698 462.620740558 530.305542698 503.254331586 c 0
 530.305542698 596.924240452 496.758323638 648 420.736328125 648 c 0
 307.736328125 648 241.993164062 541 203.095703125 358 c 0
 191.52857204 303.582207979 185.435242718 255.986872683 185.435242718 215.938308834 c 0
 185.435242718 120.572783383 219.986477227 68 297.454101562 68 c 0
EndSplineSet
Substitution2: "'c2sc' Capitals to Small Capitals lookup 34 subtable" ocircumflex.sc
Substitution2: "'aalt' Access All Alternates lookup 0 subtable" ocircumflex.sc
EndChar

StartChar: Otilde
Encoding: 213 213 151
Width: 563
GlyphClass: 2
Flags: HW
AnchorPoint: "Anchor-3" 357.883 357 basechar 0
AnchorPoint: "Anchor-2" 714.766 714 basechar 0
AnchorPoint: "Anchor-1" 475.852 912 basechar 0
AnchorPoint: "Anchor-0" 282 0 basechar 0
LayerCount: 2
Fore
SplineSet
279.856445312 785 m 1
 303.373046875 858 346.638671875 911 407.638671875 911 c 0
 460.638671875 911 493.5234375 854 533.5234375 854 c 0
 561.5234375 854 576.774414062 874 593.8515625 912 c 1
 643.8515625 912 l 1
 620.272460938 834 574.069335938 786 518.069335938 786 c 0
 465.069335938 786 432.185546875 843 392.185546875 843 c 0
 363.185546875 843 346.93359375 823 330.856445312 785 c 1
 279.856445312 785 l 1
278.874023438 -10 m 0
 148.893457334 -10 96.1173064325 75.5091223681 96.1173064325 206.781419055 c 0
 96.1173064325 252.248250445 102.448431951 303.204917601 114.095703125 358 c 0
 162.1328125 584 267.31640625 726 436.31640625 726 c 0
 565.757936232 726 619.890494128 640.346226681 619.890494128 507.575017003 c 0
 619.890494128 462.896073878 613.760550121 412.881575629 602.307617188 359 c 0
 556.395507812 143 453.874023438 -10 278.874023438 -10 c 0
297.454101562 68 m 0
 407.454101562 68 472.772460938 173 512.095703125 358 c 0
 523.992674246 413.971842478 530.305542698 462.620740558 530.305542698 503.254331586 c 0
 530.305542698 596.924240452 496.758323638 648 420.736328125 648 c 0
 307.736328125 648 241.993164062 541 203.095703125 358 c 0
 191.52857204 303.582207979 185.435242718 255.986872683 185.435242718 215.938308834 c 0
 185.435242718 120.572783383 219.986477227 68 297.454101562 68 c 0
EndSplineSet
Substitution2: "'c2sc' Capitals to Small Capitals lookup 34 subtable" otilde.sc
Substitution2: "'aalt' Access All Alternates lookup 0 subtable" otilde.sc
EndChar

StartChar: Odieresis
Encoding: 214 214 152
Width: 563
GlyphClass: 2
Flags: HW
AnchorPoint: "Anchor-3" 357.883 357 basechar 0
AnchorPoint: "Anchor-2" 714.766 714 basechar 0
AnchorPoint: "Anchor-1" 476.489 915 basechar 0
AnchorPoint: "Anchor-0" 282 0 basechar 0
LayerCount: 2
Fore
SplineSet
557.407226562 797 m 0
 533.070683438 797 515.099825717 810.38059369 515.099825717 838.914761446 c 0
 515.099825717 844.382582414 515.759708743 850.406836831 517.161132812 857 c 0
 525.875976562 898 553.489257812 915 582.489257812 915 c 0
 607.035832431 915 626.127872825 902.820352516 626.127872825 874.21606692 c 0
 626.127872825 869.026460896 625.499439928 863.296222091 624.161132812 857 c 0
 615.446289062 816 586.407226562 797 557.407226562 797 c 0
343.407226562 797 m 0
 319.070683438 797 301.099825717 810.38059369 301.099825717 838.914761446 c 0
 301.099825717 844.382582414 301.759708743 850.406836831 303.161132812 857 c 0
 311.875976562 898 339.489257812 915 368.489257812 915 c 0
 392.890312387 915 411.19333319 902.964334252 411.19333319 874.723062478 c 0
 411.19333319 869.400338936 410.543170426 863.501957326 409.161132812 857 c 0
 400.446289062 816 372.407226562 797 343.407226562 797 c 0
278.874023438 -10 m 0
 148.893457334 -10 96.1173064325 75.5091223681 96.1173064325 206.781419055 c 0
 96.1173064325 252.248250445 102.448431951 303.204917601 114.095703125 358 c 0
 162.1328125 584 267.31640625 726 436.31640625 726 c 0
 565.757936232 726 619.890494128 640.346226681 619.890494128 507.575017003 c 0
 619.890494128 462.896073878 613.760550121 412.881575629 602.307617188 359 c 0
 556.395507812 143 453.874023438 -10 278.874023438 -10 c 0
297.454101562 68 m 0
 407.454101562 68 472.772460938 173 512.095703125 358 c 0
 523.992674246 413.971842478 530.305542698 462.620740558 530.305542698 503.254331586 c 0
 530.305542698 596.924240452 496.758323638 648 420.736328125 648 c 0
 307.736328125 648 241.993164062 541 203.095703125 358 c 0
 191.52857204 303.582207979 185.435242718 255.986872683 185.435242718 215.938308834 c 0
 185.435242718 120.572783383 219.986477227 68 297.454101562 68 c 0
EndSplineSet
Substitution2: "'c2sc' Capitals to Small Capitals lookup 34 subtable" odieresis.sc
Substitution2: "'aalt' Access All Alternates lookup 0 subtable" odieresis.sc
EndChar

StartChar: multiply
Encoding: 215 215 153
Width: 563
Flags: HW
LayerCount: 2
Fore
SplineSet
159.883789062 150 m 1
 121.0859375 198 l 1
 307.032226562 353 l 1
 185.766601562 507 l 1
 245.181640625 556 l 1
 366.235351562 401 l 1
 555.393554688 557 l 1
 594.19140625 509 l 1
 406.032226562 353 l 1
 526.0859375 198 l 1
 467.883789062 150 l 1
 345.404296875 303 l 1
 159.883789062 150 l 1
EndSplineSet
EndChar

StartChar: Oslash
Encoding: 216 216 154
Width: 563
GlyphClass: 2
Flags: HW
AnchorPoint: "Anchor-3" 357.883 357 basechar 0
AnchorPoint: "Anchor-2" 714.766 714 basechar 0
AnchorPoint: "Anchor-1" 433.766 714 basechar 0
AnchorPoint: "Anchor-0" 282 0 basechar 0
LayerCount: 2
Fore
SplineSet
85.7099609375 -39 m 1
 30.9375 -5 l 1
 112.830078125 98 l 1
 101.307406351 128.970321162 95.9854483849 165.616149975 95.9854483849 206.855810778 c 0
 95.9854483849 252.169270885 102.410782605 303.028980339 114.095703125 358 c 0
 162.1328125 584 267.31640625 726 436.31640625 726 c 0
 496.31640625 726 540.27734375 707 570.262695312 674 c 1
 630.205078125 749 l 1
 683.977539062 715 l 1
 603.72265625 615 l 1
 614.42245358 583.648595251 619.564753082 546.946434683 619.564753082 505.791197019 c 0
 619.564753082 461.620419165 613.641268884 412.320081705 602.307617188 359 c 0
 556.395507812 143 453.874023438 -10 278.874023438 -10 c 0
 219.874023438 -10 176.700195312 8 147.290039062 39 c 1
 85.7099609375 -39 l 1
203.095703125 358 m 0
 191.678510603 304.288490921 185.643054248 257.199861106 185.643054248 217.273087586 c 0
 185.643054248 208.138363905 185.958970895 199.378516537 186.598632812 191 c 1
 511.534179688 600 l 1
 493.123046875 631 463.736328125 648 420.736328125 648 c 0
 307.736328125 648 241.993164062 541 203.095703125 358 c 0
297.454101562 68 m 0
 407.454101562 68 472.772460938 173 512.095703125 358 c 0
 523.918620546 413.625460067 530.523522197 461.927389228 530.523522197 502.279057058 c 0
 530.523522197 509.079509963 530.335928151 515.654157584 529.954101562 522 c 1
 207.231445312 114 l 1
 224.854492188 84 254.454101562 68 297.454101562 68 c 0
EndSplineSet
Substitution2: "'c2sc' Capitals to Small Capitals lookup 34 subtable" oslash.sc
Substitution2: "'aalt' Access All Alternates lookup 0 subtable" oslash.sc
EndChar

StartChar: Ugrave
Encoding: 217 217 155
Width: 563
GlyphClass: 2
Flags: HW
AnchorPoint: "Anchor-2" 694.766 714 basechar 0
AnchorPoint: "Anchor-1" 482.653 944 basechar 0
AnchorPoint: "Anchor-0" 282 0 basechar 0
LayerCount: 2
Fore
SplineSet
462.64453125 784 m 1
 427.083984375 819 371.23828125 895 355.52734375 934 c 1
 357.653320312 944 l 1
 459.653320312 944 l 1
 472.087890625 899 500.059570312 833 522.1953125 796 c 1
 519.64453125 784 l 1
 462.64453125 784 l 1
278.874023438 -10 m 0
 155.620677503 -10 101.775723904 48.8053701319 101.775723904 152.337522704 c 0
 101.775723904 179.004542633 105.347987441 208.638894566 112.2265625 241 c 2
 212.765625 714 l 1
 300.765625 714 l 1
 201.076171875 245 l 2
 195.346982526 218.045523729 192.281473799 193.813269889 192.281473799 172.554144529 c 0
 192.281473799 105.478330031 222.798603333 68 296.454101562 68 c 0
 398.454101562 68 444.333007812 138 467.2890625 246 c 2
 566.765625 714 l 1
 654.765625 714 l 1
 554.013671875 240 l 2
 521.705078125 88 436.874023438 -10 278.874023438 -10 c 0
EndSplineSet
Substitution2: "'c2sc' Capitals to Small Capitals lookup 34 subtable" ugrave.sc
Substitution2: "'aalt' Access All Alternates lookup 0 subtable" ugrave.sc
EndChar

StartChar: Uacute
Encoding: 218 218 156
Width: 563
GlyphClass: 2
Flags: HW
AnchorPoint: "Anchor-2" 694.766 714 basechar 0
AnchorPoint: "Anchor-1" 482.653 944 basechar 0
AnchorPoint: "Anchor-0" 282 0 basechar 0
LayerCount: 2
Fore
SplineSet
405.1953125 796 m 1
 447.334960938 839 498.087890625 899 529.653320312 944 c 1
 632.653320312 944 l 1
 630.52734375 934 l 1
 597.450195312 896 511.295898438 820 458.64453125 784 c 1
 402.64453125 784 l 1
 405.1953125 796 l 1
278.874023438 -10 m 0
 155.620677503 -10 101.775723904 48.8053701319 101.775723904 152.337522704 c 0
 101.775723904 179.004542633 105.347987441 208.638894566 112.2265625 241 c 2
 212.765625 714 l 1
 300.765625 714 l 1
 201.076171875 245 l 2
 195.346982526 218.045523729 192.281473799 193.813269889 192.281473799 172.554144529 c 0
 192.281473799 105.478330031 222.798603333 68 296.454101562 68 c 0
 398.454101562 68 444.333007812 138 467.2890625 246 c 2
 566.765625 714 l 1
 654.765625 714 l 1
 554.013671875 240 l 2
 521.705078125 88 436.874023438 -10 278.874023438 -10 c 0
EndSplineSet
Substitution2: "'c2sc' Capitals to Small Capitals lookup 34 subtable" uacute.sc
Substitution2: "'aalt' Access All Alternates lookup 0 subtable" uacute.sc
EndChar

StartChar: Ucircumflex
Encoding: 219 219 157
Width: 563
GlyphClass: 2
Flags: HW
AnchorPoint: "Anchor-2" 694.766 714 basechar 0
AnchorPoint: "Anchor-1" 482.653 944 basechar 0
AnchorPoint: "Anchor-0" 282 0 basechar 0
LayerCount: 2
Fore
SplineSet
295.982421875 795 m 1
 340.91015625 837 406.30078125 900 438.653320312 944 c 1
 523.653320312 944 l 1
 537.087890625 899 578.484375 835 605.982421875 795 c 1
 603.64453125 784 l 1
 547.64453125 784 l 1
 520.533203125 807 493.397460938 844 467.049804688 880 c 1
 425.397460938 844 383.3203125 806 347.64453125 784 c 1
 293.64453125 784 l 1
 295.982421875 795 l 1
278.874023438 -10 m 0
 155.620677503 -10 101.775723904 48.8053701319 101.775723904 152.337522704 c 0
 101.775723904 179.004542633 105.347987441 208.638894566 112.2265625 241 c 2
 212.765625 714 l 1
 300.765625 714 l 1
 201.076171875 245 l 2
 195.346982526 218.045523729 192.281473799 193.813269889 192.281473799 172.554144529 c 0
 192.281473799 105.478330031 222.798603333 68 296.454101562 68 c 0
 398.454101562 68 444.333007812 138 467.2890625 246 c 2
 566.765625 714 l 1
 654.765625 714 l 1
 554.013671875 240 l 2
 521.705078125 88 436.874023438 -10 278.874023438 -10 c 0
EndSplineSet
Substitution2: "'c2sc' Capitals to Small Capitals lookup 34 subtable" ucircumflex.sc
Substitution2: "'aalt' Access All Alternates lookup 0 subtable" ucircumflex.sc
EndChar

StartChar: Udieresis
Encoding: 220 220 158
Width: 563
GlyphClass: 2
Flags: HW
AnchorPoint: "Anchor-2" 694.766 714 basechar 0
AnchorPoint: "Anchor-1" 476.489 915 basechar 0
AnchorPoint: "Anchor-0" 282 0 basechar 0
LayerCount: 2
Fore
SplineSet
557.407226562 797 m 0
 533.070683438 797 515.099825717 810.38059369 515.099825717 838.914761446 c 0
 515.099825717 844.382582414 515.759708743 850.406836831 517.161132812 857 c 0
 525.875976562 898 553.489257812 915 582.489257812 915 c 0
 607.035832431 915 626.127872825 902.820352516 626.127872825 874.21606692 c 0
 626.127872825 869.026460896 625.499439928 863.296222091 624.161132812 857 c 0
 615.446289062 816 586.407226562 797 557.407226562 797 c 0
343.407226562 797 m 0
 319.070683438 797 301.099825717 810.38059369 301.099825717 838.914761446 c 0
 301.099825717 844.382582414 301.759708743 850.406836831 303.161132812 857 c 0
 311.875976562 898 339.489257812 915 368.489257812 915 c 0
 392.890312387 915 411.19333319 902.964334252 411.19333319 874.723062478 c 0
 411.19333319 869.400338936 410.543170426 863.501957326 409.161132812 857 c 0
 400.446289062 816 372.407226562 797 343.407226562 797 c 0
278.874023438 -10 m 0
 155.620677503 -10 101.775723904 48.8053701319 101.775723904 152.337522704 c 0
 101.775723904 179.004542633 105.347987441 208.638894566 112.2265625 241 c 2
 212.765625 714 l 1
 300.765625 714 l 1
 201.076171875 245 l 2
 195.346982526 218.045523729 192.281473799 193.813269889 192.281473799 172.554144529 c 0
 192.281473799 105.478330031 222.798603333 68 296.454101562 68 c 0
 398.454101562 68 444.333007812 138 467.2890625 246 c 2
 566.765625 714 l 1
 654.765625 714 l 1
 554.013671875 240 l 2
 521.705078125 88 436.874023438 -10 278.874023438 -10 c 0
EndSplineSet
Substitution2: "'c2sc' Capitals to Small Capitals lookup 34 subtable" udieresis.sc
Substitution2: "'aalt' Access All Alternates lookup 0 subtable" udieresis.sc
EndChar

StartChar: Yacute
Encoding: 221 221 159
Width: 563
GlyphClass: 2
Flags: HW
AnchorPoint: "Anchor-2" 694.766 714 basechar 0
AnchorPoint: "Anchor-1" 482.653 944 basechar 0
AnchorPoint: "Anchor-0" 282 0 basechar 0
LayerCount: 2
Fore
SplineSet
405.1953125 796 m 1
 447.334960938 839 498.087890625 899 529.653320312 944 c 1
 632.653320312 944 l 1
 630.52734375 934 l 1
 597.450195312 896 511.295898438 820 458.64453125 784 c 1
 402.64453125 784 l 1
 405.1953125 796 l 1
239 0 m 1
 297.666015625 276 l 1
 181.765625 714 l 1
 277.765625 714 l 1
 356.8203125 352 l 1
 591.765625 714 l 1
 685.765625 714 l 1
 382.666015625 276 l 1
 324 0 l 1
 239 0 l 1
EndSplineSet
Substitution2: "'c2sc' Capitals to Small Capitals lookup 34 subtable" yacute.sc
Substitution2: "'aalt' Access All Alternates lookup 0 subtable" yacute.sc
EndChar

StartChar: Thorn
Encoding: 222 222 160
Width: 563
GlyphClass: 2
Flags: HW
AnchorPoint: "Anchor-1" 433.766 714 basechar 0
AnchorPoint: "Anchor-0" 282 0 basechar 0
LayerCount: 2
Fore
SplineSet
84 0 m 1
 235.765625 714 l 1
 322.765625 714 l 1
 295.983398438 588 l 1
 405.983398438 588 l 2
 539.360116426 588 599.665487712 535.187870449 599.665487712 440.569718393 c 0
 599.665487712 421.683020748 597.262679388 401.130603172 592.55859375 379 c 0
 566.202148438 255 480.883789062 150 300.883789062 150 c 2
 202.883789062 150 l 1
 171 0 l 1
 84 0 l 1
308.25 227 m 2
 417.25 227 478.96484375 268 501.49609375 374 c 0
 504.76279828 389.368536121 506.410091044 403.425053462 506.410091044 416.174368987 c 0
 506.410091044 478.916154476 466.515795643 510 383.404296875 510 c 2
 279.404296875 510 l 1
 219.25 227 l 1
 308.25 227 l 2
EndSplineSet
Substitution2: "'c2sc' Capitals to Small Capitals lookup 34 subtable" thorn.sc
Substitution2: "'aalt' Access All Alternates lookup 0 subtable" thorn.sc
EndChar

StartChar: germandbls
Encoding: 223 223 161
Width: 563
GlyphClass: 2
Flags: HW
AnchorPoint: "Anchor-1" 444.605 765 basechar 0
AnchorPoint: "Anchor-0" 282 0 basechar 0
LayerCount: 2
Fore
SplineSet
354.874023438 -10 m 0
 306.874023438 -10 264.212890625 1 236.463867188 21 c 1
 253.680664062 102 l 1
 280.4296875 82 321.390625 63 369.390625 63 c 0
 431.390625 63 464.193359375 95 475.883789062 150 c 0
 477.816060824 159.09082681 478.80600974 167.149044722 478.80600974 174.551421662 c 0
 478.80600974 207.048217555 459.727191207 226.905299732 417.540039062 266 c 0
 375.855187198 303.945476658 349.012633933 334.780537519 349.012633933 378.291111137 c 0
 349.012633933 386.380253355 349.940401418 394.907503248 351.873046875 404 c 0
 374.829101562 512 495.954101562 522 514.872070312 611 c 0
 516.238273077 617.42740607 516.905512567 623.472433975 516.905512567 629.133300186 c 0
 516.905512567 670.151592864 481.87301349 691 423.876953125 691 c 0
 356.876953125 691 302.5 661 284.645507812 577 c 2
 162 0 l 1
 76 0 l 1
 200.345703125 585 l 2
 226.702148438 709 319.60546875 765 440.60546875 765 c 0
 544.706405554 765 609.073161095 724.528564905 609.073161095 650.45191751 c 0
 609.073161095 640.561554992 607.925738488 630.072135088 605.572265625 619 c 0
 580.703125 502 455.452148438 482 439.72265625 408 c 0
 438.852761958 403.907417476 438.404854234 400.113572735 438.404854234 396.489178385 c 0
 438.404854234 374.431149592 454.995032817 358.649440911 494.018554688 320 c 0
 537.269587695 274.384005503 566.371437491 243.365592953 566.371437491 189.650978238 c 0
 566.371437491 177.423406288 564.863386178 164.019722245 561.670898438 149 c 0
 539.139648438 43 460.874023438 -10 354.874023438 -10 c 0
EndSplineSet
Substitution2: "'smcp' Lowercase to Small Capitals lookup 35 subtable" germandbls.sc
Substitution2: "'aalt' Access All Alternates lookup 0 subtable" germandbls.sc
EndChar

StartChar: agrave
Encoding: 224 224 162
Width: 563
GlyphClass: 2
Flags: HW
AnchorPoint: "Anchor-2" 656.931 536 basechar 0
AnchorPoint: "Anchor-1" 444.818 766 basechar 0
AnchorPoint: "Anchor-0" 282 0 basechar 0
LayerCount: 2
Fore
SplineSet
433.809570312 606 m 1
 397.249023438 641 342.403320312 717 326.692382812 756 c 1
 328.818359375 766 l 1
 430.818359375 766 l 1
 443.252929688 721 471.224609375 655 492.360351562 618 c 1
 489.809570312 606 l 1
 433.809570312 606 l 1
229.874023438 -10 m 0
 146.980048801 -10 92.6070753486 27.9757013086 92.6070753486 105.175302507 c 0
 92.6070753486 118.312319248 94.1815891675 132.585168159 97.4580078125 148 c 0
 121.90234375 263 213.592773438 318 363.443359375 322 c 2
 472.081054688 325 l 1
 477.607421875 351 l 2
 480.816161118 366.096070328 482.34901987 379.505813251 482.34901987 391.378925024 c 0
 482.34901987 452.650636433 441.527135573 473 379.5390625 473 c 0
 325.5390625 473 271.138671875 457 222.82421875 432 c 1
 206.065429688 499 l 1
 262.591796875 525 324.055664062 546 400.055664062 546 c 0
 507.896565829 546 567.2369263 504.830548984 567.2369263 416.511379276 c 0
 567.2369263 400.001550548 565.163324501 381.844112323 560.9453125 362 c 2
 484 0 l 1
 416 0 l 1
 418.94140625 75 l 1
 414.94140625 75 l 1
 362.0390625 19 303.874023438 -10 229.874023438 -10 c 0
263.390625 63 m 0
 343.390625 63 425.59375 111 447.487304688 214 c 2
 457.689453125 262 l 1
 370.051757812 259 l 2
 253.202148438 255 198.336914062 218 184.095703125 151 c 0
 182.192338546 142.045080533 181.280520154 133.857921747 181.280520154 126.401189449 c 0
 181.280520154 81.3980267689 214.492694994 63 263.390625 63 c 0
EndSplineSet
Substitution2: "'smcp' Lowercase to Small Capitals lookup 35 subtable" agrave.sc
Substitution2: "'aalt' Access All Alternates lookup 0 subtable" agrave.sc
EndChar

StartChar: aacute
Encoding: 225 225 163
Width: 563
GlyphClass: 2
Flags: HW
AnchorPoint: "Anchor-2" 656.931 536 basechar 0
AnchorPoint: "Anchor-1" 444.818 766 basechar 0
AnchorPoint: "Anchor-0" 282 0 basechar 0
LayerCount: 2
Fore
SplineSet
376.360351562 618 m 1
 417.5 661 468.252929688 721 500.818359375 766 c 1
 602.818359375 766 l 1
 600.692382812 756 l 1
 567.615234375 718 482.4609375 642 429.809570312 606 c 1
 373.809570312 606 l 1
 376.360351562 618 l 1
229.874023438 -10 m 0
 146.980048801 -10 92.6070753486 27.9757013086 92.6070753486 105.175302507 c 0
 92.6070753486 118.312319248 94.1815891675 132.585168159 97.4580078125 148 c 0
 121.90234375 263 213.592773438 318 363.443359375 322 c 2
 472.081054688 325 l 1
 477.607421875 351 l 2
 480.816161118 366.096070328 482.34901987 379.505813251 482.34901987 391.378925024 c 0
 482.34901987 452.650636433 441.527135573 473 379.5390625 473 c 0
 325.5390625 473 271.138671875 457 222.82421875 432 c 1
 206.065429688 499 l 1
 262.591796875 525 324.055664062 546 400.055664062 546 c 0
 507.896565829 546 567.2369263 504.830548984 567.2369263 416.511379276 c 0
 567.2369263 400.001550548 565.163324501 381.844112323 560.9453125 362 c 2
 484 0 l 1
 416 0 l 1
 418.94140625 75 l 1
 414.94140625 75 l 1
 362.0390625 19 303.874023438 -10 229.874023438 -10 c 0
263.390625 63 m 0
 343.390625 63 425.59375 111 447.487304688 214 c 2
 457.689453125 262 l 1
 370.051757812 259 l 2
 253.202148438 255 198.336914062 218 184.095703125 151 c 0
 182.192338546 142.045080533 181.280520154 133.857921747 181.280520154 126.401189449 c 0
 181.280520154 81.3980267689 214.492694994 63 263.390625 63 c 0
EndSplineSet
Substitution2: "'smcp' Lowercase to Small Capitals lookup 35 subtable" aacute.sc
Substitution2: "'aalt' Access All Alternates lookup 0 subtable" aacute.sc
EndChar

StartChar: acircumflex
Encoding: 226 226 164
Width: 563
GlyphClass: 2
Flags: HW
AnchorPoint: "Anchor-2" 656.931 536 basechar 0
AnchorPoint: "Anchor-1" 444.818 766 basechar 0
AnchorPoint: "Anchor-0" 282 0 basechar 0
LayerCount: 2
Fore
SplineSet
266.147460938 617 m 1
 312.075195312 659 376.465820312 722 409.818359375 766 c 1
 494.818359375 766 l 1
 508.252929688 721 548.649414062 657 576.147460938 617 c 1
 573.809570312 606 l 1
 518.809570312 606 l 1
 490.698242188 629 464.5625 666 438.21484375 702 c 1
 396.5625 666 354.485351562 628 318.809570312 606 c 1
 263.809570312 606 l 1
 266.147460938 617 l 1
229.874023438 -10 m 0
 146.980048801 -10 92.6070753486 27.9757013086 92.6070753486 105.175302507 c 0
 92.6070753486 118.312319248 94.1815891675 132.585168159 97.4580078125 148 c 0
 121.90234375 263 213.592773438 318 363.443359375 322 c 2
 472.081054688 325 l 1
 477.607421875 351 l 2
 480.816161118 366.096070328 482.34901987 379.505813251 482.34901987 391.378925024 c 0
 482.34901987 452.650636433 441.527135573 473 379.5390625 473 c 0
 325.5390625 473 271.138671875 457 222.82421875 432 c 1
 206.065429688 499 l 1
 262.591796875 525 324.055664062 546 400.055664062 546 c 0
 507.896565829 546 567.2369263 504.830548984 567.2369263 416.511379276 c 0
 567.2369263 400.001550548 565.163324501 381.844112323 560.9453125 362 c 2
 484 0 l 1
 416 0 l 1
 418.94140625 75 l 1
 414.94140625 75 l 1
 362.0390625 19 303.874023438 -10 229.874023438 -10 c 0
263.390625 63 m 0
 343.390625 63 425.59375 111 447.487304688 214 c 2
 457.689453125 262 l 1
 370.051757812 259 l 2
 253.202148438 255 198.336914062 218 184.095703125 151 c 0
 182.192338546 142.045080533 181.280520154 133.857921747 181.280520154 126.401189449 c 0
 181.280520154 81.3980267689 214.492694994 63 263.390625 63 c 0
EndSplineSet
Substitution2: "'smcp' Lowercase to Small Capitals lookup 35 subtable" acircumflex.sc
Substitution2: "'aalt' Access All Alternates lookup 0 subtable" acircumflex.sc
EndChar

StartChar: atilde
Encoding: 227 227 165
Width: 563
GlyphClass: 2
Flags: HW
AnchorPoint: "Anchor-2" 656.931 536 basechar 0
AnchorPoint: "Anchor-1" 438.017 734 basechar 0
AnchorPoint: "Anchor-0" 282 0 basechar 0
LayerCount: 2
Fore
SplineSet
251.021484375 607 m 1
 273.538085938 680 317.803710938 733 377.803710938 733 c 0
 431.803710938 733 463.688476562 676 504.688476562 676 c 0
 531.688476562 676 547.939453125 696 564.016601562 734 c 1
 615.016601562 734 l 1
 591.4375 656 545.234375 608 488.234375 608 c 0
 435.234375 608 402.350585938 665 362.350585938 665 c 0
 334.350585938 665 318.098632812 645 302.021484375 607 c 1
 251.021484375 607 l 1
229.874023438 -10 m 0
 146.980048801 -10 92.6070753486 27.9757013086 92.6070753486 105.175302507 c 0
 92.6070753486 118.312319248 94.1815891675 132.585168159 97.4580078125 148 c 0
 121.90234375 263 213.592773438 318 363.443359375 322 c 2
 472.081054688 325 l 1
 477.607421875 351 l 2
 480.816161118 366.096070328 482.34901987 379.505813251 482.34901987 391.378925024 c 0
 482.34901987 452.650636433 441.527135573 473 379.5390625 473 c 0
 325.5390625 473 271.138671875 457 222.82421875 432 c 1
 206.065429688 499 l 1
 262.591796875 525 324.055664062 546 400.055664062 546 c 0
 507.896565829 546 567.2369263 504.830548984 567.2369263 416.511379276 c 0
 567.2369263 400.001550548 565.163324501 381.844112323 560.9453125 362 c 2
 484 0 l 1
 416 0 l 1
 418.94140625 75 l 1
 414.94140625 75 l 1
 362.0390625 19 303.874023438 -10 229.874023438 -10 c 0
263.390625 63 m 0
 343.390625 63 425.59375 111 447.487304688 214 c 2
 457.689453125 262 l 1
 370.051757812 259 l 2
 253.202148438 255 198.336914062 218 184.095703125 151 c 0
 182.192338546 142.045080533 181.280520154 133.857921747 181.280520154 126.401189449 c 0
 181.280520154 81.3980267689 214.492694994 63 263.390625 63 c 0
EndSplineSet
Substitution2: "'smcp' Lowercase to Small Capitals lookup 35 subtable" atilde.sc
Substitution2: "'aalt' Access All Alternates lookup 0 subtable" atilde.sc
EndChar

StartChar: adieresis
Encoding: 228 228 166
Width: 563
GlyphClass: 2
Flags: HW
AnchorPoint: "Anchor-2" 656.931 536 basechar 0
AnchorPoint: "Anchor-1" 446.654 737 basechar 0
AnchorPoint: "Anchor-0" 282 0 basechar 0
LayerCount: 2
Fore
SplineSet
528.572265625 619 m 0
 504.235722501 619 486.264864779 632.38059369 486.264864779 660.914761446 c 0
 486.264864779 666.382582414 486.924747806 672.406836831 488.326171875 679 c 0
 497.041015625 720 524.654296875 737 553.654296875 737 c 0
 578.200871494 737 597.292911888 724.820352516 597.292911888 696.21606692 c 0
 597.292911888 691.026460896 596.664478991 685.296222091 595.326171875 679 c 0
 586.611328125 638 557.572265625 619 528.572265625 619 c 0
314.572265625 619 m 0
 290.235722501 619 272.264864779 632.38059369 272.264864779 660.914761446 c 0
 272.264864779 666.382582414 272.924747806 672.406836831 274.326171875 679 c 0
 283.041015625 720 310.654296875 737 339.654296875 737 c 0
 363.341974113 737 382.296549133 724.833159566 382.296549133 696.261181798 c 0
 382.296549133 691.059676018 381.66835827 685.314472615 380.326171875 679 c 0
 371.611328125 638 342.572265625 619 314.572265625 619 c 0
229.874023438 -10 m 0
 146.980048801 -10 92.6070753486 27.9757013086 92.6070753486 105.175302507 c 0
 92.6070753486 118.312319248 94.1815891675 132.585168159 97.4580078125 148 c 0
 121.90234375 263 213.592773438 318 363.443359375 322 c 2
 472.081054688 325 l 1
 477.607421875 351 l 2
 480.816161118 366.096070328 482.34901987 379.505813251 482.34901987 391.378925024 c 0
 482.34901987 452.650636433 441.527135573 473 379.5390625 473 c 0
 325.5390625 473 271.138671875 457 222.82421875 432 c 1
 206.065429688 499 l 1
 262.591796875 525 324.055664062 546 400.055664062 546 c 0
 507.896565829 546 567.2369263 504.830548984 567.2369263 416.511379276 c 0
 567.2369263 400.001550548 565.163324501 381.844112323 560.9453125 362 c 2
 484 0 l 1
 416 0 l 1
 418.94140625 75 l 1
 414.94140625 75 l 1
 362.0390625 19 303.874023438 -10 229.874023438 -10 c 0
263.390625 63 m 0
 343.390625 63 425.59375 111 447.487304688 214 c 2
 457.689453125 262 l 1
 370.051757812 259 l 2
 253.202148438 255 198.336914062 218 184.095703125 151 c 0
 182.192338546 142.045080533 181.280520154 133.857921747 181.280520154 126.401189449 c 0
 181.280520154 81.3980267689 214.492694994 63 263.390625 63 c 0
EndSplineSet
Substitution2: "'smcp' Lowercase to Small Capitals lookup 35 subtable" adieresis.sc
Substitution2: "'aalt' Access All Alternates lookup 0 subtable" adieresis.sc
EndChar

StartChar: aring
Encoding: 229 229 167
Width: 563
GlyphClass: 2
Flags: HW
AnchorPoint: "Anchor-2" 656.931 536 basechar 0
AnchorPoint: "Anchor-1" 455.021 814 basechar 0
AnchorPoint: "Anchor-0" 282 0 basechar 0
LayerCount: 2
Fore
SplineSet
419.021484375 607 m 0
 363.536594514 607 330.122733414 635.417596949 330.122733414 684.166907582 c 0
 330.122733414 692.526932466 331.105396961 701.484889861 333.127929688 711 c 0
 346.731445312 775 398.021484375 814 463.021484375 814 c 0
 516.597399819 814 552.035539216 784.878051532 552.035539216 736.313032069 c 0
 552.035539216 728.676842803 551.159391877 720.559956887 549.33984375 712 c 0
 535.524414062 647 483.021484375 607 419.021484375 607 c 0
429.862304688 658 m 0
 461.862304688 658 488.11328125 678 495.127929688 711 c 0
 496.161064374 715.860997956 496.66151336 720.461617937 496.66151336 724.773094109 c 0
 496.66151336 749.731063217 479.891773763 765 452.60546875 765 c 0
 421.60546875 765 395.141601562 744 388.127929688 711 c 0
 387.099374663 706.161223527 386.603244444 701.601950132 386.603244444 697.344247809 c 0
 386.603244444 672.564821131 403.40782198 658 429.862304688 658 c 0
229.874023438 -10 m 0
 146.980048801 -10 92.6070753486 27.9757013086 92.6070753486 105.175302507 c 0
 92.6070753486 118.312319248 94.1815891675 132.585168159 97.4580078125 148 c 0
 121.90234375 263 213.592773438 318 363.443359375 322 c 2
 472.081054688 325 l 1
 477.607421875 351 l 2
 480.816161118 366.096070328 482.34901987 379.505813251 482.34901987 391.378925024 c 0
 482.34901987 452.650636433 441.527135573 473 379.5390625 473 c 0
 325.5390625 473 271.138671875 457 222.82421875 432 c 1
 206.065429688 499 l 1
 262.591796875 525 324.055664062 546 400.055664062 546 c 0
 507.896565829 546 567.2369263 504.830548984 567.2369263 416.511379276 c 0
 567.2369263 400.001550548 565.163324501 381.844112323 560.9453125 362 c 2
 484 0 l 1
 416 0 l 1
 418.94140625 75 l 1
 414.94140625 75 l 1
 362.0390625 19 303.874023438 -10 229.874023438 -10 c 0
263.390625 63 m 0
 343.390625 63 425.59375 111 447.487304688 214 c 2
 457.689453125 262 l 1
 370.051757812 259 l 2
 253.202148438 255 198.336914062 218 184.095703125 151 c 0
 182.192338546 142.045080533 181.280520154 133.857921747 181.280520154 126.401189449 c 0
 181.280520154 81.3980267689 214.492694994 63 263.390625 63 c 0
EndSplineSet
Substitution2: "'smcp' Lowercase to Small Capitals lookup 35 subtable" aring.sc
Substitution2: "'aalt' Access All Alternates lookup 0 subtable" aring.sc
EndChar

StartChar: ae
Encoding: 230 230 168
Width: 563
GlyphClass: 2
Flags: HW
AnchorPoint: "Anchor-1" 395.931 536 basechar 0
AnchorPoint: "Anchor-0" 282 0 basechar 0
LayerCount: 2
Fore
SplineSet
137.874023438 -10 m 0
 81.0463249491 -10 43.3667255566 24.2710490623 43.3667255566 94.4182665629 c 0
 43.3667255566 110.677948438 45.3911868038 128.865196261 49.6708984375 149 c 0
 72.4140625 256 141.16796875 316 237.018554688 320 c 2
 306.443359375 322 l 1
 313.669921875 356 l 2
 318.402954355 378.26744812 320.70459698 396.800871004 320.70459698 412.052975802 c 0
 320.70459698 456.391584332 301.253573882 473 265.5390625 473 c 0
 235.5390625 473 198.350585938 458 168.674804688 436 c 1
 152.065429688 499 l 1
 189.591796875 525 245.055664062 546 288.055664062 546 c 0
 346.055664062 546 381.954101562 522 391.051757812 466 c 1
 422.678710938 516 467.055664062 546 522.055664062 546 c 0
 587.632046089 546 622.393482542 497.688690143 622.393482542 409.755947536 c 0
 622.393482542 379.687649063 618.328916523 344.986517613 610.041992188 306 c 2
 598.3515625 251 l 1
 370.3515625 251 l 1
 363.574824707 216.854953777 360.406308626 188.260635655 360.406308626 164.521880334 c 0
 360.406308626 89.5375812585 392.020399679 63 441.390625 63 c 0
 479.390625 63 511.94140625 75 554.318359375 105 c 1
 537.526367188 26 l 1
 496 0 462.874023438 -10 419.874023438 -10 c 0
 358.874023438 -10 309.61328125 17 299.255859375 100 c 1
 252.250976562 20 203.874023438 -10 137.874023438 -10 c 0
535.443359375 322 m 1
 542.401283964 354.734148578 545.992905563 382.217827188 545.992905563 404.380884949 c 0
 545.992905563 449.924056686 530.826671183 473 498.5390625 473 c 0
 453.5390625 473 411.2734375 420 387.443359375 322 c 1
 535.443359375 322 l 1
167.390625 63 m 0
 212.390625 63 258.467773438 101 282.487304688 214 c 2
 292.051757812 259 l 1
 251.4140625 256 l 2
 183.564453125 252 142.336914062 218 127.670898438 149 c 0
 125.047170689 136.655882313 123.829782699 125.750883017 123.829782699 116.215336832 c 0
 123.829782699 79.4022669707 141.974154433 63 167.390625 63 c 0
EndSplineSet
Substitution2: "'smcp' Lowercase to Small Capitals lookup 35 subtable" ae.sc
Substitution2: "'aalt' Access All Alternates lookup 0 subtable" ae.sc
EndChar

StartChar: ccedilla
Encoding: 231 231 169
Width: 563
GlyphClass: 2
Flags: HW
AnchorPoint: "Anchor-2" 656.931 536 basechar 0
AnchorPoint: "Anchor-1" 438.931 536 basechar 0
AnchorPoint: "Anchor-0" 251.986 -240 basechar 0
LayerCount: 2
Fore
SplineSet
218.986328125 -240 m 0
 198.986328125 -240 180.411132812 -238 169.048828125 -235 c 1
 180.740234375 -180 l 1
 192.102539062 -183 211.676757812 -185 228.676757812 -185 c 0
 273.676757812 -185 301.65234375 -171 308.2421875 -140 c 0
 308.999366052 -136.437577234 309.371887769 -133.083741201 309.371887769 -129.924688666 c 0
 309.371887769 -102.933533538 282.177402595 -90.1617828786 235.357421875 -83 c 1
 285.299804688 -8 l 1
 184.549391831 1.63740520927 125.137370774 57.0696029248 125.137370774 170.210781354 c 0
 125.137370774 197.947164018 128.707899828 229.151726837 136.115234375 264 c 0
 179.901367188 470 301.055664062 546 446.055664062 546 c 0
 505.055664062 546 550.504882812 534 589.829101562 512 c 1
 547.524414062 440 l 1
 512.201171875 462 478.901367188 470 434.901367188 470 c 0
 319.901367188 470 254.873046875 404 225.540039062 266 c 0
 219.279978108 236.548324222 216.196897342 210.710103181 216.196897342 188.253363392 c 0
 216.196897342 102.435889037 261.22078023 66 346.028320312 66 c 0
 399.028320312 66 452.004882812 80 494.830078125 98 c 1
 478.250976562 20 l 1
 439.637695312 3 388.299804688 -8 338.874023438 -10 c 1
 311.947265625 -52 l 1
 352.778888337 -61.4235831297 380.417211874 -81.1219998631 380.417211874 -119.897590983 c 0
 380.417211874 -126.384135979 379.64378063 -133.404536898 378.029296875 -141 c 0
 364.850585938 -203 308.986328125 -240 218.986328125 -240 c 0
EndSplineSet
Substitution2: "'smcp' Lowercase to Small Capitals lookup 35 subtable" ccedilla.sc
Substitution2: "'aalt' Access All Alternates lookup 0 subtable" ccedilla.sc
EndChar

StartChar: egrave
Encoding: 232 232 170
Width: 563
GlyphClass: 2
Flags: HW
AnchorPoint: "Anchor-2" 656.931 536 basechar 0
AnchorPoint: "Anchor-1" 444.818 766 basechar 0
AnchorPoint: "Anchor-0" 282 0 basechar 0
LayerCount: 2
Fore
SplineSet
428.809570312 606 m 1
 393.249023438 641 337.403320312 717 321.692382812 756 c 1
 323.818359375 766 l 1
 425.818359375 766 l 1
 438.252929688 721 466.224609375 655 488.360351562 618 c 1
 485.809570312 606 l 1
 428.809570312 606 l 1
315.874023438 -10 m 0
 179.753192539 -10 102.095066418 58.3439459239 102.095066418 183.966502889 c 0
 102.095066418 208.772624989 105.12316077 235.812190608 111.327148438 265 c 0
 148.737304688 441 264.055664062 546 408.055664062 546 c 0
 519.913195023 546 580.473468795 479.705314188 580.473468795 371.597082593 c 0
 580.473468795 348.263833487 577.652354131 322.982759515 571.916992188 296 c 2
 562.138671875 250 l 1
 196.138671875 250 l 1
 192.306698413 229.026403251 190.445116845 210.061668406 190.445116845 192.990761632 c 0
 190.445116845 100.99589704 244.507608528 64 335.603515625 64 c 0
 392.603515625 64 448.004882812 80 508.743164062 107 c 1
 491.951171875 28 l 1
 430.212890625 1 371.874023438 -10 315.874023438 -10 c 0
490.443359375 322 m 1
 493.236550952 337.522710715 494.634413233 352.105971987 494.634413233 365.624898162 c 0
 494.634413233 432.229942012 460.70360295 473 392.5390625 473 c 0
 309.5390625 473 244.423828125 416 213.443359375 322 c 1
 490.443359375 322 l 1
EndSplineSet
Substitution2: "'smcp' Lowercase to Small Capitals lookup 35 subtable" egrave.sc
Substitution2: "'aalt' Access All Alternates lookup 0 subtable" egrave.sc
EndChar

StartChar: eacute
Encoding: 233 233 171
Width: 563
GlyphClass: 2
Flags: HW
AnchorPoint: "Anchor-2" 656.931 536 basechar 0
AnchorPoint: "Anchor-1" 444.818 766 basechar 0
AnchorPoint: "Anchor-0" 282 0 basechar 0
LayerCount: 2
Fore
SplineSet
371.360351562 618 m 1
 413.5 661 464.252929688 721 495.818359375 766 c 1
 598.818359375 766 l 1
 596.692382812 756 l 1
 563.615234375 718 477.4609375 642 424.809570312 606 c 1
 368.809570312 606 l 1
 371.360351562 618 l 1
315.874023438 -10 m 0
 179.753192539 -10 102.095066418 58.3439459239 102.095066418 183.966502889 c 0
 102.095066418 208.772624989 105.12316077 235.812190608 111.327148438 265 c 0
 148.737304688 441 264.055664062 546 408.055664062 546 c 0
 519.913195023 546 580.473468795 479.705314188 580.473468795 371.597082593 c 0
 580.473468795 348.263833487 577.652354131 322.982759515 571.916992188 296 c 2
 562.138671875 250 l 1
 196.138671875 250 l 1
 192.306698413 229.026403251 190.445116845 210.061668406 190.445116845 192.990761632 c 0
 190.445116845 100.99589704 244.507608528 64 335.603515625 64 c 0
 392.603515625 64 448.004882812 80 508.743164062 107 c 1
 491.951171875 28 l 1
 430.212890625 1 371.874023438 -10 315.874023438 -10 c 0
490.443359375 322 m 1
 493.236550952 337.522710715 494.634413233 352.105971987 494.634413233 365.624898162 c 0
 494.634413233 432.229942012 460.70360295 473 392.5390625 473 c 0
 309.5390625 473 244.423828125 416 213.443359375 322 c 1
 490.443359375 322 l 1
EndSplineSet
Substitution2: "'smcp' Lowercase to Small Capitals lookup 35 subtable" eacute.sc
Substitution2: "'aalt' Access All Alternates lookup 0 subtable" eacute.sc
EndChar

StartChar: ecircumflex
Encoding: 234 234 172
Width: 563
GlyphClass: 2
Flags: HW
AnchorPoint: "Anchor-2" 656.931 536 basechar 0
AnchorPoint: "Anchor-1" 444.818 766 basechar 0
AnchorPoint: "Anchor-0" 282 0 basechar 0
LayerCount: 2
Fore
SplineSet
262.147460938 617 m 1
 307.075195312 659 372.465820312 722 404.818359375 766 c 1
 489.818359375 766 l 1
 503.252929688 721 544.649414062 657 572.147460938 617 c 1
 569.809570312 606 l 1
 513.809570312 606 l 1
 486.698242188 629 459.5625 666 433.21484375 702 c 1
 391.5625 666 349.485351562 628 313.809570312 606 c 1
 259.809570312 606 l 1
 262.147460938 617 l 1
315.874023438 -10 m 0
 179.753192539 -10 102.095066418 58.3439459239 102.095066418 183.966502889 c 0
 102.095066418 208.772624989 105.12316077 235.812190608 111.327148438 265 c 0
 148.737304688 441 264.055664062 546 408.055664062 546 c 0
 519.913195023 546 580.473468795 479.705314188 580.473468795 371.597082593 c 0
 580.473468795 348.263833487 577.652354131 322.982759515 571.916992188 296 c 2
 562.138671875 250 l 1
 196.138671875 250 l 1
 192.306698413 229.026403251 190.445116845 210.061668406 190.445116845 192.990761632 c 0
 190.445116845 100.99589704 244.507608528 64 335.603515625 64 c 0
 392.603515625 64 448.004882812 80 508.743164062 107 c 1
 491.951171875 28 l 1
 430.212890625 1 371.874023438 -10 315.874023438 -10 c 0
490.443359375 322 m 1
 493.236550952 337.522710715 494.634413233 352.105971987 494.634413233 365.624898162 c 0
 494.634413233 432.229942012 460.70360295 473 392.5390625 473 c 0
 309.5390625 473 244.423828125 416 213.443359375 322 c 1
 490.443359375 322 l 1
EndSplineSet
Substitution2: "'smcp' Lowercase to Small Capitals lookup 35 subtable" ecircumflex.sc
Substitution2: "'aalt' Access All Alternates lookup 0 subtable" ecircumflex.sc
EndChar

StartChar: edieresis
Encoding: 235 235 173
Width: 563
GlyphClass: 2
Flags: HW
AnchorPoint: "Anchor-2" 656.931 536 basechar 0
AnchorPoint: "Anchor-1" 438.654 737 basechar 0
AnchorPoint: "Anchor-0" 282 0 basechar 0
LayerCount: 2
Fore
SplineSet
523.572265625 619 m 0
 499.235722501 619 481.264864779 632.38059369 481.264864779 660.914761446 c 0
 481.264864779 666.382582414 481.924747806 672.406836831 483.326171875 679 c 0
 492.041015625 720 519.654296875 737 548.654296875 737 c 0
 573.200871494 737 592.292911888 724.820352516 592.292911888 696.21606692 c 0
 592.292911888 691.026460896 591.664478991 685.296222091 590.326171875 679 c 0
 581.611328125 638 552.572265625 619 523.572265625 619 c 0
309.572265625 619 m 0
 285.235722501 619 267.264864779 632.38059369 267.264864779 660.914761446 c 0
 267.264864779 666.382582414 267.924747806 672.406836831 269.326171875 679 c 0
 278.041015625 720 305.654296875 737 334.654296875 737 c 0
 359.055351449 737 377.358372252 724.964334252 377.358372252 696.723062478 c 0
 377.358372252 691.400338936 376.708209489 685.501957326 375.326171875 679 c 0
 366.611328125 638 338.572265625 619 309.572265625 619 c 0
315.874023438 -10 m 0
 179.753192539 -10 102.095066418 58.3439459239 102.095066418 183.966502889 c 0
 102.095066418 208.772624989 105.12316077 235.812190608 111.327148438 265 c 0
 148.737304688 441 264.055664062 546 408.055664062 546 c 0
 519.913195023 546 580.473468795 479.705314188 580.473468795 371.597082593 c 0
 580.473468795 348.263833487 577.652354131 322.982759515 571.916992188 296 c 2
 562.138671875 250 l 1
 196.138671875 250 l 1
 192.306698413 229.026403251 190.445116845 210.061668406 190.445116845 192.990761632 c 0
 190.445116845 100.99589704 244.507608528 64 335.603515625 64 c 0
 392.603515625 64 448.004882812 80 508.743164062 107 c 1
 491.951171875 28 l 1
 430.212890625 1 371.874023438 -10 315.874023438 -10 c 0
490.443359375 322 m 1
 493.236550952 337.522710715 494.634413233 352.105971987 494.634413233 365.624898162 c 0
 494.634413233 432.229942012 460.70360295 473 392.5390625 473 c 0
 309.5390625 473 244.423828125 416 213.443359375 322 c 1
 490.443359375 322 l 1
EndSplineSet
Substitution2: "'smcp' Lowercase to Small Capitals lookup 35 subtable" edieresis.sc
Substitution2: "'aalt' Access All Alternates lookup 0 subtable" edieresis.sc
EndChar

StartChar: igrave
Encoding: 236 236 174
Width: 563
GlyphClass: 2
Flags: HW
AnchorPoint: "Anchor-3" 357.366 284 basechar 0
AnchorPoint: "Anchor-1" 444.818 766 basechar 0
AnchorPoint: "Anchor-0" 282 0 basechar 0
LayerCount: 2
Fore
SplineSet
424.809570312 606 m 1
 389.249023438 641 333.403320312 717 317.692382812 756 c 1
 319.818359375 766 l 1
 421.818359375 766 l 1
 434.252929688 721 462.224609375 655 484.360351562 618 c 1
 481.809570312 606 l 1
 424.809570312 606 l 1
78 0 m 1
 90.7529296875 60 l 1
 266.516601562 73 l 1
 349.201171875 462 l 1
 190.96484375 475 l 1
 203.930664062 536 l 1
 451.930664062 536 l 1
 353.516601562 73 l 1
 510.752929688 60 l 1
 498 0 l 1
 78 0 l 1
EndSplineSet
Substitution2: "'smcp' Lowercase to Small Capitals lookup 35 subtable" igrave.sc
Substitution2: "'aalt' Access All Alternates lookup 0 subtable" igrave.sc
EndChar

StartChar: iacute
Encoding: 237 237 175
Width: 563
GlyphClass: 2
Flags: HW
AnchorPoint: "Anchor-3" 357.366 284 basechar 0
AnchorPoint: "Anchor-1" 444.818 766 basechar 0
AnchorPoint: "Anchor-0" 282 0 basechar 0
LayerCount: 2
Fore
SplineSet
367.360351562 618 m 1
 409.5 661 460.252929688 721 491.818359375 766 c 1
 594.818359375 766 l 1
 592.692382812 756 l 1
 559.615234375 718 473.4609375 642 420.809570312 606 c 1
 364.809570312 606 l 1
 367.360351562 618 l 1
78 0 m 1
 90.7529296875 60 l 1
 266.516601562 73 l 1
 349.201171875 462 l 1
 190.96484375 475 l 1
 203.930664062 536 l 1
 451.930664062 536 l 1
 353.516601562 73 l 1
 510.752929688 60 l 1
 498 0 l 1
 78 0 l 1
EndSplineSet
Substitution2: "'smcp' Lowercase to Small Capitals lookup 35 subtable" iacute.sc
Substitution2: "'aalt' Access All Alternates lookup 0 subtable" iacute.sc
EndChar

StartChar: icircumflex
Encoding: 238 238 176
Width: 563
GlyphClass: 2
Flags: HW
AnchorPoint: "Anchor-3" 357.366 284 basechar 0
AnchorPoint: "Anchor-1" 444.818 766 basechar 0
AnchorPoint: "Anchor-0" 282 0 basechar 0
LayerCount: 2
Fore
SplineSet
258.147460938 617 m 1
 303.075195312 659 368.465820312 722 400.818359375 766 c 1
 485.818359375 766 l 1
 499.252929688 721 540.649414062 657 568.147460938 617 c 1
 565.809570312 606 l 1
 509.809570312 606 l 1
 482.698242188 629 455.5625 666 429.21484375 702 c 1
 387.5625 666 345.485351562 628 309.809570312 606 c 1
 255.809570312 606 l 1
 258.147460938 617 l 1
78 0 m 1
 90.7529296875 60 l 1
 266.516601562 73 l 1
 349.201171875 462 l 1
 190.96484375 475 l 1
 203.930664062 536 l 1
 451.930664062 536 l 1
 353.516601562 73 l 1
 510.752929688 60 l 1
 498 0 l 1
 78 0 l 1
EndSplineSet
Substitution2: "'smcp' Lowercase to Small Capitals lookup 35 subtable" icircumflex.sc
Substitution2: "'aalt' Access All Alternates lookup 0 subtable" icircumflex.sc
EndChar

StartChar: idieresis
Encoding: 239 239 177
Width: 563
GlyphClass: 2
Flags: HW
AnchorPoint: "Anchor-3" 357.366 284 basechar 0
AnchorPoint: "Anchor-1" 438.654 737 basechar 0
AnchorPoint: "Anchor-0" 282 0 basechar 0
LayerCount: 2
Fore
SplineSet
519.572265625 619 m 0
 495.235722501 619 477.264864779 632.38059369 477.264864779 660.914761446 c 0
 477.264864779 666.382582414 477.924747806 672.406836831 479.326171875 679 c 0
 488.041015625 720 515.654296875 737 544.654296875 737 c 0
 569.200871494 737 588.292911888 724.820352516 588.292911888 696.21606692 c 0
 588.292911888 691.026460896 587.664478991 685.296222091 586.326171875 679 c 0
 577.611328125 638 548.572265625 619 519.572265625 619 c 0
305.572265625 619 m 0
 281.235722501 619 263.264864779 632.38059369 263.264864779 660.914761446 c 0
 263.264864779 666.382582414 263.924747806 672.406836831 265.326171875 679 c 0
 274.041015625 720 301.654296875 737 330.654296875 737 c 0
 355.055351449 737 373.358372252 724.964334252 373.358372252 696.723062478 c 0
 373.358372252 691.400338936 372.708209489 685.501957326 371.326171875 679 c 0
 362.611328125 638 334.572265625 619 305.572265625 619 c 0
78 0 m 1
 90.7529296875 60 l 1
 266.516601562 73 l 1
 349.201171875 462 l 1
 190.96484375 475 l 1
 203.930664062 536 l 1
 451.930664062 536 l 1
 353.516601562 73 l 1
 510.752929688 60 l 1
 498 0 l 1
 78 0 l 1
EndSplineSet
Substitution2: "'smcp' Lowercase to Small Capitals lookup 35 subtable" idieresis.sc
Substitution2: "'aalt' Access All Alternates lookup 0 subtable" idieresis.sc
EndChar

StartChar: eth
Encoding: 240 240 178
Width: 563
GlyphClass: 2
Flags: HW
AnchorPoint: "Anchor-3" 338.965 268 basechar 0
AnchorPoint: "Anchor-2" 704.543 760 basechar 0
AnchorPoint: "Anchor-1" 444.605 765 basechar 0
AnchorPoint: "Anchor-0" 282 0 basechar 0
LayerCount: 2
Fore
SplineSet
280.874023438 -10 m 0
 163.202577835 -10 92.4051118851 58.7992668377 92.4051118851 169.096622955 c 0
 92.4051118851 189.088585728 94.731051189 210.443902903 99.525390625 233 c 0
 131.409179688 383 236.5390625 473 372.5390625 473 c 0
 437.5390625 473 483.92578125 456 505.848632812 418 c 1
 510.2734375 420 l 1
 503.790039062 493 473.393554688 557 428.659179688 610 c 1
 296.993164062 541 l 1
 271.68359375 596 l 1
 385.224609375 655 l 1
 364.262695312 674 340.876953125 691 316.27734375 707 c 1
 364.60546875 765 l 1
 401.354492188 745 433.252929688 721 460.514648438 694 c 1
 590.967773438 762 l 1
 615.490234375 708 l 1
 501.736328125 648 l 1
 555.934161075 576.4178499 584.618228834 488.105964587 584.618228834 389.490593144 c 0
 584.618228834 351.718307061 580.410012568 312.434404903 571.815429688 272 c 0
 532.067382812 85 424.874023438 -10 280.874023438 -10 c 0
298.178710938 62 m 0
 396.178710938 62 452.995117188 127 478.926757812 249 c 0
 482.13019522 264.071206697 483.78238662 278.659545045 483.78238662 292.4531261 c 0
 483.78238662 355.538645169 449.2230294 402 370.447265625 402 c 0
 267.447265625 402 209.694335938 342 185.887695312 230 c 0
 181.857172872 211.037147928 179.757611536 193.067954452 179.757611536 176.428627756 c 0
 179.757611536 107.953400832 215.314522931 62 298.178710938 62 c 0
EndSplineSet
Substitution2: "'smcp' Lowercase to Small Capitals lookup 35 subtable" eth.sc
Substitution2: "'aalt' Access All Alternates lookup 0 subtable" eth.sc
EndChar

StartChar: ntilde
Encoding: 241 241 179
Width: 563
GlyphClass: 2
Flags: HW
AnchorPoint: "Anchor-2" 656.931 536 basechar 0
AnchorPoint: "Anchor-1" 438.017 734 basechar 0
AnchorPoint: "Anchor-0" 282 0 basechar 0
LayerCount: 2
Fore
SplineSet
254.021484375 607 m 1
 276.538085938 680 320.803710938 733 380.803710938 733 c 0
 434.803710938 733 466.688476562 676 507.688476562 676 c 0
 534.688476562 676 550.939453125 696 567.016601562 734 c 1
 618.016601562 734 l 1
 594.4375 656 548.234375 608 491.234375 608 c 0
 438.234375 608 405.350585938 665 365.350585938 665 c 0
 337.350585938 665 321.098632812 645 305.021484375 607 c 1
 254.021484375 607 l 1
73 0 m 1
 186.930664062 536 l 1
 256.930664062 536 l 1
 252.776367188 460 l 1
 257.776367188 460 l 1
 300.31640625 519 366.055664062 546 439.055664062 546 c 0
 526.419875858 546 578.772777101 505.921873918 578.772777101 417.927515817 c 0
 578.772777101 399.157310179 576.390626798 378.206830595 571.458007812 355 c 2
 496 0 l 1
 409 0 l 1
 481.907226562 343 l 2
 485.914900804 361.8545234 487.958810107 378.597388688 487.958810107 393.267938065 c 0
 487.958810107 447.069463942 460.46986642 473 401.5390625 473 c 0
 302.5390625 473 245.235351562 401 218.666015625 276 c 2
 160 0 l 1
 73 0 l 1
EndSplineSet
Substitution2: "'smcp' Lowercase to Small Capitals lookup 35 subtable" ntilde.sc
Substitution2: "'aalt' Access All Alternates lookup 0 subtable" ntilde.sc
EndChar

